{
.appVersion = "1356";
DisplayStrings = (
"/Scommaaccent",
"/commaturnedabovecomb",
"/Uogonek",
"/ogonekcomb",
"",
"/commaaccentcomb/Tcommaaccent",
"/commaaccentcomb T/Tcommaaccent",
"/Ecircumflexacute/Ecircumflexdotbelow/Ecircumflexgrave/Ecircumflexhookabove/Ecircumflextilde/Edotbelow",
"/nine.lf",
"/zero.tf/one.tf/two.tf/three.tf/four.tf/five.tf/six.tf/seven.tf/eight.tf/nine.tf",
"/dotbelowcomb",
"/dotbelowcomb.case",
"/dieresisbelowcomb",
"/dotbelowcomb/dieresisbelowcomb",
"/dieresisbelowcomb.case",
"/estimated",
"/second",
"/one.tf",
"/three.tf",
"/four.tf",
"/five.tf",
"/seven.tf",
"/eight.tf",
"/nine.tf",
"/mu",
e,
o,
z,
M,
L,
R,
Y,
Z,
"/schwa",
m,
l,
n,
H,
E,
G,
"/commaaccentcomb.case/Gcommaaccent",
s,
"/Ahookabove",
A,
ABEOH,
oaoeonon
);
copyright = "Copyright (c) 2011-2012, Sorkin Type Co (www.sorkintype.com)\012with Reserved Font Names \"Voltaire\" and \"Voltaire One\".";
customParameters = (
{
name = description;
value = "Voltaire is a low contrast condensed semi-geometric style sans serif. Voltaire is highly readable and will work from medium yext sizes all the way up to larger display settings. Voltaire was inspired by 20th century Swedish posters whose letters have similar forms.";
},
{
name = license;
value = "This Font Software is licensed under the SIL Open Font License, Version 1.1.";
},
{
name = licenseURL;
value = "http://scripts.sil.org/OFL";
},
{
name = uniqueID;
value = "YvonneSchttler: Voltaire Regular: 2011";
},
{
name = versionString;
value = "Version 1.004";
},
{
name = codePageRanges;
value = (
1252,
1250,
1254
);
},
{
name = openTypeOS2Panose;
value = (
2,
1,
5,
0,
0,
0,
0,
0,
0,
4
);
},
{
name = fsType;
value = (
);
},
{
name = unicodeRanges;
value = (
0,
1,
2,
3,
5,
7,
31,
33
);
},
{
name = vendorID;
value = STC;
},
{
name = blueFuzz;
value = 1;
},
{
name = blueScale;
value = 0.03963;
},
{
name = blueShift;
value = 7;
},
{
name = postscriptIsFixedPitch;
value = 0;
},
{
name = trademark;

glyphs = (
{
glyphname = A;
lastChange = "2021-08-22 04:15:38 +0000";
layers = (
{
anchors = (
{
name = bottom;
position = "{477, 0}";
},
{
name = btm;
position = "{477, -170}";
},
{
name = ogonek;
position = "{859, 10}";
},
{
name = top;
position = "{477, 1700}";
}
);
layerId = master01;
paths = (
{
closed = 1;
nodes = (
"202 0 LINE",
"436 898 LINE",
"476 1118 LINE",
"518 898 LINE",
"752 0 LINE",
"949 0 LINE",
"494 1612 LINE",
"459 1612 LINE",
"5 0 LINE"
);
},
{
closed = 1;
nodes = (
"754 265 LINE",
"754 431 LINE",
"209 431 LINE",
"209 265 LINE"
);
}
);
userData = {
com.typemytype.robofont.mark = (
0.967,
0.6,
1,
1
);
};
width = 954;
},
{
anchors = (
{
name = bottom;
position = "{477, 0}";
},
{
name = btm;
position = "{477, -170}";
},
{
name = ogonek;
position = "{859, 10}";
},
{
name = top;
position = "{477, 1700}";
}
);
layerId = "AC8F5225-6E8D-48D3-AF8E-295F90E86009";
paths = (
{
closed = 1;
nodes = (
"257 0 LINE",
"444 718 LINE",
"476 894 LINE",
"510 718 LINE",
"697 0 LINE",
"973 0 LINE",
"495 1693 LINE",
"458 1693 LINE",
"-19 0 LINE"
);
},
{
closed = 1;
nodes = (
"754 225 LINE",
"754 461 LINE",
"209 461 LINE",
"209 225 LINE"
);
}
);
userData = {
com.typemytype.robofont.mark = (
0.967,
0.6,
1,
1
);
};
width = 954;
}
);
unicode = 0041;
},
{
glyphname = Aogonek;
lastChange = "2021-08-22 04:13:59 +0000";
layers = (
{
layerId = master01;
paths = (
{
closed = 1;
nodes = (
"546 852 LINE",
"773 0 LINE",
"977 0 LINE",
"505 1642 LINE",
"33 0 LINE",
"237 0 LINE",
"464 852 LINE",
"504 1042 LINE"
);
},
{
closed = 1;
nodes = (
"782 265 LINE",
"782 441 LINE",
"237 441 LINE",
"237 265 LINE"
);
},
{
closed = 1;
nodes = (
"826 -376 OFFCURVE",
"765 -316 OFFCURVE",
"755 -255 CURVE SMOOTH",
"734 -132 OFFCURVE",
"895 -25 OFFCURVE",
"977 0 CURVE",
"899 67 LINE",
"818 45 LINE",
"638 -34 OFFCURVE",
"531 -170 OFFCURVE",
"557 -308 CURVE SMOOTH",
"585 -464 OFFCURVE",
"741 -534 OFFCURVE",
"950 -506 CURVE",
"951 -365 LINE"
);
}
);
width = 1011;
},
{
layerId = "AC8F5225-6E8D-48D3-AF8E-295F90E86009";
paths = (
{
closed = 1;
nodes = (
"546 852 LINE",
"773 0 LINE",
"977 0 LINE",
"505 1642 LINE",
"33 0 LINE",
"237 0 LINE",
"464 852 LINE",
"504 1042 LINE"
);
},
{
closed = 1;
nodes = (
"782 265 LINE",
"782 441 LINE",
"237 441 LINE",
"237 265 LINE"
);
},
{
closed = 1;
nodes = (
"826 -376 OFFCURVE",
"765 -316 OFFCURVE",
"755 -255 CURVE SMOOTH",
"734 -132 OFFCURVE",
"895 -25 OFFCURVE",
"977 0 CURVE",
"899 67 LINE",
"818 45 LINE",
"638 -34 OFFCURVE",
"531 -170 OFFCURVE",
"557 -308 CURVE SMOOTH",
"585 -464 OFFCURVE",
"741 -534 OFFCURVE",
"950 -506 CURVE",
"951 -365 LINE"
);
}
);
width = 1011;
}
);
unicode = 0104;
},
{
glyphname = AE;
lastChange = "2021-08-22 04:13:59 +0000";
layers = (
{
anchors = (
{
name = top;
position = "{872, 1700}";
}
);
layerId = master01;
paths = (
{
closed = 1;
nodes = (
"225 0 LINE",
"619 1144 LINE",
"619 0 LINE",
"823 0 LINE",
"648 1593 LINE",
"620 1593 LINE",
"21 0 LINE"
);
},
{
closed = 1;
nodes = (
"721 265 LINE",
"721 441 LINE",
"318 441 LINE",
"318 265 LINE"
);
},
{
closed = 1;
nodes = (
"1187 0 LINE",
"1187 176 LINE",
"830 176 LINE",
"830 629 LINE",
"1136 629 LINE",
"1136 805 LINE",
"830 805 LINE",
"830 1417 LINE",
"1187 1417 LINE",
"1187 1593 LINE",
"640 1593 LINE",
"640 0 LINE"
);
}
);
width = 1314;
},
{
anchors = (
{
name = top;
position = "{872, 1700}";
}
);
layerId = "AC8F5225-6E8D-48D3-AF8E-295F90E86009";
paths = (
{
closed = 1;
nodes = (
"225 0 LINE",
"619 1144 LINE",
"619 0 LINE",
"823 0 LINE",
"648 1593 LINE",
"620 1593 LINE",
"21 0 LINE"
);
},
{
closed = 1;
nodes = (
"721 265 LINE",
"721 441 LINE",
"318 441 LINE",
"318 265 LINE"
);
},
{
closed = 1;
nodes = (
"1187 0 LINE",
"1187 176 LINE",
"830 176 LINE",
"830 629 LINE",
"1136 629 LINE",
"1136 805 LINE",
"830 805 LINE",
"830 1417 LINE",
"1187 1417 LINE",
"1187 1593 LINE",
"640 1593 LINE",
"640 0 LINE"
);
}
);
width = 1314;
}
);
unicode = 00C6;
},
{
glyphname = B;
lastChange = "2021-08-22 04:20:29 +0000";
layers = (
{
anchors = (
{
name = btm;
position = "{508, -170}";
},
{
name = top;
position = "{508, 1700}";
}
);
layerId = master01;
paths = (
{
closed = 1;
nodes = (
"210 -18 OFFCURVE",
"318 -16 OFFCURVE",
"348 -14 CURVE SMOOTH",
"722 11 OFFCURVE",
"837 230 OFFCURVE",
"837 431 CURVE SMOOTH",
"837 586 OFFCURVE",
"760 706 OFFCURVE",
"622 785 CURVE",
"729 880 OFFCURVE",
"790 1009 OFFCURVE",
"790 1122 CURVE SMOOTH",
"790 1328 OFFCURVE",
"683 1561 OFFCURVE",
"324 1603 CURVE SMOOTH",
"294 1607 OFFCURVE",
"210 1612 OFFCURVE",
"178 1612 CURVE",
"178 -18 LINE"
);
},
{
closed = 1;
nodes = (
"361 681 LINE",
"536 701 OFFCURVE",
"642 576 OFFCURVE",
"642 431 CURVE SMOOTH",
"642 267 OFFCURVE",
"516 172 OFFCURVE",
"361 172 CURVE"
);
},
{
closed = 1;
nodes = (
"361 1418 LINE",
"462 1418 OFFCURVE",
"610 1341 OFFCURVE",
"610 1134 CURVE SMOOTH",
"610 971 OFFCURVE",
"482 818 OFFCURVE",
"361 838 CURVE"
);
}
);
userData = {
com.typemytype.robofont.guides = (
{
angle = 90;
isGlobal = 0;
magnetic = 5;
x = 846;
y = 0;
}
);
com.typemytype.robofont.mark = (
0.967,
0.6,
1,
1
);
};
width = 936;
},
{
anchors = (
{
name = btm;
position = "{508, -170}";
},
{
name = top;
position = "{508, 1700}";
}
);
layerId = "AC8F5225-6E8D-48D3-AF8E-295F90E86009";
paths = (
{
closed = 1;
nodes = (
"190 -18 OFFCURVE",
"317 -16 OFFCURVE",
"350 -14 CURVE SMOOTH",
"762 11 OFFCURVE",
"888 230 OFFCURVE",
"888 431 CURVE SMOOTH",
"888 586 OFFCURVE",
"804 736 OFFCURVE",
"592 785 CURVE",
"769 850 OFFCURVE",
"837 1009 OFFCURVE",
"837 1122 CURVE SMOOTH",
"837 1328 OFFCURVE",
"719 1561 OFFCURVE",
"324 1603 CURVE SMOOTH",
"291 1607 OFFCURVE",
"190 1612 OFFCURVE",
"90 1612 CURVE",
"90 -18 LINE"
);
},
{
closed = 1;
nodes = (
"361 640 LINE",
"504 657 OFFCURVE",
"578 552 OFFCURVE",
"578 430 CURVE SMOOTH",
"578 293 OFFCURVE",
"490 213 OFFCURVE",
"361 213 CURVE"
);
},
{
closed = 1;
nodes = (
"361 1365 LINE",
"452 1365 OFFCURVE",
"555 1306 OFFCURVE",
"555 1132 CURVE SMOOTH",
"555 995 OFFCURVE",
"466 867 OFFCURVE",
"361 884 CURVE"
);
}
);
userData = {
com.typemytype.robofont.guides = (
{
angle = 90;
isGlobal = 0;
magnetic = 5;
x = 846;
y = 0;
}
);
com.typemytype.robofont.mark = (
0.967,
0.6,
1,
1
);
};
width = 936;
}
);
unicode = 0042;
},
{
glyphname = C;
lastChange = "2021-08-22 04:13:59 +0000";
layers = (
{
anchors = (
{
name = btm;
position = "{441, -170}";
},
{
name = top;
position = "{441, 1700}";
}
);
layerId = master01;
paths = (
{
closed = 1;
nodes = (
"658 -19 OFFCURVE",
"718 -6 OFFCURVE",
"784 22 CURVE",
"720 179 LINE",
"695 168 OFFCURVE",
"645 162 OFFCURVE",
"609 162 CURVE SMOOTH",
"438 162 OFFCURVE",
"289 335 OFFCURVE",
"289 796 CURVE SMOOTH",
"289 1257 OFFCURVE",
"438 1431 OFFCURVE",
"609 1431 CURVE SMOOTH",
"645 1431 OFFCURVE",
"715 1425 OFFCURVE",
"740 1414 CURVE",
"784 1570 LINE",
"718 1598 OFFCURVE",
"658 1611 OFFCURVE",
"583 1611 CURVE SMOOTH",
"321 1611 OFFCURVE",
"97 1394 OFFCURVE",
"97 796 CURVE SMOOTH",
"97 208 OFFCURVE",
"321 -19 OFFCURVE",
"583 -19 CURVE SMOOTH"
);
}
);
userData = {
com.typemytype.robofont.guides = (
{
angle = 0;
isGlobal = 0;
magnetic = 5;
x = 0;
y = 796;
},
{
angle = 90;
isGlobal = 0;
magnetic = 5;
x = 801;
y = 0;
}
);
com.typemytype.robofont.mark = (
0.967,
0.6,
1,
1
);
};
width = 801;
},
{
anchors = (
{
name = btm;
position = "{441, -170}";
},
{
name = top;
position = "{441, 1700}";
}
);
layerId = "AC8F5225-6E8D-48D3-AF8E-295F90E86009";
paths = (
{
closed = 1;
nodes = (
"658 -19 OFFCURVE",
"718 -6 OFFCURVE",
"784 22 CURVE",
"720 179 LINE",
"695 168 OFFCURVE",
"645 162 OFFCURVE",
"609 162 CURVE SMOOTH",
"438 162 OFFCURVE",
"289 335 OFFCURVE",
"289 796 CURVE SMOOTH",
"289 1257 OFFCURVE",
"438 1431 OFFCURVE",
"609 1431 CURVE SMOOTH",
"645 1431 OFFCURVE",
"715 1425 OFFCURVE",
"740 1414 CURVE",
"784 1570 LINE",
"718 1598 OFFCURVE",
"658 1611 OFFCURVE",
"583 1611 CURVE SMOOTH",
"321 1611 OFFCURVE",
"97 1394 OFFCURVE",
"97 796 CURVE SMOOTH",
"97 208 OFFCURVE",
"321 -19 OFFCURVE",
"583 -19 CURVE SMOOTH"
);
}
);
userData = {
com.typemytype.robofont.guides = (
{
angle = 0;
isGlobal = 0;
magnetic = 5;
x = 0;
y = 796;
},
{
angle = 90;
isGlobal = 0;
magnetic = 5;
x = 801;
y = 0;
}
);
com.typemytype.robofont.mark = (
0.967,
0.6,
1,
1
);
};
width = 801;
}
);
unicode = 0043;
},
{
glyphname = D;
lastChange = "2021-08-22 04:13:59 +0000";
layers = (
{
anchors = (
{
name = btm;
position = "{550, -170}";
},
{
name = top;
position = "{550, 1700}";
}
);
layerId = master01;
paths = (
{
closed = 1;
nodes = (
"246 -15 OFFCURVE",
"309 -2 OFFCURVE",
"370 10 CURVE SMOOTH",
"740 82 OFFCURVE",
"921 386 OFFCURVE",
"921 806 CURVE SMOOTH",
"921 1229 OFFCURVE",
"712 1526 OFFCURVE",
"363 1590 CURVE SMOOTH",
"304 1601 OFFCURVE",
"243 1608 OFFCURVE",
"178 1611 CURVE",
"178 -19 LINE"
);
},
{
closed = 1;
nodes = (
"368 1405 LINE",
"543 1371 OFFCURVE",
"727 1220 OFFCURVE",
"727 806 CURVE SMOOTH",
"727 386 OFFCURVE",
"543 231 OFFCURVE",
"368 187 CURVE"
);
}
);
userData = {
com.typemytype.robofont.mark = (
0.967,
0.6,
1,
1
);
};
width = 986;
},
{
anchors = (
{
name = btm;
position = "{550, -170}";
},
{
name = top;
position = "{550, 1700}";
}
);
layerId = "AC8F5225-6E8D-48D3-AF8E-295F90E86009";
paths = (
{
closed = 1;
nodes = (
"246 -15 OFFCURVE",
"309 -2 OFFCURVE",
"370 10 CURVE SMOOTH",
"740 82 OFFCURVE",
"921 386 OFFCURVE",
"921 806 CURVE SMOOTH",
"921 1229 OFFCURVE",
"712 1526 OFFCURVE",
"363 1590 CURVE SMOOTH",
"304 1601 OFFCURVE",
"243 1608 OFFCURVE",
"178 1611 CURVE",
"178 -19 LINE"
);
},
{
closed = 1;
nodes = (
"368 1405 LINE",
"543 1371 OFFCURVE",
"727 1220 OFFCURVE",
"727 806 CURVE SMOOTH",
"727 386 OFFCURVE",
"543 231 OFFCURVE",
"368 187 CURVE"
);
}
);
userData = {
com.typemytype.robofont.mark = (
0.967,
0.6,
1,
1
);
};
width = 986;
}
);
unicode = 0044;
},
{
glyphname = Eth;
lastChange = "2021-08-22 04:13:59 +0000";
layers = (
{
components = (
{
name = D;
}
);
layerId = master01;
paths = (
{
closed = 1;
nodes = (
"522 716 LINE",
"522 884 LINE",
"66 884 LINE",
"66 716 LINE"
);
}
);
width = 1017;
},
{
components = (
{
name = D;
}
);
layerId = "AC8F5225-6E8D-48D3-AF8E-295F90E86009";
paths = (
{
closed = 1;
nodes = (
"522 716 LINE",
"522 884 LINE",
"66 884 LINE",
"66 716 LINE"
);
}
);
width = 1017;
}
);
unicode = 00D0;
},
{
glyphname = Dcroat;
lastChange = "2021-08-22 04:13:59 +0000";
layers = (
{
components = (
{
name = D;
transform = "{1, 0, 0, 1, -5, 0}";
}
);
layerId = master01;
paths = (
{
closed = 1;
nodes = (
"507 884 LINE",
"60 884 LINE",
"60 716 LINE",
"507 716 LINE"
);
}
);
width = 987;
},
{
components = (
{
name = D;
transform = "{1, 0, 0, 1, -5, 0}";
}
);
layerId = "AC8F5225-6E8D-48D3-AF8E-295F90E86009";
paths = (
{
closed = 1;
nodes = (
"507 884 LINE",
"60 884 LINE",
"60 716 LINE",
"507 716 LINE"
);
}
);
width = 987;
}
);
unicode = 0110;
},
{
glyphname = E;
lastChange = "2021-08-22 04:20:20 +0000";
layers = (
{
anchors = (
{
name = bottom;
position = "{398, 0}";
},
{
name = btm;
position = "{432, -170}";
},
{
name = ogonek;
position = "{732, 10}";
},
{
name = top;
position = "{432, 1700}";
},
{
name = topleft;
position = "{0, 1593}";
}
);
layerId = master01;
paths = (
{
closed = 1;
nodes = (
"705 0 LINE",
"705 176 LINE",
"348 176 LINE",
"348 629 LINE",
"654 629 LINE",
"654 805 LINE",
"348 805 LINE",
"348 1417 LINE",
"705 1417 LINE",
"705 1593 LINE",
"158 1593 LINE",
"158 0 LINE"
);
}
);
userData = {
com.typemytype.robofont.mark = (
0.967,
0.6,
1,
1
);
};
width = 765;
},
{
anchors = (
{
name = bottom;
position = "{408, 0}";
},
{
name = btm;
position = "{442, -170}";
},
{
name = ogonek;
position = "{742, 10}";
},
{
name = top;
position = "{442, 1700}";
},
{
name = topleft;
position = "{10, 1593}";
}
);
layerId = "AC8F5225-6E8D-48D3-AF8E-295F90E86009";
paths = (
{
closed = 1;
nodes = (
"715 0 LINE",
"715 236 LINE",
"398 236 LINE",
"398 599 LINE",
"664 599 LINE",
"664 835 LINE",
"398 835 LINE",
"398 1357 LINE",
"715 1357 LINE",
"715 1593 LINE",
"138 1593 LINE",
"138 0 LINE"
);
}
);
userData = {
com.typemytype.robofont.mark = (
0.967,
0.6,
1,
1
);
};
width = 775;
}
);
leftMetricsKey = H;
unicode = 0045;
},
{
glyphname = Eogonek;
lastChange = "2021-08-22 04:13:59 +0000";
layers = (
{
layerId = master01;
paths = (
{
closed = 1;
nodes = (
"725 0 LINE",
"725 176 LINE",
"368 176 LINE",
"368 629 LINE",
"674 629 LINE",
"674 805 LINE",
"368 805 LINE",
"368 1417 LINE",
"725 1417 LINE",
"725 1593 LINE",
"178 1593 LINE",
"178 0 LINE"
);
},
{
closed = 1;
nodes = (
"584 -376 OFFCURVE",
"523 -316 OFFCURVE",
"513 -255 CURVE SMOOTH",
"493 -132 OFFCURVE",
"644 -25 OFFCURVE",
"725 0 CURVE",
"647 67 LINE",
"566 45 LINE",
"386 -34 OFFCURVE",
"290 -170 OFFCURVE",
"315 -308 CURVE SMOOTH",
"344 -464 OFFCURVE",
"500 -534 OFFCURVE",
"708 -506 CURVE",
"709 -365 LINE"
);
}
);
width = 851;
},
{
layerId = "AC8F5225-6E8D-48D3-AF8E-295F90E86009";
paths = (
{
closed = 1;
nodes = (
"725 0 LINE",
"725 176 LINE",
"368 176 LINE",
"368 629 LINE",
"674 629 LINE",
"674 805 LINE",
"368 805 LINE",
"368 1417 LINE",
"725 1417 LINE",
"725 1593 LINE",
"178 1593 LINE",
"178 0 LINE"
);
},
{
closed = 1;
nodes = (
"584 -376 OFFCURVE",
"523 -316 OFFCURVE",
"513 -255 CURVE SMOOTH",
"493 -132 OFFCURVE",
"644 -25 OFFCURVE",
"725 0 CURVE",
"647 67 LINE",
"566 45 LINE",
"386 -34 OFFCURVE",
"290 -170 OFFCURVE",
"315 -308 CURVE SMOOTH",
"344 -464 OFFCURVE",
"500 -534 OFFCURVE",
"708 -506 CURVE",
"709 -365 LINE"
);
}
);
width = 851;
}
);
unicode = 0118;
},
{
glyphname = F;
lastChange = "2021-08-22 04:13:59 +0000";
layers = (
{
anchors = (
{
name = btm;
position = "{456, -170}";
},
{
name = top;
position = "{456, 1700}";
}
);
layerId = master01;
paths = (
{
closed = 1;
nodes = (
"368 0 LINE",
"368 567 LINE",
"682 567 LINE",
"682 743 LINE",
"368 743 LINE",
"368 1417 LINE",
"733 1417 LINE",
"733 1593 LINE",
"178 1594 LINE",
"178 0 LINE"
);
}
);
userData = {
com.typemytype.robofont.mark = (
0.967,
0.6,
1,
1
);
};
width = 772;
},
{
anchors = (
{
name = btm;
position = "{456, -170}";
},
{
name = top;
position = "{456, 1700}";
}
);
layerId = "AC8F5225-6E8D-48D3-AF8E-295F90E86009";
paths = (
{
closed = 1;
nodes = (
"368 0 LINE",
"368 567 LINE",
"682 567 LINE",
"682 743 LINE",
"368 743 LINE",
"368 1417 LINE",
"733 1417 LINE",
"733 1593 LINE",
"178 1594 LINE",
"178 0 LINE"
);
}
);
userData = {
com.typemytype.robofont.mark = (
0.967,
0.6,
1,
1
);
};
width = 772;
}
);
unicode = 0046;
},
{
glyphname = G;
lastChange = "2021-08-22 04:13:59 +0000";
layers = (
{
anchors = (
{
name = bottom;
position = "{520, 0}";
},
{
name = btm;
position = "{471, -170}";
},
{
name = top;
position = "{575, 1700}";
}
);
layerId = master01;
paths = (
{
closed = 1;
nodes = (
"679 161 LINE",
"453 201 OFFCURVE",
"290 365 OFFCURVE",
"290 824 CURVE SMOOTH",
"290 1217 OFFCURVE",
"463 1429 OFFCURVE",
"658 1429 CURVE SMOOTH",
"699 1429 OFFCURVE",
"754 1423 OFFCURVE",
"791 1412 CURVE",
"876 1570 LINE",
"795 1598 OFFCURVE",
"734 1611 OFFCURVE",
"654 1611 CURVE SMOOTH",
"334 1611 OFFCURVE",
"96 1327 OFFCURVE",
"96 826 CURVE SMOOTH",
"96 211 OFFCURVE",
"424 -35 OFFCURVE",
"868 -18 CURVE"
);
},
{
closed = 1;
nodes = (
"868 643 LINE",
"869 643 LINE",
"869 811 LINE",
"592 811 LINE",
"592 643 LINE",
"679 643 LINE",
"679 110 LINE",
"868 -18 LINE"
);
}
);
userData = {
com.typemytype.robofont.mark = (
0.967,
0.6,
1,
1
);
};
width = 940;
},
{
anchors = (
{
name = bottom;
position = "{520, 0}";
},
{
name = btm;
position = "{471, -170}";
},
{
name = top;
position = "{575, 1700}";
}
);
layerId = "AC8F5225-6E8D-48D3-AF8E-295F90E86009";
paths = (
{
closed = 1;
nodes = (
"679 161 LINE",
"453 201 OFFCURVE",
"290 365 OFFCURVE",
"290 824 CURVE SMOOTH",
"290 1217 OFFCURVE",
"463 1429 OFFCURVE",
"658 1429 CURVE SMOOTH",
"699 1429 OFFCURVE",
"754 1423 OFFCURVE",
"791 1412 CURVE",
"876 1570 LINE",
"795 1598 OFFCURVE",
"734 1611 OFFCURVE",
"654 1611 CURVE SMOOTH",
"334 1611 OFFCURVE",
"96 1327 OFFCURVE",
"96 826 CURVE SMOOTH",
"96 211 OFFCURVE",
"424 -35 OFFCURVE",
"868 -18 CURVE"
);
},
{
closed = 1;
nodes = (
"868 643 LINE",
"869 643 LINE",
"869 811 LINE",
"592 811 LINE",
"592 643 LINE",
"679 643 LINE",
"679 110 LINE",
"868 -18 LINE"
);
}
);
userData = {
com.typemytype.robofont.mark = (
0.967,
0.6,
1,
1
);
};
width = 940;
}
);
unicode = 0047;
},
{
glyphname = H;
lastChange = "2021-08-22 04:17:55 +0000";
layers = (
{
anchors = (
{
name = bottom;
position = "{527, 0}";
},
{
name = btm;
position = "{527, -170}";
},
{
name = center;
position = "{527, 797}";
},
{
name = top;
position = "{527, 1700}";
},
{
name = topleft;
position = "{20, 1593}";
}
);
layerId = master01;
paths = (
{
closed = 1;
nodes = (
"348 0 LINE",
"348 533 LINE",
"706 533 LINE",
"706 0 LINE",
"896 0 LINE",
"896 1593 LINE",
"706 1593 LINE",
"706 709 LINE",
"348 709 LINE",
"348 1593 LINE",
"158 1593 LINE",
"158 0 LINE"
);
}
);
userData = {
com.typemytype.robofont.mark = (
0.656,
1,
0.6,
1
);
};
width = 1054;
},
{
anchors = (
{
name = bottom;
position = "{527, 0}";
},
{
name = btm;
position = "{527, -170}";
},
{
name = center;
position = "{527, 797}";
},
{
name = top;
position = "{527, 1700}";
},
{
name = topleft;
position = "{20, 1593}";
}
);
layerId = "AC8F5225-6E8D-48D3-AF8E-295F90E86009";
paths = (
{
closed = 1;
nodes = (
"408 0 LINE",
"408 493 LINE",
"616 493 LINE",
"616 0 LINE",
"886 0 LINE",
"886 1593 LINE",
"616 1593 LINE",
"616 749 LINE",
"408 749 LINE",
"408 1593 LINE",
"138 1593 LINE",
"138 0 LINE"
);
}
);
userData = {
com.typemytype.robofont.mark = (
0.656,
1,
0.6,
1
);
};
width = 1024;
}
);
rightMetricsKey = "=|";
unicode = 0048;
},
{
glyphname = Hbar;
lastChange = "2021-08-22 04:13:59 +0000";
layers = (
{
components = (
{
name = H;
transform = "{1, 0, 0, 1, 20, 0}";
}
);
layerId = master01;
paths = (
{
closed = 1;
nodes = (
"1045 1019 LINE",
"44 1019 LINE",
"44 851 LINE",
"1045 851 LINE"
);
}
);
width = 1094;
},
{
components = (
{
name = H;
transform = "{1, 0, 0, 1, 20, 0}";
}
);
layerId = "AC8F5225-6E8D-48D3-AF8E-295F90E86009";
paths = (
{
closed = 1;
nodes = (
"1045 1019 LINE",
"44 1019 LINE",
"44 851 LINE",
"1045 851 LINE"
);
}
);
width = 1094;
}
);
unicode = 0126;
},
{
glyphname = I;
lastChange = "2021-08-22 04:13:59 +0000";
layers = (
{
anchors = (
{
name = btm;
position = "{253, -170}";
},
{
name = top;
position = "{253, 1700}";
}
);
layerId = master01;
paths = (
{
closed = 1;
nodes = (
"348 0 LINE",
"348 1593 LINE",
"158 1593 LINE",
"158 0 LINE"
);
}
);
width = 506;
},
{
anchors = (
{
name = btm;
position = "{253, -170}";
},
{
name = top;
position = "{253, 1700}";
}
);
layerId = "AC8F5225-6E8D-48D3-AF8E-295F90E86009";
paths = (
{
closed = 1;
nodes = (
"348 0 LINE",
"348 1593 LINE",
"158 1593 LINE",
"158 0 LINE"
);
}
);
width = 506;
}
);
unicode = 0049;
},
{
glyphname = IJ;
lastChange = "2021-08-22 04:13:59 +0000";
layers = (
{
layerId = master01;
paths = (
{
closed = 1;
nodes = (
"356 1593 LINE",
"170 1593 LINE",
"170 480 LINE",
"356 480 LINE"
);
},
{
closed = 1;
nodes = (
"655 797 LINE SMOOTH",
"655 503 OFFCURVE",
"530 284 OFFCURVE",
"171 156 CURVE",
"171 -18 LINE",
"579 80 OFFCURVE",
"841 322 OFFCURVE",
"841 798 CURVE SMOOTH",
"841 1593 LINE",
"655 1593 LINE"
);
}
);
userData = {
com.typemytype.robofont.guides = (
{
angle = 90;
isGlobal = 0;
magnetic = 5;
x = 170;
y = 0;
}
);
};
width = 1011;
},
{
layerId = "AC8F5225-6E8D-48D3-AF8E-295F90E86009";
paths = (
{
closed = 1;
nodes = (
"356 1593 LINE",
"170 1593 LINE",
"170 480 LINE",
"356 480 LINE"
);
},
{
closed = 1;
nodes = (
"655 797 LINE SMOOTH",
"655 503 OFFCURVE",
"530 284 OFFCURVE",
"171 156 CURVE",
"171 -18 LINE",
"579 80 OFFCURVE",
"841 322 OFFCURVE",
"841 798 CURVE SMOOTH",
"841 1593 LINE",
"655 1593 LINE"
);
}
);
userData = {
com.typemytype.robofont.guides = (
{
angle = 90;
isGlobal = 0;
magnetic = 5;
x = 170;
y = 0;
}
);
};
width = 1011;
}
);
unicode = 0132;
},
{
glyphname = Iogonek;
lastChange = "2021-08-22 04:13:59 +0000";
layers = (
{
layerId = master01;
paths = (
{
closed = 1;
nodes = (
"368 1593 LINE",
"178 1593 LINE",
"178 0 LINE",
"368 0 LINE"
);
},
{
closed = 1;
nodes = (
"248 -376 OFFCURVE",
"176 -316 OFFCURVE",
"166 -255 CURVE SMOOTH",
"146 -132 OFFCURVE",
"287 -25 OFFCURVE",
"368 0 CURVE",
"310 67 LINE",
"229 54 LINE",
"50 -15 OFFCURVE",
"-57 -170 OFFCURVE",
"-32 -308 CURVE SMOOTH",
"-3 -464 OFFCURVE",
"163 -534 OFFCURVE",
"371 -506 CURVE",
"372 -365 LINE"
);
}
);
width = 547;
},
{
layerId = "AC8F5225-6E8D-48D3-AF8E-295F90E86009";
paths = (
{
closed = 1;
nodes = (
"368 1593 LINE",
"178 1593 LINE",
"178 0 LINE",
"368 0 LINE"
);
},
{
closed = 1;
nodes = (
"248 -376 OFFCURVE",
"176 -316 OFFCURVE",
"166 -255 CURVE SMOOTH",
"146 -132 OFFCURVE",
"287 -25 OFFCURVE",
"368 0 CURVE",
"310 67 LINE",
"229 54 LINE",
"50 -15 OFFCURVE",
"-57 -170 OFFCURVE",
"-32 -308 CURVE SMOOTH",
"-3 -464 OFFCURVE",
"163 -534 OFFCURVE",
"371 -506 CURVE",
"372 -365 LINE"
);
}
);
width = 547;
}
);
unicode = 012E;
},
{
glyphname = J;
lastChange = "2021-08-22 04:13:59 +0000";
layers = (
{
anchors = (
{
name = btm;
position = "{194, -170}";
},
{
name = top;
position = "{339, 1700}";
}
);
layerId = master01;
paths = (
{
closed = 1;
nodes = (
"406 -142 OFFCURVE",
"439 42 OFFCURVE",
"439 248 CURVE SMOOTH",
"439 1593 LINE",
"252 1593 LINE",
"252 238 LINE SMOOTH",
"252 89 OFFCURVE",
"198 -58 OFFCURVE",
"70 -145 CURVE",
"172 -262 LINE"
);
}
);
width = 558;
},
{
anchors = (
{
name = btm;
position = "{194, -170}";
},
{
name = top;
position = "{339, 1700}";
}
);
layerId = "AC8F5225-6E8D-48D3-AF8E-295F90E86009";
paths = (
{
closed = 1;
nodes = (
"406 -142 OFFCURVE",
"439 42 OFFCURVE",
"439 248 CURVE SMOOTH",
"439 1593 LINE",
"252 1593 LINE",
"252 238 LINE SMOOTH",
"252 89 OFFCURVE",
"198 -58 OFFCURVE",
"70 -145 CURVE",
"172 -262 LINE"
);
}
);
width = 558;
}
);
unicode = 004A;
},
{
glyphname = K;
lastChange = "2021-08-22 04:13:59 +0000";
layers = (
{
anchors = (
{
name = btm;
position = "{568, -170}";
},
{
name = top;
position = "{568, 1700}";
}
);
layerId = master01;
paths = (
{
closed = 1;
nodes = (
"924 1593 LINE",
"720 1593 LINE",
"348 739 LINE",
"492 625 LINE"
);
},
{
closed = 1;
nodes = (
"348 0 LINE",
"348 1593 LINE",
"158 1593 LINE",
"158 0 LINE"
);
},
{
closed = 1;
nodes = (
"979 0 LINE",
"514 833 LINE",
"348 739 LINE",
"760 0 LINE"
);
}
);
userData = {
com.typemytype.robofont.guides = (
{
angle = 0;
isGlobal = 0;
magnetic = 5;
x = 0;
y = 710;
}
);
com.typemytype.robofont.mark = (
0.656,
1,
0.6,
1
);
};
width = 973;
},
{
anchors = (
{
name = btm;
position = "{568, -170}";
},
{
name = top;
position = "{568, 1700}";
}
);
layerId = "AC8F5225-6E8D-48D3-AF8E-295F90E86009";
paths = (
{
closed = 1;
nodes = (
"924 1593 LINE",
"720 1593 LINE",
"348 739 LINE",
"492 625 LINE"
);
},
{
closed = 1;
nodes = (
"348 0 LINE",
"348 1593 LINE",
"158 1593 LINE",
"158 0 LINE"
);
},
{
closed = 1;
nodes = (
"979 0 LINE",
"514 833 LINE",
"348 739 LINE",
"760 0 LINE"
);
}
);
userData = {
com.typemytype.robofont.guides = (
{
angle = 0;
isGlobal = 0;
magnetic = 5;
x = 0;
y = 710;
}
);
com.typemytype.robofont.mark = (
0.656,
1,
0.6,
1
);
};
width = 973;
}
);
unicode = 004B;
},
{
glyphname = L;
lastChange = "2021-08-22 04:13:59 +0000";
layers = (
{
anchors = (
{
name = bottom;
position = "{402, 0}";
},
{
name = btm;
position = "{462, -170}";
},
{
name = center;
position = "{402, 797}";
},
{
name = top;
position = "{462, 1700}";
},
{
name = topright;
position = "{783, 1593}";
}
);
layerId = master01;
paths = (
{
closed = 1;
nodes = (
"767 0 LINE",
"767 174 LINE",
"348 174 LINE",
"348 1593 LINE",
"158 1593 LINE",
"158 0 LINE"
);
}
);
userData = {
com.typemytype.robofont.mark = (
0.656,
1,
0.6,
1
);
};
width = 803;
},
{
anchors = (
{
name = bottom;
position = "{402, 0}";
},
{
name = btm;
position = "{462, -170}";
},
{
name = center;
position = "{402, 797}";
},
{
name = top;
position = "{462, 1700}";
},
{
name = topright;
position = "{783, 1593}";
}
);
layerId = "AC8F5225-6E8D-48D3-AF8E-295F90E86009";
paths = (
{
closed = 1;
nodes = (
"767 0 LINE",
"767 174 LINE",
"348 174 LINE",
"348 1593 LINE",
"158 1593 LINE",
"158 0 LINE"
);
}
);
userData = {
com.typemytype.robofont.mark = (
0.656,
1,
0.6,
1
);
};
width = 803;
}
);
unicode = 004C;
},
{
glyphname = Lcaron;
lastChange = "2021-08-22 04:13:59 +0000";
layers = (
{
components = (
{
name = L;
transform = "{1, 0, 0, 1, 15, 0}";
}
);
layerId = master01;
paths = (
{
closed = 1;
nodes = (
"745 1537 OFFCURVE",
"676 1594 OFFCURVE",
"598 1594 CURVE SMOOTH",
"514 1594 OFFCURVE",
"468 1531 OFFCURVE",
"468 1460 CURVE SMOOTH",
"468 1393 OFFCURVE",
"508 1334 OFFCURVE",
"584 1328 CURVE",
"569 1274 OFFCURVE",
"546 1181 OFFCURVE",
"499 1128 CURVE",
"587 1063 LINE",
"710 1201 OFFCURVE",
"745 1321 OFFCURVE",
"745 1425 CURVE SMOOTH"
);
}
);
width = 797;
},
{
components = (
{
name = L;
transform = "{1, 0, 0, 1, 15, 0}";
}
);
layerId = "AC8F5225-6E8D-48D3-AF8E-295F90E86009";
paths = (
{
closed = 1;
nodes = (
"745 1537 OFFCURVE",
"676 1594 OFFCURVE",
"598 1594 CURVE SMOOTH",
"514 1594 OFFCURVE",
"468 1531 OFFCURVE",
"468 1460 CURVE SMOOTH",
"468 1393 OFFCURVE",
"508 1334 OFFCURVE",
"584 1328 CURVE",
"569 1274 OFFCURVE",
"546 1181 OFFCURVE",
"499 1128 CURVE",
"587 1063 LINE",
"710 1201 OFFCURVE",
"745 1321 OFFCURVE",
"745 1425 CURVE SMOOTH"
);
}
);
width = 797;
}
);
unicode = 013D;
},
{
glyphname = Lslash;
lastChange = "2021-08-22 04:13:59 +0000";
layers = (
{
components = (
{
name = L;
transform = "{1, 0, 0, 1, 20, 0}";
}
);
layerId = master01;
paths = (
{
closed = 1;
nodes = (
"640 971 LINE",
"547 1111 LINE",
"-22 740 LINE",
"71 600 LINE"
);
}
);
width = 807;
},
{
components = (
{
name = L;
transform = "{1, 0, 0, 1, 20, 0}";
}
);
layerId = "AC8F5225-6E8D-48D3-AF8E-295F90E86009";
paths = (
{
closed = 1;
nodes = (
"640 971 LINE",
"547 1111 LINE",
"-22 740 LINE",
"71 600 LINE"
);
}
);
width = 807;
}
);
unicode = 0141;
},
{
glyphname = M;
lastChange = "2021-08-22 04:13:59 +0000";
layers = (
{
anchors = (
{
name = bottom;
position = "{628, 0}";
},
{
name = btm;
position = "{628, -170}";
},
{
name = top;
position = "{628, 1700}";
}
);
layerId = master01;
paths = (
{
closed = 1;
nodes = (
"348 0 LINE",
"348 750 LINE",
"332 997 LINE",
"450 747 LINE",
"628 431 LINE",
"628 429 LINE",
"628 430 LINE",
"629 429 LINE",
"629 431 LINE",
"805 746 LINE",
"923 997 LINE",
"908 748 LINE",
"908 0 LINE",
"1098 0 LINE",
"1098 1612 LINE",
"1055 1612 LINE",
"628 776 LINE",
"201 1612 LINE",
"158 1612 LINE",
"158 0 LINE"
);
}
);
userData = {
com.typemytype.robofont.guides = (
{
angle = 0;
isGlobal = 0;
magnetic = 5;
x = 0;
y = 747;
},
{
angle = 0;
isGlobal = 0;
magnetic = 5;
x = 0;
y = 948;
}
);
com.typemytype.robofont.mark = (
0.656,
1,
0.6,
1
);
};
width = 1256;
},
{
anchors = (
{
name = bottom;
position = "{628, 0}";
},
{
name = btm;
position = "{628, -170}";
},
{
name = top;
position = "{628, 1700}";
}
);
layerId = "AC8F5225-6E8D-48D3-AF8E-295F90E86009";
paths = (
{
closed = 1;
nodes = (
"348 0 LINE",
"348 750 LINE",
"332 997 LINE",
"450 747 LINE",
"628 431 LINE",
"628 429 LINE",
"628 430 LINE",
"629 429 LINE",
"629 431 LINE",
"805 746 LINE",
"923 997 LINE",
"908 748 LINE",
"908 0 LINE",
"1098 0 LINE",
"1098 1612 LINE",
"1055 1612 LINE",
"628 776 LINE",
"201 1612 LINE",
"158 1612 LINE",
"158 0 LINE"
);
}
);
userData = {
com.typemytype.robofont.guides = (
{
angle = 0;
isGlobal = 0;
magnetic = 5;
x = 0;
y = 747;
},
{
angle = 0;
isGlobal = 0;
magnetic = 5;
x = 0;
y = 948;
}
);
com.typemytype.robofont.mark = (
0.656,
1,
0.6,
1
);
};
width = 1256;
}
);
unicode = 004D;
},
{
glyphname = N;
lastChange = "2021-08-22 04:13:59 +0000";
layers = (
{
anchors = (
{
name = btm;
position = "{561, -170}";
},
{
name = top;
position = "{561, 1700}";
}
);
layerId = master01;
paths = (
{
closed = 1;
nodes = (
"348 0 LINE",
"348 796 LINE",
"322 1030 LINE",
"463 796 LINE",
"941 0 LINE",
"965 0 LINE",
"965 1593 LINE",
"777 1593 LINE",
"777 816 LINE",
"802 555 LINE",
"659 819 LINE",
"183 1612 LINE",
"158 1612 LINE",
"158 0 LINE"
);
}
);
userData = {
com.typemytype.robofont.mark = (
0.656,
1,
0.6,
1
);
};
width = 1123;
},
{
anchors = (
{
name = btm;
position = "{561, -170}";
},
{
name = top;
position = "{561, 1700}";
}
);
layerId = "AC8F5225-6E8D-48D3-AF8E-295F90E86009";
paths = (
{
closed = 1;
nodes = (
"348 0 LINE",
"348 796 LINE",
"322 1030 LINE",
"463 796 LINE",
"941 0 LINE",
"965 0 LINE",
"965 1593 LINE",
"777 1593 LINE",
"777 816 LINE",
"802 555 LINE",
"659 819 LINE",
"183 1612 LINE",
"158 1612 LINE",
"158 0 LINE"
);
}
);
userData = {
com.typemytype.robofont.mark = (
0.656,
1,
0.6,
1
);
};
width = 1123;
}
);
unicode = 004E;
},
{
glyphname = Eng;
lastChange = "2021-08-22 04:13:59 +0000";
layers = (
{
layerId = master01;
paths = (
{
closed = 1;
nodes = (
"797 1281 LINE",
"795 1280 LINE",
"795 635 LINE",
"689 819 LINE",
"178 1654 LINE",
"178 0 LINE",
"368 0 LINE",
"368 796 LINE",
"362 970 LINE",
"473 796 LINE",
"795 272 LINE",
"795 -10 LINE SMOOTH",
"795 -159 OFFCURVE",
"743 -256 OFFCURVE",
"616 -343 CURVE",
"718 -510 LINE",
"913 -404 OFFCURVE",
"985 -236 OFFCURVE",
"985 -30 CURVE SMOOTH",
"985 1593 LINE",
"797 1593 LINE"
);
}
);
width = 1163;
},
{
layerId = "AC8F5225-6E8D-48D3-AF8E-295F90E86009";
paths = (
{
closed = 1;
nodes = (
"797 1281 LINE",
"795 1280 LINE",
"795 635 LINE",
"689 819 LINE",
"178 1654 LINE",
"178 0 LINE",
"368 0 LINE",
"368 796 LINE",
"362 970 LINE",
"473 796 LINE",
"795 272 LINE",
"795 -10 LINE SMOOTH",
"795 -159 OFFCURVE",
"743 -256 OFFCURVE",
"616 -343 CURVE",
"718 -510 LINE",
"913 -404 OFFCURVE",
"985 -236 OFFCURVE",
"985 -30 CURVE SMOOTH",
"985 1593 LINE",
"797 1593 LINE"
);
}
);
width = 1163;
}
);
unicode = 014A;
},
{
glyphname = O;
lastChange = "2021-08-22 04:17:41 +0000";
layers = (
{
anchors = (
{
name = btm;
position = "{539, -170}";
},
{
name = top;
position = "{539, 1700}";
}
);
layerId = master01;
paths = (
{
closed = 1;
nodes = (
"733 -19 OFFCURVE",
"982 135 OFFCURVE",
"982 796 CURVE SMOOTH",
"982 1457 OFFCURVE",
"733 1611 OFFCURVE",
"539 1611 CURVE SMOOTH",
"346 1611 OFFCURVE",
"97 1457 OFFCURVE",
"97 796 CURVE SMOOTH",
"97 135 OFFCURVE",
"346 -19 OFFCURVE",
"539 -19 CURVE SMOOTH"
);
},
{
closed = 1;
nodes = (
"425 165 OFFCURVE",
"294 311 OFFCURVE",
"294 796 CURVE SMOOTH",
"294 1281 OFFCURVE",
"425 1427 OFFCURVE",
"539 1427 CURVE SMOOTH",
"654 1427 OFFCURVE",
"785 1281 OFFCURVE",
"785 796 CURVE SMOOTH",
"785 311 OFFCURVE",
"654 165 OFFCURVE",
"539 165 CURVE SMOOTH"
);
}
);
userData = {
com.typemytype.robofont.guides = (
{
angle = 90;
isGlobal = 0;
magnetic = 5;
x = 542;
y = 0;
}
);
};
width = 1080;
},
{
anchors = (
{
name = btm;
position = "{522, -170}";
},
{
name = top;
position = "{522, 1700}";
}
);
layerId = "AC8F5225-6E8D-48D3-AF8E-295F90E86009";
paths = (
{
closed = 1;
nodes = (
"716 -19 OFFCURVE",
"965 135 OFFCURVE",
"965 796 CURVE SMOOTH",
"965 1457 OFFCURVE",
"716 1611 OFFCURVE",
"522 1611 CURVE SMOOTH",
"329 1611 OFFCURVE",
"80 1457 OFFCURVE",
"80 796 CURVE SMOOTH",
"80 135 OFFCURVE",
"329 -19 OFFCURVE",
"522 -19 CURVE SMOOTH"
);
},
{
closed = 1;
nodes = (
"442 266 OFFCURVE",
"351 389 OFFCURVE",
"351 796 CURVE SMOOTH",
"351 1203 OFFCURVE",
"442 1326 OFFCURVE",
"522 1326 CURVE SMOOTH",
"603 1326 OFFCURVE",
"694 1203 OFFCURVE",
"694 796 CURVE SMOOTH",
"694 389 OFFCURVE",
"603 266 OFFCURVE",
"522 266 CURVE SMOOTH"
);
}
);
userData = {
com.typemytype.robofont.guides = (
{
angle = 90;
isGlobal = 0;
magnetic = 5;
x = 542;
y = 0;
}
);
};
width = 1045;
}
);
unicode = 004F;
},
{
glyphname = Oslash;
lastChange = "2021-08-22 04:13:59 +0000";
layers = (
{
components = (
{
name = O;
}
);
layerId = master01;
paths = (
{
closed = 1;
nodes = (
"412 148 LINE",
"286 270 LINE",
"148 -89 LINE",
"300 -137 LINE"
);
},
{
closed = 1;
nodes = (
"898 1661 LINE",
"746 1709 LINE",
"636 1430 LINE",
"761 1305 LINE"
);
}
);
width = 1059;
},
{
components = (
{
name = O;
}
);
layerId = "AC8F5225-6E8D-48D3-AF8E-295F90E86009";
paths = (
{
closed = 1;
nodes = (
"412 148 LINE",
"286 270 LINE",
"148 -89 LINE",
"300 -137 LINE"
);
},
{
closed = 1;
nodes = (
"898 1661 LINE",
"746 1709 LINE",
"636 1430 LINE",
"761 1305 LINE"
);
}
);
width = 1059;
}
);
unicode = 00D8;
},
{
glyphname = OE;
lastChange = "2021-08-22 04:13:59 +0000";
layers = (
{
layerId = master01;
paths = (
{
closed = 1;
nodes = (
"733 -18 OFFCURVE",
"945 130 OFFCURVE",
"945 791 CURVE SMOOTH",
"945 1455 OFFCURVE",
"750 1612 OFFCURVE",
"545 1612 CURVE SMOOTH",
"340 1612 OFFCURVE",
"97 1454 OFFCURVE",
"97 791 CURVE SMOOTH",
"97 130 OFFCURVE",
"346 -18 OFFCURVE",
"539 -18 CURVE SMOOTH"
);
},
{
closed = 1;
nodes = (
"425 165 OFFCURVE",
"294 304 OFFCURVE",
"294 789 CURVE SMOOTH",
"294 1283 OFFCURVE",
"423 1437 OFFCURVE",
"545 1437 CURVE SMOOTH",
"666 1437 OFFCURVE",
"789 1283 OFFCURVE",
"789 789 CURVE SMOOTH",
"789 304 OFFCURVE",
"654 165 OFFCURVE",
"539 165 CURVE SMOOTH"
);
},
{
closed = 1;
nodes = (
"1335 0 LINE",
"1335 176 LINE",
"978 176 LINE",
"978 629 LINE",
"1284 629 LINE",
"1284 805 LINE",
"978 805 LINE",
"978 1417 LINE",
"1335 1417 LINE",
"1335 1593 LINE",
"617 1593 LINE",
"788 1426 LINE",
"788 153 LINE",
"598 0 LINE"
);
}
);
width = 1455;
},
{
layerId = "AC8F5225-6E8D-48D3-AF8E-295F90E86009";
paths = (
{
closed = 1;
nodes = (
"733 -18 OFFCURVE",
"945 130 OFFCURVE",
"945 791 CURVE SMOOTH",
"945 1455 OFFCURVE",
"750 1612 OFFCURVE",
"545 1612 CURVE SMOOTH",
"340 1612 OFFCURVE",
"97 1454 OFFCURVE",
"97 791 CURVE SMOOTH",
"97 130 OFFCURVE",
"346 -18 OFFCURVE",
"539 -18 CURVE SMOOTH"
);
},
{
closed = 1;
nodes = (
"425 165 OFFCURVE",
"294 304 OFFCURVE",
"294 789 CURVE SMOOTH",
"294 1283 OFFCURVE",
"423 1437 OFFCURVE",
"545 1437 CURVE SMOOTH",
"666 1437 OFFCURVE",
"789 1283 OFFCURVE",
"789 789 CURVE SMOOTH",
"789 304 OFFCURVE",
"654 165 OFFCURVE",
"539 165 CURVE SMOOTH"
);
},
{
closed = 1;
nodes = (
"1335 0 LINE",
"1335 176 LINE",
"978 176 LINE",
"978 629 LINE",
"1284 629 LINE",
"1284 805 LINE",
"978 805 LINE",
"978 1417 LINE",
"1335 1417 LINE",
"1335 1593 LINE",
"617 1593 LINE",
"788 1426 LINE",
"788 153 LINE",
"598 0 LINE"
);
}
);
width = 1455;
}
);
unicode = 0152;
},
{
glyphname = P;
lastChange = "2021-08-22 04:13:59 +0000";
layers = (
{
anchors = (
{
name = btm;
position = "{501, -170}";
},
{
name = top;
position = "{501, 1700}";
}
);
layerId = master01;
paths = (
{
closed = 1;
nodes = (
"348 0 LINE",
"348 476 LINE",
"686 521 OFFCURVE",
"845 750 OFFCURVE",
"845 1051 CURVE SMOOTH",
"845 1414 OFFCURVE",
"625 1633 OFFCURVE",
"158 1613 CURVE",
"158 0 LINE"
);
},
{
closed = 1;
nodes = (
"348 1417 LINE",
"522 1402 OFFCURVE",
"648 1300 OFFCURVE",
"648 1051 CURVE SMOOTH",
"648 812 OFFCURVE",
"522 680 OFFCURVE",
"348 665 CURVE"
);
}
);
userData = {
com.typemytype.robofont.mark = (
0.656,
1,
0.6,
1
);
};
width = 943;
},
{
anchors = (
{
name = btm;
position = "{501, -170}";
},
{
name = top;
position = "{501, 1700}";
}
);
layerId = "AC8F5225-6E8D-48D3-AF8E-295F90E86009";
paths = (
{
closed = 1;
nodes = (
"348 0 LINE",
"348 476 LINE",
"686 521 OFFCURVE",
"845 750 OFFCURVE",
"845 1051 CURVE SMOOTH",
"845 1414 OFFCURVE",
"625 1633 OFFCURVE",
"158 1613 CURVE",
"158 0 LINE"
);
},
{
closed = 1;
nodes = (
"348 1417 LINE",
"522 1402 OFFCURVE",
"648 1300 OFFCURVE",
"648 1051 CURVE SMOOTH",
"648 812 OFFCURVE",
"522 680 OFFCURVE",
"348 665 CURVE"
);
}
);
userData = {
com.typemytype.robofont.mark = (
0.656,
1,
0.6,
1
);
};
width = 943;
}
);
unicode = 0050;
},
{
glyphname = Thorn;
lastChange = "2021-08-22 04:13:59 +0000";
layers = (
{
layerId = master01;
paths = (
{
closed = 1;
nodes = (
"348 0 LINE",
"348 250 LINE",
"686 295 OFFCURVE",
"845 504 OFFCURVE",
"845 805 CURVE SMOOTH",
"845 1158 OFFCURVE",
"624 1387 OFFCURVE",
"158 1367 CURVE",
"158 0 LINE"
);
},
{
closed = 1;
nodes = (
"348 0 LINE",
"348 1593 LINE",
"158 1593 LINE",
"158 0 LINE"
);
},
{
closed = 1;
nodes = (
"348 1181 LINE",
"521 1166 OFFCURVE",
"648 1044 OFFCURVE",
"648 805 CURVE SMOOTH",
"648 566 OFFCURVE",
"521 444 OFFCURVE",
"348 429 CURVE"
);
}
);
userData = {
com.typemytype.robofont.mark = (
0.656,
1,
0.6,
1
);
};
width = 986;
},
{
layerId = "AC8F5225-6E8D-48D3-AF8E-295F90E86009";
paths = (
{
closed = 1;
nodes = (
"348 0 LINE",
"348 250 LINE",
"686 295 OFFCURVE",
"845 504 OFFCURVE",
"845 805 CURVE SMOOTH",
"845 1158 OFFCURVE",
"624 1387 OFFCURVE",
"158 1367 CURVE",
"158 0 LINE"
);
},
{
closed = 1;
nodes = (
"348 0 LINE",
"348 1593 LINE",
"158 1593 LINE",
"158 0 LINE"
);
},
{
closed = 1;
nodes = (
"348 1181 LINE",
"521 1166 OFFCURVE",
"648 1044 OFFCURVE",
"648 805 CURVE SMOOTH",
"648 566 OFFCURVE",
"521 444 OFFCURVE",
"348 429 CURVE"
);
}
);
userData = {
com.typemytype.robofont.mark = (
0.656,
1,
0.6,
1
);
};
width = 986;
}
);
unicode = 00DE;
},
{
glyphname = Q;
lastChange = "2021-08-22 04:13:59 +0000";
layers = (
{
anchors = (
{
name = btm;
position = "{545, -170}";
},
{
name = top;
position = "{545, 1700}";
}
);
components = (
{
name = O;
}
);
layerId = master01;
paths = (
{
closed = 1;
nodes = (
"993 34 LINE",
"580 491 LINE",
"448 384 LINE",
"861 -73 LINE"
);
}
);
width = 1136;
},
{
anchors = (
{
name = btm;
position = "{545, -170}";
},
{
name = top;
position = "{545, 1700}";
}
);
components = (
{
name = O;
}
);
layerId = "AC8F5225-6E8D-48D3-AF8E-295F90E86009";
paths = (
{
closed = 1;
nodes = (
"993 34 LINE",
"580 491 LINE",
"448 384 LINE",
"861 -73 LINE"
);
}
);
width = 1136;
}
);
unicode = 0051;
},
{
glyphname = R;
lastChange = "2021-08-22 04:13:59 +0000";
layers = (
{
anchors = (
{
name = bottom;
position = "{475, 0}";
},
{
name = btm;
position = "{531, -170}";
},
{
name = top;
position = "{409, 1700}";
}
);
layerId = master01;
paths = (
{
closed = 1;
nodes = (
"348 0 LINE",
"348 516 LINE",
"686 559 OFFCURVE",
"845 770 OFFCURVE",
"845 1061 CURVE SMOOTH",
"845 1402 OFFCURVE",
"625 1633 OFFCURVE",
"158 1613 CURVE",
"158 0 LINE"
);
},
{
closed = 1;
nodes = (
"348 1417 LINE",
"522 1402 OFFCURVE",
"648 1288 OFFCURVE",
"648 1061 CURVE SMOOTH",
"648 834 OFFCURVE",
"522 720 OFFCURVE",
"348 705 CURVE"
);
},
{
closed = 1;
nodes = (
"903 0 LINE",
"592 669 LINE",
"426 609 LINE",
"689 0 LINE"
);
}
);
userData = {
com.typemytype.robofont.guides = (
{
angle = 0;
isGlobal = 0;
magnetic = 5;
x = 0;
y = 1065;
},
{
angle = 90;
isGlobal = 0;
magnetic = 5;
x = 845;
y = 0;
}
);
com.typemytype.robofont.mark = (
0.656,
1,
0.6,
1
);
};
width = 949;
},
{
anchors = (
{
name = bottom;
position = "{475, 0}";
},
{
name = btm;
position = "{531, -170}";
},
{
name = top;
position = "{409, 1700}";
}
);
layerId = "AC8F5225-6E8D-48D3-AF8E-295F90E86009";
paths = (
{
closed = 1;
nodes = (
"348 0 LINE",
"348 516 LINE",
"686 559 OFFCURVE",
"845 770 OFFCURVE",
"845 1061 CURVE SMOOTH",
"845 1402 OFFCURVE",
"625 1633 OFFCURVE",
"158 1613 CURVE",
"158 0 LINE"
);
},
{
closed = 1;
nodes = (
"348 1417 LINE",
"522 1402 OFFCURVE",
"648 1288 OFFCURVE",
"648 1061 CURVE SMOOTH",
"648 834 OFFCURVE",
"522 720 OFFCURVE",
"348 705 CURVE"
);
},
{
closed = 1;
nodes = (
"903 0 LINE",
"592 669 LINE",
"426 609 LINE",
"689 0 LINE"
);
}
);
userData = {
com.typemytype.robofont.guides = (
{
angle = 0;
isGlobal = 0;
magnetic = 5;
x = 0;
y = 1065;
},
{
angle = 90;
isGlobal = 0;
magnetic = 5;
x = 845;
y = 0;
}
);
com.typemytype.robofont.mark = (
0.656,
1,
0.6,
1
);
};
width = 949;
}
);
unicode = 0052;
},
{
glyphname = S;
lastChange = "2021-08-22 04:13:59 +0000";
layers = (
{
anchors = (
{
name = btm;
position = "{442, -170}";
},
{
name = top;
position = "{442, 1700}";
}
);
layerId = master01;
paths = (
{
closed = 1;
nodes = (
"630 -19 OFFCURVE",
"797 128 OFFCURVE",
"797 367 CURVE SMOOTH",
"797 531 OFFCURVE",
"719 639 OFFCURVE",
"620 767 CURVE SMOOTH",
"429 1013 LINE SMOOTH",
"339 1130 OFFCURVE",
"316 1195 OFFCURVE",
"316 1257 CURVE SMOOTH",
"316 1369 OFFCURVE",
"389 1435 OFFCURVE",
"500 1435 CURVE SMOOTH",
"566 1435 OFFCURVE",
"620 1411 OFFCURVE",
"668 1383 CURVE",
"750 1538 LINE",
"663 1588 OFFCURVE",
"570 1611 OFFCURVE",
"480 1611 CURVE SMOOTH",
"255 1611 OFFCURVE",
"119 1464 OFFCURVE",
"119 1264 CURVE SMOOTH",
"119 1145 OFFCURVE",
"167 1017 OFFCURVE",
"299 854 CURVE SMOOTH",
"430 691 LINE SMOOTH",
"558 533 OFFCURVE",
"600 440 OFFCURVE",
"600 352 CURVE SMOOTH",
"600 221 OFFCURVE",
"506 164 OFFCURVE",
"399 164 CURVE SMOOTH",
"312 164 OFFCURVE",
"241 201 OFFCURVE",
"174 239 CURVE",
"87 73 LINE",
"165 20 OFFCURVE",
"279 -19 OFFCURVE",
"399 -19 CURVE SMOOTH"
);
}
);
width = 883;
},
{
anchors = (
{
name = btm;
position = "{442, -170}";
},
{
name = top;
position = "{442, 1700}";
}
);
layerId = "AC8F5225-6E8D-48D3-AF8E-295F90E86009";
paths = (
{
closed = 1;
nodes = (
"630 -19 OFFCURVE",
"797 128 OFFCURVE",
"797 367 CURVE SMOOTH",
"797 531 OFFCURVE",
"719 639 OFFCURVE",
"620 767 CURVE SMOOTH",
"429 1013 LINE SMOOTH",
"339 1130 OFFCURVE",
"316 1195 OFFCURVE",
"316 1257 CURVE SMOOTH",
"316 1369 OFFCURVE",
"389 1435 OFFCURVE",
"500 1435 CURVE SMOOTH",
"566 1435 OFFCURVE",
"620 1411 OFFCURVE",
"668 1383 CURVE",
"750 1538 LINE",
"663 1588 OFFCURVE",
"570 1611 OFFCURVE",
"480 1611 CURVE SMOOTH",
"255 1611 OFFCURVE",
"119 1464 OFFCURVE",
"119 1264 CURVE SMOOTH",
"119 1145 OFFCURVE",
"167 1017 OFFCURVE",
"299 854 CURVE SMOOTH",
"430 691 LINE SMOOTH",
"558 533 OFFCURVE",
"600 440 OFFCURVE",
"600 352 CURVE SMOOTH",
"600 221 OFFCURVE",
"506 164 OFFCURVE",
"399 164 CURVE SMOOTH",
"312 164 OFFCURVE",
"241 201 OFFCURVE",
"174 239 CURVE",
"87 73 LINE",
"165 20 OFFCURVE",
"279 -19 OFFCURVE",
"399 -19 CURVE SMOOTH"
);
}
);
width = 883;
}
);
unicode = 0053;
},
{
glyphname = T;
lastChange = "2021-08-22 04:13:59 +0000";
layers = (
{
anchors = (
{
name = btm;
position = "{370, -170}";
},
{
name = top;
position = "{370, 1700}";
}
);
layerId = master01;
paths = (
{
closed = 1;
nodes = (
"465 0 LINE",
"465 1417 LINE",
"720 1417 LINE",
"720 1593 LINE",
"20 1593 LINE",
"20 1417 LINE",
"275 1417 LINE",
"275 0 LINE"
);
}
);
width = 740;
},
{
anchors = (
{
name = btm;
position = "{370, -170}";
},
{
name = top;
position = "{370, 1700}";
}
);
layerId = "AC8F5225-6E8D-48D3-AF8E-295F90E86009";
paths = (
{
closed = 1;
nodes = (
"465 0 LINE",
"465 1417 LINE",
"720 1417 LINE",
"720 1593 LINE",
"20 1593 LINE",
"20 1417 LINE",
"275 1417 LINE",
"275 0 LINE"
);
}
);
width = 740;
}
);
unicode = 0054;
},
{
glyphname = Tbar;
lastChange = "2021-08-22 04:13:59 +0000";
layers = (
{
components = (
{
name = T;
transform = "{1, 0, 0, 1, 51, 0}";
}
);
layerId = master01;
paths = (
{
closed = 1;
nodes = (
"659 1022 LINE",
"172 1022 LINE",
"172 854 LINE",
"659 854 LINE"
);
}
);
width = 825;
},
{
components = (
{
name = T;
transform = "{1, 0, 0, 1, 51, 0}";
}
);
layerId = "AC8F5225-6E8D-48D3-AF8E-295F90E86009";
paths = (
{
closed = 1;
nodes = (
"659 1022 LINE",
"172 1022 LINE",
"172 854 LINE",
"659 854 LINE"
);
}
);
width = 825;
}
);
unicode = 0166;
},
{
glyphname = U;
lastChange = "2021-08-22 04:13:59 +0000";
layers = (
{
anchors = (
{
name = btm;
position = "{559, -170}";
},
{
name = top;
position = "{559, 1700}";
}
);
layerId = master01;
paths = (
{
closed = 1;
nodes = (
"799 -19 OFFCURVE",
"941 121 OFFCURVE",
"941 443 CURVE SMOOTH",
"941 1593 LINE",
"752 1593 LINE",
"752 466 LINE SMOOTH",
"752 245 OFFCURVE",
"681 165 OFFCURVE",
"559 165 CURVE SMOOTH",
"436 165 OFFCURVE",
"366 245 OFFCURVE",
"366 466 CURVE SMOOTH",
"366 1593 LINE",
"176 1593 LINE",
"176 443 LINE SMOOTH",
"176 121 OFFCURVE",
"319 -19 OFFCURVE",
"559 -19 CURVE SMOOTH"
);
}
);
width = 1119;
},
{
anchors = (
{
name = btm;
position = "{559, -170}";
},
{
name = top;
position = "{559, 1700}";
}
);
layerId = "AC8F5225-6E8D-48D3-AF8E-295F90E86009";
paths = (
{
closed = 1;
nodes = (
"799 -19 OFFCURVE",
"941 121 OFFCURVE",
"941 443 CURVE SMOOTH",
"941 1593 LINE",
"752 1593 LINE",
"752 466 LINE SMOOTH",
"752 245 OFFCURVE",
"681 165 OFFCURVE",
"559 165 CURVE SMOOTH",
"436 165 OFFCURVE",
"366 245 OFFCURVE",
"366 466 CURVE SMOOTH",
"366 1593 LINE",
"176 1593 LINE",
"176 443 LINE SMOOTH",
"176 121 OFFCURVE",
"319 -19 OFFCURVE",
"559 -19 CURVE SMOOTH"
);
}
);
width = 1119;
}
);
unicode = 0055;
},
{
glyphname = Uogonek;
lastChange = "2021-08-22 04:13:59 +0000";
layers = (
{
layerId = master01;
paths = (
{
closed = 1;
nodes = (
"799 -19 OFFCURVE",
"941 121 OFFCURVE",
"941 443 CURVE SMOOTH",
"941 1593 LINE",
"752 1593 LINE",
"752 466 LINE SMOOTH",
"752 245 OFFCURVE",
"681 165 OFFCURVE",
"559 165 CURVE SMOOTH",
"436 165 OFFCURVE",
"366 245 OFFCURVE",
"366 466 CURVE SMOOTH",
"366 1593 LINE",
"176 1593 LINE",
"176 443 LINE SMOOTH",
"176 121 OFFCURVE",
"319 -19 OFFCURVE",
"559 -19 CURVE SMOOTH"
);
},
{
closed = 1;
nodes = (
"663 -376 OFFCURVE",
"602 -316 OFFCURVE",
"591 -255 CURVE SMOOTH",
"571 -132 OFFCURVE",
"627 -55 OFFCURVE",
"788 53 CURVE",
"658 53 LINE",
"482 0 OFFCURVE",
"368 -170 OFFCURVE",
"394 -308 CURVE SMOOTH",
"422 -464 OFFCURVE",
"578 -534 OFFCURVE",
"786 -506 CURVE",
"787 -365 LINE"
);
}
);
width = 1119;
},
{
layerId = "AC8F5225-6E8D-48D3-AF8E-295F90E86009";
paths = (
{
closed = 1;
nodes = (
"799 -19 OFFCURVE",
"941 121 OFFCURVE",
"941 443 CURVE SMOOTH",
"941 1593 LINE",
"752 1593 LINE",
"752 466 LINE SMOOTH",
"752 245 OFFCURVE",
"681 165 OFFCURVE",
"559 165 CURVE SMOOTH",
"436 165 OFFCURVE",
"366 245 OFFCURVE",
"366 466 CURVE SMOOTH",
"366 1593 LINE",
"176 1593 LINE",
"176 443 LINE SMOOTH",
"176 121 OFFCURVE",
"319 -19 OFFCURVE",
"559 -19 CURVE SMOOTH"
);
},
{
closed = 1;
nodes = (
"663 -376 OFFCURVE",
"602 -316 OFFCURVE",
"591 -255 CURVE SMOOTH",
"571 -132 OFFCURVE",
"627 -55 OFFCURVE",
"788 53 CURVE",
"658 53 LINE",
"482 0 OFFCURVE",
"368 -170 OFFCURVE",
"394 -308 CURVE SMOOTH",
"422 -464 OFFCURVE",
"578 -534 OFFCURVE",
"786 -506 CURVE",
"787 -365 LINE"
);
}
);
width = 1119;
}
);
unicode = 0172;
},
{
glyphname = V;
lastChange = "2021-08-22 04:13:59 +0000";
layers = (
{
anchors = (
{
name = btm;
position = "{477, -170}";
},
{
name = top;
position = "{477, 1700}";
}
);
layerId = master01;
paths = (
{
closed = 1;
nodes = (
"491 -30 LINE",
"949 1593 LINE",
"745 1593 LINE",
"521 741 LINE",
"476 500 LINE",
"433 741 LINE",
"209 1593 LINE",
"5 1593 LINE",
"463 -30 LINE"
);
}
);
userData = {
com.typemytype.robofont.guides = (
{
angle = 90;
isGlobal = 0;
magnetic = 5;
x = 476;
y = 0;
}
);
};
width = 954;
},
{
anchors = (
{
name = btm;
position = "{477, -170}";
},
{
name = top;
position = "{477, 1700}";
}
);
layerId = "AC8F5225-6E8D-48D3-AF8E-295F90E86009";
paths = (
{
closed = 1;
nodes = (
"491 -30 LINE",
"949 1593 LINE",
"745 1593 LINE",
"521 741 LINE",
"476 500 LINE",
"433 741 LINE",
"209 1593 LINE",
"5 1593 LINE",
"463 -30 LINE"
);
}
);
userData = {
com.typemytype.robofont.guides = (
{
angle = 90;
isGlobal = 0;
magnetic = 5;
x = 476;
y = 0;
}
);
};
width = 954;
}
);
unicode = 0056;
},
{
glyphname = W;
lastChange = "2021-08-22 04:13:59 +0000";
layers = (
{
anchors = (
{
name = btm;
position = "{590, -170}";
},
{
name = top;
position = "{590, 1700}";
}
);
layerId = master01;
paths = (
{
closed = 1;
nodes = (
"500 418 LINE",
"610 835 LINE",
"721 418 LINE",
"887 -49 LINE",
"1236 1593 LINE",
"1032 1593 LINE",
"886 836 LINE",
"846 531 LINE",
"725 992 LINE",
"610 1318 LINE",
"501 992 LINE",
"374 531 LINE",
"335 836 LINE",
"189 1593 LINE",
"-15 1593 LINE",
"334 -49 LINE"
);
}
);
userData = {
com.typemytype.robofont.guides = (
{
angle = 0;
isGlobal = 0;
magnetic = 5;
x = 0;
y = 466;
},
{
angle = 0;
isGlobal = 0;
magnetic = 5;
x = 0;
y = 536;
},
{
angle = 0;
isGlobal = 0;
magnetic = 5;
x = 0;
y = 418;
}
);
};
width = 1221;
},
{
anchors = (
{
name = btm;
position = "{590, -170}";
},
{
name = top;
position = "{590, 1700}";
}
);
layerId = "AC8F5225-6E8D-48D3-AF8E-295F90E86009";
paths = (
{
closed = 1;
nodes = (
"500 418 LINE",
"610 835 LINE",
"721 418 LINE",
"887 -49 LINE",
"1236 1593 LINE",
"1032 1593 LINE",
"886 836 LINE",
"846 531 LINE",
"725 992 LINE",
"610 1318 LINE",
"501 992 LINE",
"374 531 LINE",
"335 836 LINE",
"189 1593 LINE",
"-15 1593 LINE",
"334 -49 LINE"
);
}
);
userData = {
com.typemytype.robofont.guides = (
{
angle = 0;
isGlobal = 0;
magnetic = 5;
x = 0;
y = 466;
},
{
angle = 0;
isGlobal = 0;
magnetic = 5;
x = 0;
y = 536;
},
{
angle = 0;
isGlobal = 0;
magnetic = 5;
x = 0;
y = 418;
}
);
};
width = 1221;
}
);
unicode = 0057;
},
{
glyphname = X;
lastChange = "2021-08-22 04:13:59 +0000";
layers = (
{
anchors = (
{
name = btm;
position = "{424, -170}";
},
{
name = top;
position = "{424, 1700}";
}
);
layerId = master01;
paths = (
{
closed = 1;
nodes = (
"848 0 LINE",
"487 879 LINE",
"464 911 LINE",
"231 1593 LINE",
"31 1593 LINE",
"369 726 LINE",
"391 694 LINE",
"648 0 LINE"
);
},
{
closed = 1;
nodes = (
"210 0 LINE",
"463 758 LINE",
"519 773 LINE",
"817 1593 LINE",
"617 1593 LINE",
"386 840 LINE",
"349 862 LINE",
"10 0 LINE"
);
}
);
width = 858;
},
{
anchors = (
{
name = btm;
position = "{424, -170}";
},
{
name = top;
position = "{424, 1700}";
}
);
layerId = "AC8F5225-6E8D-48D3-AF8E-295F90E86009";
paths = (
{
closed = 1;
nodes = (
"848 0 LINE",
"487 879 LINE",
"464 911 LINE",
"231 1593 LINE",
"31 1593 LINE",
"369 726 LINE",
"391 694 LINE",
"648 0 LINE"
);
},
{
closed = 1;
nodes = (
"210 0 LINE",
"463 758 LINE",
"519 773 LINE",
"817 1593 LINE",
"617 1593 LINE",
"386 840 LINE",
"349 862 LINE",
"10 0 LINE"
);
}
);
width = 858;
}
);
unicode = 0058;
},
{
glyphname = Y;
lastChange = "2021-08-22 04:13:59 +0000";
layers = (
{
anchors = (
{
name = bottom;
position = "{438, 0}";
},
{
name = btm;
position = "{437, -170}";
},
{
name = top;
position = "{437, 1700}";
},
{
name = topleft;
position = "{20, 1593}";
}
);
layerId = master01;
paths = (
{
closed = 1;
nodes = (
"531 0 LINE",
"531 536 LINE",
"870 1594 LINE",
"666 1594 LINE",
"437 808 LINE",
"209 1594 LINE",
"5 1594 LINE",
"341 543 LINE",
"341 0 LINE"
);
}
);
width = 875;
},
{
anchors = (
{
name = bottom;
position = "{438, 0}";
},
{
name = btm;
position = "{437, -170}";
},
{
name = top;
position = "{437, 1700}";
},
{
name = topleft;
position = "{20, 1593}";
}
);
layerId = "AC8F5225-6E8D-48D3-AF8E-295F90E86009";
paths = (
{
closed = 1;
nodes = (
"531 0 LINE",
"531 536 LINE",
"870 1594 LINE",
"666 1594 LINE",
"437 808 LINE",
"209 1594 LINE",
"5 1594 LINE",
"341 543 LINE",
"341 0 LINE"
);
}
);
width = 875;
}
);
unicode = 0059;
},
{
glyphname = Z;
lastChange = "2021-08-22 04:13:59 +0000";
layers = (
{
anchors = (
{
name = bottom;
position = "{440, 0}";
},
{
name = btm;
position = "{473, -170}";
},
{
name = center;
position = "{440, 797}";
},
{
name = top;
position = "{473, 1700}";
}
);
layerId = master01;
paths = (
{
closed = 1;
nodes = (
"829 0 LINE",
"829 176 LINE",
"371 176 LINE",
"829 1593 LINE",
"154 1593 LINE",
"154 1417 LINE",
"576 1417 LINE",
"118 0 LINE"
);
}
);
userData = {
com.typemytype.robofont.guides = (
{
angle = 90;
isGlobal = 0;
magnetic = 5;
x = 120;
y = 0;
},
{
angle = 90;
isGlobal = 0;
magnetic = 5;
x = 823;
y = 0;
}
);
};
width = 879;
},
{
anchors = (
{
name = bottom;
position = "{440, 0}";
},
{
name = btm;
position = "{473, -170}";
},
{
name = center;
position = "{440, 797}";
},
{
name = top;
position = "{473, 1700}";
}
);
layerId = "AC8F5225-6E8D-48D3-AF8E-295F90E86009";
paths = (
{
closed = 1;
nodes = (
"829 0 LINE",
"829 176 LINE",
"371 176 LINE",
"829 1593 LINE",
"154 1593 LINE",
"154 1417 LINE",
"576 1417 LINE",
"118 0 LINE"
);
}
);
userData = {
com.typemytype.robofont.guides = (
{
angle = 90;
isGlobal = 0;
magnetic = 5;
x = 120;
y = 0;
},
{
angle = 90;
isGlobal = 0;
magnetic = 5;
x = 823;
y = 0;
}
);
};
width = 879;
}
);
unicode = 005A;
},
{
glyphname = a;
lastChange = "2021-08-29 04:32:32 +0000";
layers = (
{
anchors = (
{
name = btm;
position = "{380, -170}";
},
{
name = top;
position = "{380, 1700}";
}
);
layerId = master01;
paths = (
{
closed = 1;
nodes = (
"711 -19 LINE",
"711 719 LINE SMOOTH",
"711 965 OFFCURVE",
"611 1081 OFFCURVE",
"384 1081 CURVE SMOOTH",
"260 1081 OFFCURVE",
"140 1051 OFFCURVE",
"67 1007 CURVE",
"136 847 LINE",
"188 881 OFFCURVE",
"283 912 OFFCURVE",
"362 912 CURVE SMOOTH",
"496 912 OFFCURVE",
"531 849 OFFCURVE",
"531 712 CURVE SMOOTH",
"531 130 LINE",
"595 -19 LINE"
);
},
{
closed = 1;
nodes = (
"537 -19 OFFCURVE",
"604 179 OFFCURVE",
"604 247 CURVE",
"537 247 LINE",
"532 201 OFFCURVE",
"462 145 OFFCURVE",
"390 145 CURVE SMOOTH",
"250 145 OFFCURVE",
"215 223 OFFCURVE",
"215 322 CURVE SMOOTH",
"215 449 OFFCURVE",
"313 531 OFFCURVE",
"512 531 CURVE",
"661 531 LINE",
"661 690 LINE",
"532 691 LINE",
"187 691 OFFCURVE",
"30 540 OFFCURVE",
"30 325 CURVE SMOOTH",
"30 129 OFFCURVE",
"142 -19 OFFCURVE",
"335 -19 CURVE SMOOTH"
);
}
);
userData = {
com.typemytype.robofont.guides = (
{
angle = 0;
isGlobal = 0;
magnetic = 5;
x = 0;
y = 303;
},
{
angle = 90;
isGlobal = 0;
magnetic = 5;
x = 649;
y = 0;
},
{
angle = 90;
isGlobal = 0;
magnetic = 5;
x = 413;
y = 0;
},
{
angle = 90;
isGlobal = 0;
magnetic = 5;
x = -694;
y = 0;
}
);
com.typemytype.robofont.mark = (
0.967,
0.6,
1,
1
);
};
width = 796;
},
{
anchors = (
{
name = btm;
position = "{385, -170}";
},
{
name = top;
position = "{385, 1700}";
}
);
layerId = "AC8F5225-6E8D-48D3-AF8E-295F90E86009";
paths = (
{
closed = 1;
nodes = (
"786 -19 LINE",
"786 719 LINE SMOOTH",
"786 975 OFFCURVE",
"635 1081 OFFCURVE",
"440 1081 CURVE SMOOTH",
"314 1081 OFFCURVE",
"192 1061 OFFCURVE",
"67 999 CURVE",
"136 779 LINE",
"194 831 OFFCURVE",
"313 852 OFFCURVE",
"397 852 CURVE SMOOTH",
"491 852 OFFCURVE",
"544 816 OFFCURVE",
"544 732 CURVE SMOOTH",
"544 95 LINE",
"629 -19 LINE"
);
},
{
closed = 1;
nodes = (
"530 -19 OFFCURVE",
"647 109 OFFCURVE",
"647 267 CURVE",
"562 277 LINE",
"557 211 OFFCURVE",
"502 175 OFFCURVE",
"430 175 CURVE SMOOTH",
"343 175 OFFCURVE",
"291 237 OFFCURVE",
"291 336 CURVE SMOOTH",
"291 464 OFFCURVE",
"372 505 OFFCURVE",
"540 502 CURVE",
"674 502 LINE",
"674 679 LINE",
"544 680 LINE",
"162 675 OFFCURVE",
"23 547 OFFCURVE",
"23 332 CURVE SMOOTH",
"23 126 OFFCURVE",
"136 -19 OFFCURVE",
"349 -19 CURVE SMOOTH"
);
}
);
userData = {
com.typemytype.robofont.guides = (
{
angle = 0;
isGlobal = 0;
magnetic = 5;
x = 0;
y = 303;
},
{
angle = 90;
isGlobal = 0;
magnetic = 5;
x = 649;
y = 0;
},
{
angle = 90;
isGlobal = 0;
magnetic = 5;
x = 413;
y = 0;
},
{
angle = 90;
isGlobal = 0;
magnetic = 5;
x = -694;
y = 0;
}
);
com.typemytype.robofont.mark = (
0.967,
0.6,
1,
1
);
};
width = 850;
}
);
unicode = 0061;
},
{
glyphname = aogonek;
lastChange = "2021-08-22 04:13:59 +0000";
layers = (
{
layerId = master01;
paths = (
{
closed = 1;
nodes = (
"752 719 LINE SMOOTH",
"752 945 OFFCURVE",
"622 1081 OFFCURVE",
"425 1081 CURVE SMOOTH",
"350 1081 OFFCURVE",
"248 1061 OFFCURVE",
"163 1019 CURVE",
"232 859 LINE",
"290 891 OFFCURVE",
"349 912 OFFCURVE",
"403 912 CURVE SMOOTH",
"507 912 OFFCURVE",
"572 836 OFFCURVE",
"572 712 CURVE SMOOTH",
"572 68 LINE",
"752 -19 LINE"
);
},
{
closed = 1;
nodes = (
"593 201 OFFCURVE",
"523 156 OFFCURVE",
"451 156 CURVE SMOOTH",
"359 156 OFFCURVE",
"296 230 OFFCURVE",
"296 329 CURVE SMOOTH",
"296 457 OFFCURVE",
"400 534 OFFCURVE",
"573 531 CURVE",
"722 531 LINE",
"722 690 LINE",
"572 691 LINE",
"270 676 OFFCURVE",
"111 547 OFFCURVE",
"111 332 CURVE SMOOTH",
"111 136 OFFCURVE",
"244 -19 OFFCURVE",
"429 -19 CURVE SMOOTH",
"598 -19 OFFCURVE",
"725 109 OFFCURVE",
"725 267 CURVE",
"598 247 LINE"
);
},
{
closed = 1;
nodes = (
"628 -376 OFFCURVE",
"567 -316 OFFCURVE",
"557 -255 CURVE SMOOTH",
"536 -132 OFFCURVE",
"672 -44 OFFCURVE",
"754 -19 CURVE",
"701 67 LINE",
"620 45 LINE",
"441 -34 OFFCURVE",
"333 -170 OFFCURVE",
"359 -308 CURVE SMOOTH",
"387 -464 OFFCURVE",
"544 -534 OFFCURVE",
"752 -506 CURVE",
"753 -365 LINE"
);
}
);
width = 907;
},
{
layerId = "AC8F5225-6E8D-48D3-AF8E-295F90E86009";
paths = (
{
closed = 1;
nodes = (
"752 719 LINE SMOOTH",
"752 945 OFFCURVE",
"622 1081 OFFCURVE",
"425 1081 CURVE SMOOTH",
"350 1081 OFFCURVE",
"248 1061 OFFCURVE",
"163 1019 CURVE",
"232 859 LINE",
"290 891 OFFCURVE",
"349 912 OFFCURVE",
"403 912 CURVE SMOOTH",
"507 912 OFFCURVE",
"572 836 OFFCURVE",
"572 712 CURVE SMOOTH",
"572 68 LINE",
"752 -19 LINE"
);
},
{
closed = 1;
nodes = (
"593 201 OFFCURVE",
"523 156 OFFCURVE",
"451 156 CURVE SMOOTH",
"359 156 OFFCURVE",
"296 230 OFFCURVE",
"296 329 CURVE SMOOTH",
"296 457 OFFCURVE",
"400 534 OFFCURVE",
"573 531 CURVE",
"722 531 LINE",
"722 690 LINE",
"572 691 LINE",
"270 676 OFFCURVE",
"111 547 OFFCURVE",
"111 332 CURVE SMOOTH",
"111 136 OFFCURVE",
"244 -19 OFFCURVE",
"429 -19 CURVE SMOOTH",
"598 -19 OFFCURVE",
"725 109 OFFCURVE",
"725 267 CURVE",
"598 247 LINE"
);
},
{
closed = 1;
nodes = (
"628 -376 OFFCURVE",
"567 -316 OFFCURVE",
"557 -255 CURVE SMOOTH",
"536 -132 OFFCURVE",
"672 -44 OFFCURVE",
"754 -19 CURVE",
"701 67 LINE",
"620 45 LINE",
"441 -34 OFFCURVE",
"333 -170 OFFCURVE",
"359 -308 CURVE SMOOTH",
"387 -464 OFFCURVE",
"544 -534 OFFCURVE",
"752 -506 CURVE",
"753 -365 LINE"
);
}
);
width = 907;
}
);
unicode = 0105;
},
{
glyphname = ae;
lastChange = "2021-08-22 04:13:59 +0000";
layers = (
{
anchors = (
{
name = top;
position = "{686, 1700}";
}
);
layerId = master01;
paths = (
{
closed = 1;
nodes = (
"1057 -19 OFFCURVE",
"1165 13 OFFCURVE",
"1227 53 CURVE",
"1158 205 LINE",
"1128 181 OFFCURVE",
"1052 150 OFFCURVE",
"1001 150 CURVE SMOOTH",
"880 150 OFFCURVE",
"752 244 OFFCURVE",
"752 533 CURVE SMOOTH",
"752 781 OFFCURVE",
"838 906 OFFCURVE",
"939 906 CURVE SMOOTH",
"1028 906 OFFCURVE",
"1087 850 OFFCURVE",
"1075 623 CURVE",
"720 623 LINE",
"720 456 LINE",
"1242 455 LINE",
"1311 833 OFFCURVE",
"1186 1081 OFFCURVE",
"952 1081 CURVE SMOOTH",
"750 1081 OFFCURVE",
"576 905 OFFCURVE",
"576 527 CURVE SMOOTH",
"576 187 OFFCURVE",
"739 -19 OFFCURVE",
"979 -19 CURVE SMOOTH"
);
},
{
closed = 1;
nodes = (
"571 -19 OFFCURVE",
"681 61 OFFCURVE",
"752 157 CURVE",
"604 277 LINE",
"579 191 OFFCURVE",
"523 156 OFFCURVE",
"441 156 CURVE SMOOTH",
"365 156 OFFCURVE",
"296 218 OFFCURVE",
"296 329 CURVE SMOOTH",
"296 455 OFFCURVE",
"399 534 OFFCURVE",
"573 531 CURVE",
"722 531 LINE",
"722 690 LINE",
"572 691 LINE",
"270 676 OFFCURVE",
"111 547 OFFCURVE",
"111 332 CURVE SMOOTH",
"111 136 OFFCURVE",
"244 -19 OFFCURVE",
"429 -19 CURVE SMOOTH"
);
},
{
closed = 1;
nodes = (
"752 510 LINE",
"752 719 LINE SMOOTH",
"752 945 OFFCURVE",
"622 1081 OFFCURVE",
"425 1081 CURVE SMOOTH",
"350 1081 OFFCURVE",
"248 1061 OFFCURVE",
"163 1019 CURVE",
"232 859 LINE",
"290 891 OFFCURVE",
"349 912 OFFCURVE",
"403 912 CURVE SMOOTH",
"507 912 OFFCURVE",
"572 836 OFFCURVE",
"572 712 CURVE SMOOTH",
"572 555 LINE",
"572 150 LINE"
);
}
);
width = 1358;
},
{
anchors = (
{
name = top;
position = "{686, 1700}";
}
);
layerId = "AC8F5225-6E8D-48D3-AF8E-295F90E86009";
paths = (
{
closed = 1;
nodes = (
"1057 -19 OFFCURVE",
"1165 13 OFFCURVE",
"1227 53 CURVE",
"1158 205 LINE",
"1128 181 OFFCURVE",
"1052 150 OFFCURVE",
"1001 150 CURVE SMOOTH",
"880 150 OFFCURVE",
"752 244 OFFCURVE",
"752 533 CURVE SMOOTH",
"752 781 OFFCURVE",
"838 906 OFFCURVE",
"939 906 CURVE SMOOTH",
"1028 906 OFFCURVE",
"1087 850 OFFCURVE",
"1075 623 CURVE",
"720 623 LINE",
"720 456 LINE",
"1242 455 LINE",
"1311 833 OFFCURVE",
"1186 1081 OFFCURVE",
"952 1081 CURVE SMOOTH",
"750 1081 OFFCURVE",
"576 905 OFFCURVE",
"576 527 CURVE SMOOTH",
"576 187 OFFCURVE",
"739 -19 OFFCURVE",
"979 -19 CURVE SMOOTH"
);
},
{
closed = 1;
nodes = (
"571 -19 OFFCURVE",
"681 61 OFFCURVE",
"752 157 CURVE",
"604 277 LINE",
"579 191 OFFCURVE",
"523 156 OFFCURVE",
"441 156 CURVE SMOOTH",
"365 156 OFFCURVE",
"296 218 OFFCURVE",
"296 329 CURVE SMOOTH",
"296 455 OFFCURVE",
"399 534 OFFCURVE",
"573 531 CURVE",
"722 531 LINE",
"722 690 LINE",
"572 691 LINE",
"270 676 OFFCURVE",
"111 547 OFFCURVE",
"111 332 CURVE SMOOTH",
"111 136 OFFCURVE",
"244 -19 OFFCURVE",
"429 -19 CURVE SMOOTH"
);
},
{
closed = 1;
nodes = (
"752 510 LINE",
"752 719 LINE SMOOTH",
"752 945 OFFCURVE",
"622 1081 OFFCURVE",
"425 1081 CURVE SMOOTH",
"350 1081 OFFCURVE",
"248 1061 OFFCURVE",
"163 1019 CURVE",
"232 859 LINE",
"290 891 OFFCURVE",
"349 912 OFFCURVE",
"403 912 CURVE SMOOTH",
"507 912 OFFCURVE",
"572 836 OFFCURVE",
"572 712 CURVE SMOOTH",
"572 555 LINE",
"572 150 LINE"
);
}
);
width = 1358;
}
);
unicode = 00E6;
},
{
glyphname = b;
lastChange = "2021-08-22 04:13:59 +0000";
layers = (
{
anchors = (
{
name = btm;
position = "{501, -170}";
},
{
name = top;
position = "{594, 1700}";
}
);
layerId = master01;
paths = (
{
closed = 1;
nodes = (
"690 -19 OFFCURVE",
"869 156 OFFCURVE",
"869 541 CURVE SMOOTH",
"869 926 OFFCURVE",
"690 1081 OFFCURVE",
"480 1081 CURVE SMOOTH",
"343 1081 OFFCURVE",
"230 992 OFFCURVE",
"186 843 CURVE",
"290 807 LINE",
"328 874 OFFCURVE",
"393 913 OFFCURVE",
"468 913 CURVE SMOOTH",
"579 913 OFFCURVE",
"684 839 OFFCURVE",
"684 541 CURVE SMOOTH",
"684 243 OFFCURVE",
"579 149 OFFCURVE",
"468 149 CURVE SMOOTH",
"393 149 OFFCURVE",
"328 188 OFFCURVE",
"290 255 CURVE",
"186 219 LINE",
"230 70 OFFCURVE",
"343 -19 OFFCURVE",
"480 -19 CURVE SMOOTH"
);
},
{
closed = 1;
nodes = (
"234 -19 LINE",
"316 110 LINE",
"316 1593 LINE",
"135 1593 LINE",
"135 -19 LINE"
);
}
);
userData = {
com.typemytype.robofont.guides = (
{
angle = 90;
isGlobal = 0;
magnetic = 5;
x = 467;
y = 0;
}
);
com.typemytype.robofont.mark = (
0.967,
0.6,
1,
1
);
};
width = 965;
},
{
anchors = (
{
name = btm;
position = "{501, -170}";
},
{
name = top;
position = "{594, 1700}";
}
);
layerId = "AC8F5225-6E8D-48D3-AF8E-295F90E86009";
paths = (
{
closed = 1;
nodes = (
"690 -19 OFFCURVE",
"869 156 OFFCURVE",
"869 541 CURVE SMOOTH",
"869 926 OFFCURVE",
"690 1081 OFFCURVE",
"480 1081 CURVE SMOOTH",
"343 1081 OFFCURVE",
"230 992 OFFCURVE",
"186 843 CURVE",
"290 807 LINE",
"328 874 OFFCURVE",
"393 913 OFFCURVE",
"468 913 CURVE SMOOTH",
"579 913 OFFCURVE",
"684 839 OFFCURVE",
"684 541 CURVE SMOOTH",
"684 243 OFFCURVE",
"579 149 OFFCURVE",
"468 149 CURVE SMOOTH",
"393 149 OFFCURVE",
"328 188 OFFCURVE",
"290 255 CURVE",
"186 219 LINE",
"230 70 OFFCURVE",
"343 -19 OFFCURVE",
"480 -19 CURVE SMOOTH"
);
},
{
closed = 1;
nodes = (
"234 -19 LINE",
"316 110 LINE",
"316 1593 LINE",
"135 1593 LINE",
"135 -19 LINE"
);
}
);
userData = {
com.typemytype.robofont.guides = (
{
angle = 90;
isGlobal = 0;
magnetic = 5;
x = 467;
y = 0;
}
);
com.typemytype.robofont.mark = (
0.967,
0.6,
1,
1
);
};
width = 965;
}
);
unicode = 0062;
},
{
glyphname = c;
lastChange = "2021-08-22 04:13:59 +0000";
layers = (
{
anchors = (
{
name = btm;
position = "{406, -170}";
},
{
name = top;
position = "{406, 1700}";
}
);
layerId = master01;
paths = (
{
closed = 1;
nodes = (
"576 -19 OFFCURVE",
"657 10 OFFCURVE",
"716 45 CURVE",
"639 200 LINE",
"601 177 OFFCURVE",
"547 156 OFFCURVE",
"494 156 CURVE SMOOTH",
"387 156 OFFCURVE",
"282 258 OFFCURVE",
"282 531 CURVE",
"282 804 OFFCURVE",
"387 906 OFFCURVE",
"494 906 CURVE SMOOTH",
"547 906 OFFCURVE",
"601 885 OFFCURVE",
"639 862 CURVE",
"716 1017 LINE",
"657 1052 OFFCURVE",
"576 1081 OFFCURVE",
"494 1081 CURVE SMOOTH",
"268 1081 OFFCURVE",
"97 899 OFFCURVE",
"97 531 CURVE SMOOTH",
"97 163 OFFCURVE",
"268 -19 OFFCURVE",
"494 -19 CURVE SMOOTH"
);
}
);
userData = {
com.typemytype.robofont.guides = (
{
angle = 0;
isGlobal = 0;
magnetic = 5;
x = 0;
y = 1180;
}
);
com.typemytype.robofont.mark = (
0.967,
0.6,
1,
1
);
};
width = 764;
},
{
anchors = (
{
name = btm;
position = "{406, -170}";
},
{
name = top;
position = "{406, 1700}";
}
);
layerId = "AC8F5225-6E8D-48D3-AF8E-295F90E86009";
paths = (
{
closed = 1;
nodes = (
"576 -19 OFFCURVE",
"657 10 OFFCURVE",
"716 45 CURVE",
"639 200 LINE",
"601 177 OFFCURVE",
"547 156 OFFCURVE",
"494 156 CURVE SMOOTH",
"387 156 OFFCURVE",
"282 258 OFFCURVE",
"282 531 CURVE",
"282 804 OFFCURVE",
"387 906 OFFCURVE",
"494 906 CURVE SMOOTH",
"547 906 OFFCURVE",
"601 885 OFFCURVE",
"639 862 CURVE",
"716 1017 LINE",
"657 1052 OFFCURVE",
"576 1081 OFFCURVE",
"494 1081 CURVE SMOOTH",
"268 1081 OFFCURVE",
"97 899 OFFCURVE",
"97 531 CURVE SMOOTH",
"97 163 OFFCURVE",
"268 -19 OFFCURVE",
"494 -19 CURVE SMOOTH"
);
}
);
userData = {
com.typemytype.robofont.guides = (
{
angle = 0;
isGlobal = 0;
magnetic = 5;
x = 0;
y = 1180;
}
);
com.typemytype.robofont.mark = (
0.967,
0.6,
1,
1
);
};
width = 764;
}
);
unicode = 0063;
},
{
glyphname = d;
lastChange = "2021-08-22 04:13:59 +0000";
layers = (
{
anchors = (
{
name = btm;
position = "{465, -170}";
},
{
name = top;
position = "{352, 1700}";
}
);
layerId = master01;
paths = (
{
closed = 1;
nodes = (
"625 -19 OFFCURVE",
"738 70 OFFCURVE",
"782 219 CURVE",
"678 255 LINE",
"640 188 OFFCURVE",
"575 149 OFFCURVE",
"500 149 CURVE SMOOTH",
"389 149 OFFCURVE",
"284 223 OFFCURVE",
"284 521 CURVE SMOOTH",
"284 819 OFFCURVE",
"389 913 OFFCURVE",
"500 913 CURVE SMOOTH",
"575 913 OFFCURVE",
"640 874 OFFCURVE",
"678 807 CURVE",
"782 843 LINE",
"738 992 OFFCURVE",
"625 1081 OFFCURVE",
"488 1081 CURVE SMOOTH",
"277 1081 OFFCURVE",
"99 906 OFFCURVE",
"99 521 CURVE SMOOTH",
"99 136 OFFCURVE",
"277 -19 OFFCURVE",
"488 -19 CURVE SMOOTH"
);
},
{
closed = 1;
nodes = (
"835 1593 LINE",
"653 1593 LINE",
"653 104 LINE",
"835 -23 LINE"
);
}
);
userData = {
com.typemytype.robofont.guides = (
{
angle = 0;
isGlobal = 0;
magnetic = 5;
x = 0;
y = 1909;
}
);
com.typemytype.robofont.mark = (
0.967,
0.6,
1,
1
);
};
width = 962;
},
{
anchors = (
{
name = btm;
position = "{465, -170}";
},
{
name = top;
position = "{352, 1700}";
}
);
layerId = "AC8F5225-6E8D-48D3-AF8E-295F90E86009";
paths = (
{
closed = 1;
nodes = (
"625 -19 OFFCURVE",
"738 70 OFFCURVE",
"782 219 CURVE",
"678 255 LINE",
"640 188 OFFCURVE",
"575 149 OFFCURVE",
"500 149 CURVE SMOOTH",
"389 149 OFFCURVE",
"284 223 OFFCURVE",
"284 521 CURVE SMOOTH",
"284 819 OFFCURVE",
"389 913 OFFCURVE",
"500 913 CURVE SMOOTH",
"575 913 OFFCURVE",
"640 874 OFFCURVE",
"678 807 CURVE",
"782 843 LINE",
"738 992 OFFCURVE",
"625 1081 OFFCURVE",
"488 1081 CURVE SMOOTH",
"277 1081 OFFCURVE",
"99 906 OFFCURVE",
"99 521 CURVE SMOOTH",
"99 136 OFFCURVE",
"277 -19 OFFCURVE",
"488 -19 CURVE SMOOTH"
);
},
{
closed = 1;
nodes = (
"835 1593 LINE",
"653 1593 LINE",
"653 104 LINE",
"835 -23 LINE"
);
}
);
userData = {
com.typemytype.robofont.guides = (
{
angle = 0;
isGlobal = 0;
magnetic = 5;
x = 0;
y = 1909;
}
);
com.typemytype.robofont.mark = (
0.967,
0.6,
1,
1
);
};
width = 962;
}
);
unicode = 0064;
},
{
glyphname = eth;
lastChange = "2021-08-22 04:13:59 +0000";
layers = (
{
layerId = master01;
paths = (
{
closed = 1;
nodes = (
"718 -19 OFFCURVE",
"869 183 OFFCURVE",
"869 590 CURVE SMOOTH",
"869 989 OFFCURVE",
"715 1385 OFFCURVE",
"401 1612 CURVE",
"316 1475 LINE",
"499 1333 OFFCURVE",
"624 1103 OFFCURVE",
"642 930 CURVE",
"579 976 OFFCURVE",
"543 992 OFFCURVE",
"463 992 CURVE SMOOTH",
"278 992 OFFCURVE",
"99 824 OFFCURVE",
"99 491 CURVE SMOOTH",
"99 151 OFFCURVE",
"264 -19 OFFCURVE",
"476 -19 CURVE SMOOTH"
);
},
{
closed = 1;
nodes = (
"384 153 OFFCURVE",
"284 238 OFFCURVE",
"284 491 CURVE SMOOTH",
"284 736 OFFCURVE",
"384 819 OFFCURVE",
"476 819 CURVE SMOOTH",
"576 819 OFFCURVE",
"668 732 OFFCURVE",
"668 491 CURVE SMOOTH",
"668 238 OFFCURVE",
"568 153 OFFCURVE",
"476 153 CURVE SMOOTH"
);
},
{
closed = 1;
nodes = (
"859 1424 LINE",
"773 1543 LINE",
"293 1225 LINE",
"377 1106 LINE"
);
}
);
userData = {
com.typemytype.robofont.guides = (
{
angle = 90;
isGlobal = 0;
magnetic = 5;
x = 869;
y = 0;
}
);
};
width = 969;
},
{
layerId = "AC8F5225-6E8D-48D3-AF8E-295F90E86009";
paths = (
{
closed = 1;
nodes = (
"718 -19 OFFCURVE",
"869 183 OFFCURVE",
"869 590 CURVE SMOOTH",
"869 989 OFFCURVE",
"715 1385 OFFCURVE",
"401 1612 CURVE",
"316 1475 LINE",
"499 1333 OFFCURVE",
"624 1103 OFFCURVE",
"642 930 CURVE",
"579 976 OFFCURVE",
"543 992 OFFCURVE",
"463 992 CURVE SMOOTH",
"278 992 OFFCURVE",
"99 824 OFFCURVE",
"99 491 CURVE SMOOTH",
"99 151 OFFCURVE",
"264 -19 OFFCURVE",
"476 -19 CURVE SMOOTH"
);
},
{
closed = 1;
nodes = (
"384 153 OFFCURVE",
"284 238 OFFCURVE",
"284 491 CURVE SMOOTH",
"284 736 OFFCURVE",
"384 819 OFFCURVE",
"476 819 CURVE SMOOTH",
"576 819 OFFCURVE",
"668 732 OFFCURVE",
"668 491 CURVE SMOOTH",
"668 238 OFFCURVE",
"568 153 OFFCURVE",
"476 153 CURVE SMOOTH"
);
},
{
closed = 1;
nodes = (
"859 1424 LINE",
"773 1543 LINE",
"293 1225 LINE",
"377 1106 LINE"
);
}
);
userData = {
com.typemytype.robofont.guides = (
{
angle = 90;
isGlobal = 0;
magnetic = 5;
x = 869;
y = 0;
}
);
};
width = 969;
}
);
unicode = 00F0;
},
{
glyphname = dcaron;
lastChange = "2021-08-22 04:13:59 +0000";
layers = (
{
components = (
{
name = d;
transform = "{1, 0, 0, 1, -5, 0}";
}
);
layerId = master01;
paths = (
{
closed = 1;
nodes = (
"1201 1537 OFFCURVE",
"1132 1594 OFFCURVE",
"1054 1594 CURVE SMOOTH",
"970 1594 OFFCURVE",
"924 1531 OFFCURVE",
"924 1460 CURVE SMOOTH",
"924 1393 OFFCURVE",
"964 1334 OFFCURVE",
"1040 1328 CURVE",
"1025 1274 OFFCURVE",
"1002 1181 OFFCURVE",
"955 1128 CURVE",
"1043 1063 LINE",
"1166 1201 OFFCURVE",
"1201 1321 OFFCURVE",
"1201 1425 CURVE SMOOTH"
);
}
);
width = 1195;
},
{
components = (
{
name = d;
transform = "{1, 0, 0, 1, -5, 0}";
}
);
layerId = "AC8F5225-6E8D-48D3-AF8E-295F90E86009";
paths = (
{
closed = 1;
nodes = (
"1201 1537 OFFCURVE",
"1132 1594 OFFCURVE",
"1054 1594 CURVE SMOOTH",
"970 1594 OFFCURVE",
"924 1531 OFFCURVE",
"924 1460 CURVE SMOOTH",
"924 1393 OFFCURVE",
"964 1334 OFFCURVE",
"1040 1328 CURVE",
"1025 1274 OFFCURVE",
"1002 1181 OFFCURVE",
"955 1128 CURVE",
"1043 1063 LINE",
"1166 1201 OFFCURVE",
"1201 1321 OFFCURVE",
"1201 1425 CURVE SMOOTH"
);
}
);
width = 1195;
}
);
unicode = 010F;
},
{
glyphname = e;
lastChange = "2021-08-29 04:36:06 +0000";
layers = (
{
anchors = (
{
name = bottom;
position = "{448, 0}";
},
{
name = btm;
position = "{418, -170}";
},
{
name = ogonek;
position = "{798, 10}";
},
{
name = top;
position = "{478, 1700}";
}
);
layerId = master01;
paths = (
{
closed = 1;
nodes = (
"598 -19 OFFCURVE",
"707 15 OFFCURVE",
"771 53 CURVE",
"701 205 LINE",
"665 180 OFFCURVE",
"588 150 OFFCURVE",
"517 150 CURVE SMOOTH",
"394 150 OFFCURVE",
"255 244 OFFCURVE",
"255 540 CURVE SMOOTH",
"255 781 OFFCURVE",
"348 906 OFFCURVE",
"471 906 CURVE SMOOTH",
"560 906 OFFCURVE",
"634 847 OFFCURVE",
"619 623 CURVE",
"224 623 LINE",
"224 456 LINE",
"786 455 LINE",
"858 833 OFFCURVE",
"726 1081 OFFCURVE",
"475 1081 CURVE SMOOTH",
"263 1081 OFFCURVE",
"70 899 OFFCURVE",
"70 538 CURVE SMOOTH",
"70 187 OFFCURVE",
"251 -19 OFFCURVE",
"496 -19 CURVE SMOOTH"
);
}
);
userData = {
com.typemytype.robofont.mark = (
0.967,
0.6,
1,
1
);
};
width = 874;
},
{
anchors = (
{
name = bottom;
position = "{464, 0}";
},
{
name = btm;
position = "{434, -170}";
},
{
name = ogonek;
position = "{814, 10}";
},
{
name = top;
position = "{494, 1700}";
}
);
background = {
paths = (
{
closed = 1;
nodes = (
"720 -24 OFFCURVE",
"897 159 OFFCURVE",
"897 531 CURVE SMOOTH",
"897 903 OFFCURVE",
"720 1086 OFFCURVE",
"481 1086 CURVE SMOOTH",
"242 1086 OFFCURVE",
"66 903 OFFCURVE",
"66 531 CURVE SMOOTH",
"66 159 OFFCURVE",
"242 -24 OFFCURVE",
"481 -24 CURVE SMOOTH"
);
},
{
closed = 1;
nodes = (
"398 231 OFFCURVE",
"324 296 OFFCURVE",
"324 531 CURVE SMOOTH",
"324 766 OFFCURVE",
"398 829 OFFCURVE",
"481 829 CURVE SMOOTH",
"564 829 OFFCURVE",
"638 766 OFFCURVE",
"638 531 CURVE SMOOTH",
"638 296 OFFCURVE",
"564 231 OFFCURVE",
"481 231 CURVE SMOOTH"
);
}
);
};
layerId = "AC8F5225-6E8D-48D3-AF8E-295F90E86009";
paths = (
{
closed = 1;
nodes = (
"641 -22 OFFCURVE",
"723 15 OFFCURVE",
"787 53 CURVE",
"717 266 LINE",
"681 241 OFFCURVE",
"574 211 OFFCURVE",
"499 211 CURVE SMOOTH",
"380 211 OFFCURVE",
"329 305 OFFCURVE",
"329 540 CURVE SMOOTH",
"329 717 OFFCURVE",
"358 829 OFFCURVE",
"481 829 CURVE SMOOTH",
"570 829 OFFCURVE",
"638 766 OFFCURVE",
"635 623 CURVE",
"240 623 LINE",
"240 408 LINE",
"872 408 LINE",
"944 833 OFFCURVE",
"763 1085 OFFCURVE",
"491 1085 CURVE SMOOTH",
"211 1085 OFFCURVE",
"66 892 OFFCURVE",
"66 531 CURVE SMOOTH",
"66 159 OFFCURVE",
"229 -24 OFFCURVE",
"481 -23 CURVE SMOOTH"
);
}
);
userData = {
com.typemytype.robofont.mark = (
0.967,
0.6,
1,
1
);
};
width = 948;
}
);
leftMetricsKey = "=o";
unicode = 0065;
},
{
glyphname = eogonek;
lastChange = "2021-08-22 04:13:59 +0000";
layers = (
{
layerId = master01;
paths = (
{
closed = 1;
nodes = (
"282 781 OFFCURVE",
"367 906 OFFCURVE",
"478 906 CURVE SMOOTH",
"555 906 OFFCURVE",
"619 847 OFFCURVE",
"606 623 CURVE",
"251 623 LINE",
"251 456 LINE",
"773 455 LINE",
"841 833 OFFCURVE",
"717 1081 OFFCURVE",
"482 1081 CURVE SMOOTH",
"280 1081 OFFCURVE",
"97 899 OFFCURVE",
"97 538 CURVE SMOOTH",
"97 187 OFFCURVE",
"270 -19 OFFCURVE",
"503 -19 CURVE SMOOTH",
"597 -19 OFFCURVE",
"698 15 OFFCURVE",
"758 53 CURVE",
"688 205 LINE",
"656 180 OFFCURVE",
"587 150 OFFCURVE",
"524 150 CURVE SMOOTH",
"411 150 OFFCURVE",
"282 244 OFFCURVE",
"282 540 CURVE SMOOTH"
);
},
{
closed = 1;
nodes = (
"632 -376 OFFCURVE",
"571 -316 OFFCURVE",
"561 -255 CURVE SMOOTH",
"540 -132 OFFCURVE",
"594 -55 OFFCURVE",
"758 53 CURVE",
"627 53 LINE",
"452 0 OFFCURVE",
"338 -170 OFFCURVE",
"363 -308 CURVE SMOOTH",
"392 -464 OFFCURVE",
"548 -534 OFFCURVE",
"756 -506 CURVE",
"757 -365 LINE"
);
}
);
width = 889;
},
{
layerId = "AC8F5225-6E8D-48D3-AF8E-295F90E86009";
paths = (
{
closed = 1;
nodes = (
"282 781 OFFCURVE",
"367 906 OFFCURVE",
"478 906 CURVE SMOOTH",
"555 906 OFFCURVE",
"619 847 OFFCURVE",
"606 623 CURVE",
"251 623 LINE",
"251 456 LINE",
"773 455 LINE",
"841 833 OFFCURVE",
"717 1081 OFFCURVE",
"482 1081 CURVE SMOOTH",
"280 1081 OFFCURVE",
"97 899 OFFCURVE",
"97 538 CURVE SMOOTH",
"97 187 OFFCURVE",
"270 -19 OFFCURVE",
"503 -19 CURVE SMOOTH",
"597 -19 OFFCURVE",
"698 15 OFFCURVE",
"758 53 CURVE",
"688 205 LINE",
"656 180 OFFCURVE",
"587 150 OFFCURVE",
"524 150 CURVE SMOOTH",
"411 150 OFFCURVE",
"282 244 OFFCURVE",
"282 540 CURVE SMOOTH"
);
},
{
closed = 1;
nodes = (
"632 -376 OFFCURVE",
"571 -316 OFFCURVE",
"561 -255 CURVE SMOOTH",
"540 -132 OFFCURVE",
"594 -55 OFFCURVE",
"758 53 CURVE",
"627 53 LINE",
"452 0 OFFCURVE",
"338 -170 OFFCURVE",
"363 -308 CURVE SMOOTH",
"392 -464 OFFCURVE",
"548 -534 OFFCURVE",
"756 -506 CURVE",
"757 -365 LINE"
);
}
);
width = 889;
}
);
unicode = 0119;
},
{
color = 0;
glyphname = schwa;
lastChange = "2021-08-22 04:13:59 +0000";
layers = (
{
layerId = master01;
paths = (
{
closed = 1;
nodes = (
"292 1081 OFFCURVE",
"183 1047 OFFCURVE",
"119 1009 CURVE",
"189 857 LINE",
"225 882 OFFCURVE",
"302 912 OFFCURVE",
"373 912 CURVE SMOOTH",
"496 912 OFFCURVE",
"635 818 OFFCURVE",
"635 522 CURVE SMOOTH",
"635 281 OFFCURVE",
"542 156 OFFCURVE",
"419 156 CURVE SMOOTH",
"330 156 OFFCURVE",
"256 215 OFFCURVE",
"271 439 CURVE",
"666 439 LINE",
"666 606 LINE",
"104 607 LINE",
"32 229 OFFCURVE",
"164 -19 OFFCURVE",
"415 -19 CURVE SMOOTH",
"627 -19 OFFCURVE",
"820 163 OFFCURVE",
"820 524 CURVE SMOOTH",
"820 875 OFFCURVE",
"639 1081 OFFCURVE",
"394 1081 CURVE SMOOTH"
);
}
);
width = 917;
},
{
layerId = "AC8F5225-6E8D-48D3-AF8E-295F90E86009";
paths = (
{
closed = 1;
nodes = (
"292 1081 OFFCURVE",
"183 1047 OFFCURVE",
"119 1009 CURVE",
"189 857 LINE",
"225 882 OFFCURVE",
"302 912 OFFCURVE",
"373 912 CURVE SMOOTH",
"496 912 OFFCURVE",
"635 818 OFFCURVE",
"635 522 CURVE SMOOTH",
"635 281 OFFCURVE",
"542 156 OFFCURVE",
"419 156 CURVE SMOOTH",
"330 156 OFFCURVE",
"256 215 OFFCURVE",
"271 439 CURVE",
"666 439 LINE",
"666 606 LINE",
"104 607 LINE",
"32 229 OFFCURVE",
"164 -19 OFFCURVE",
"415 -19 CURVE SMOOTH",
"627 -19 OFFCURVE",
"820 163 OFFCURVE",
"820 524 CURVE SMOOTH",
"820 875 OFFCURVE",
"639 1081 OFFCURVE",
"394 1081 CURVE SMOOTH"
);
}
);
width = 917;
}
);
leftMetricsKey = "=|e";
rightMetricsKey = "=|e";
unicode = 0259;
},
{
glyphname = f;
lastChange = "2021-08-22 04:13:59 +0000";
layers = (
{
anchors = (
{
name = btm;
position = "{306, -170}";
},
{
name = top;
position = "{260, 2020}";
}
);
layerId = master01;
paths = (
{
closed = 1;
nodes = (
"345 0 LINE",
"345 1280 LINE SMOOTH",
"345 1362 OFFCURVE",
"404 1447 OFFCURVE",
"532 1437 CURVE",
"532 1612 LINE",
"308 1624 OFFCURVE",
"163 1468 OFFCURVE",
"163 1282 CURVE SMOOTH",
"163 0 LINE"
);
},
{
closed = 1;
nodes = (
"526 894 LINE",
"526 1062 LINE",
"80 1062 LINE",
"80 894 LINE"
);
}
);
userData = {
com.typemytype.robofont.mark = (
0.967,
0.6,
1,
1
);
};
width = 560;
},
{
anchors = (
{
name = btm;
position = "{306, -170}";
},
{
name = top;
position = "{260, 2020}";
}
);
layerId = "AC8F5225-6E8D-48D3-AF8E-295F90E86009";
paths = (
{
closed = 1;
nodes = (
"345 0 LINE",
"345 1280 LINE SMOOTH",
"345 1362 OFFCURVE",
"404 1447 OFFCURVE",
"532 1437 CURVE",
"532 1612 LINE",
"308 1624 OFFCURVE",
"163 1468 OFFCURVE",
"163 1282 CURVE SMOOTH",
"163 0 LINE"
);
},
{
closed = 1;
nodes = (
"526 894 LINE",
"526 1062 LINE",
"80 1062 LINE",
"80 894 LINE"
);
}
);
userData = {
com.typemytype.robofont.mark = (
0.967,
0.6,
1,
1
);
};
width = 560;
}
);
unicode = 0066;
},
{
glyphname = g;
lastChange = "2021-08-22 04:13:59 +0000";
layers = (
{
anchors = (
{
name = btm;
position = "{461, -170}";
},
{
name = top;
position = "{461, 1700}";
}
);
layerId = master01;
paths = (
{
closed = 1;
nodes = (
"692 -345 OFFCURVE",
"816 -140 OFFCURVE",
"816 43 CURVE SMOOTH",
"816 1082 LINE",
"696 1081 LINE",
"634 966 LINE",
"634 43 LINE SMOOTH",
"634 -75 OFFCURVE",
"564 -194 OFFCURVE",
"294 -220 CURVE",
"383 -364 LINE"
);
},
{
closed = 1;
nodes = (
"615 20 OFFCURVE",
"723 106 OFFCURVE",
"770 258 CURVE",
"666 294 LINE",
"628 227 OFFCURVE",
"563 188 OFFCURVE",
"488 188 CURVE SMOOTH",
"377 188 OFFCURVE",
"272 260 OFFCURVE",
"272 542 CURVE SMOOTH",
"272 824 OFFCURVE",
"377 916 OFFCURVE",
"488 916 CURVE SMOOTH",
"563 916 OFFCURVE",
"628 877 OFFCURVE",
"666 810 CURVE",
"770 846 LINE",
"723 998 OFFCURVE",
"615 1084 OFFCURVE",
"468 1084 CURVE SMOOTH",
"269 1084 OFFCURVE",
"87 913 OFFCURVE",
"87 542 CURVE SMOOTH",
"87 171 OFFCURVE",
"269 20 OFFCURVE",
"468 20 CURVE SMOOTH"
);
}
);
userData = {
com.typemytype.robofont.guides = (
{
angle = 90;
isGlobal = 0;
magnetic = 5;
x = 508;
y = 0;
}
);
com.typemytype.robofont.mark = (
0.967,
0.6,
1,
1
);
};
width = 969;
},
{
anchors = (
{
name = btm;
position = "{461, -170}";
},
{
name = top;
position = "{461, 1700}";
}
);
layerId = "AC8F5225-6E8D-48D3-AF8E-295F90E86009";
paths = (
{
closed = 1;
nodes = (
"692 -345 OFFCURVE",
"816 -140 OFFCURVE",
"816 43 CURVE SMOOTH",
"816 1082 LINE",
"696 1081 LINE",
"634 966 LINE",
"634 43 LINE SMOOTH",
"634 -75 OFFCURVE",
"564 -194 OFFCURVE",
"294 -220 CURVE",
"383 -364 LINE"
);
},
{
closed = 1;
nodes = (
"615 20 OFFCURVE",
"723 106 OFFCURVE",
"770 258 CURVE",
"666 294 LINE",
"628 227 OFFCURVE",
"563 188 OFFCURVE",
"488 188 CURVE SMOOTH",
"377 188 OFFCURVE",
"272 260 OFFCURVE",
"272 542 CURVE SMOOTH",
"272 824 OFFCURVE",
"377 916 OFFCURVE",
"488 916 CURVE SMOOTH",
"563 916 OFFCURVE",
"628 877 OFFCURVE",
"666 810 CURVE",
"770 846 LINE",
"723 998 OFFCURVE",
"615 1084 OFFCURVE",
"468 1084 CURVE SMOOTH",
"269 1084 OFFCURVE",
"87 913 OFFCURVE",
"87 542 CURVE SMOOTH",
"87 171 OFFCURVE",
"269 20 OFFCURVE",
"468 20 CURVE SMOOTH"
);
}
);
userData = {
com.typemytype.robofont.guides = (
{
angle = 90;
isGlobal = 0;
magnetic = 5;
x = 508;
y = 0;
}
);
com.typemytype.robofont.mark = (
0.967,
0.6,
1,
1
);
};
width = 969;
}
);
unicode = 0067;
},
{
glyphname = h;
lastChange = "2021-08-22 04:13:59 +0000";
layers = (
{
anchors = (
{
name = btm;
position = "{514, -170}";
},
{
name = top;
position = "{514, 1700}";
}
);
layerId = master01;
paths = (
{
closed = 1;
nodes = (
"875 0 LINE",
"875 688 LINE SMOOTH",
"875 939 OFFCURVE",
"763 1078 OFFCURVE",
"547 1078 CURVE SMOOTH",
"434 1078 OFFCURVE",
"308 1000 OFFCURVE",
"261 917 CURVE",
"296 741 LINE",
"351 848 OFFCURVE",
"446 897 OFFCURVE",
"526 897 CURVE SMOOTH",
"636 897 OFFCURVE",
"693 822 OFFCURVE",
"693 686 CURVE SMOOTH",
"693 0 LINE"
);
},
{
closed = 1;
nodes = (
"334 0 LINE",
"334 1593 LINE",
"153 1593 LINE",
"153 0 LINE"
);
}
);
userData = {
com.typemytype.robofont.mark = (
0.967,
0.6,
1,
1
);
};
width = 1012;
},
{
anchors = (
{
name = btm;
position = "{514, -170}";
},
{
name = top;
position = "{514, 1700}";
}
);
layerId = "AC8F5225-6E8D-48D3-AF8E-295F90E86009";
paths = (
{
closed = 1;
nodes = (
"875 0 LINE",
"875 688 LINE SMOOTH",
"875 939 OFFCURVE",
"763 1078 OFFCURVE",
"547 1078 CURVE SMOOTH",
"434 1078 OFFCURVE",
"308 1000 OFFCURVE",
"261 917 CURVE",
"296 741 LINE",
"351 848 OFFCURVE",
"446 897 OFFCURVE",
"526 897 CURVE SMOOTH",
"636 897 OFFCURVE",
"693 822 OFFCURVE",
"693 686 CURVE SMOOTH",
"693 0 LINE"
);
},
{
closed = 1;
nodes = (
"334 0 LINE",
"334 1593 LINE",
"153 1593 LINE",
"153 0 LINE"
);
}
);
userData = {
com.typemytype.robofont.mark = (
0.967,
0.6,
1,
1
);
};
width = 1012;
}
);
unicode = 0068;
},
{
glyphname = hbar;
lastChange = "2021-08-22 04:13:59 +0000";
layers = (
{
components = (
{
name = h;
transform = "{1, 0, 0, 1, -5, 0}";
}
);
layerId = master01;
paths = (
{
closed = 1;
nodes = (
"464 1388 LINE",
"37 1388 LINE",
"37 1230 LINE",
"464 1230 LINE"
);
}
);
width = 1008;
},
{
components = (
{
name = h;
transform = "{1, 0, 0, 1, -5, 0}";
}
);
layerId = "AC8F5225-6E8D-48D3-AF8E-295F90E86009";
paths = (
{
closed = 1;
nodes = (
"464 1388 LINE",
"37 1388 LINE",
"37 1230 LINE",
"464 1230 LINE"
);
}
);
width = 1008;
}
);
unicode = 0127;
},
{
glyphname = i;
lastChange = "2021-08-22 04:13:59 +0000";
layers = (
{
anchors = (
{
name = btm;
position = "{269, -170}";
},
{
name = top;
position = "{269, 1700}";
}
);
layerId = master01;
paths = (
{
closed = 1;
nodes = (
"354 0 LINE",
"354 1062 LINE",
"172 1062 LINE",
"172 0 LINE"
);
},
{
closed = 1;
nodes = (
"349 1244 OFFCURVE",
"401 1302 OFFCURVE",
"401 1368 CURVE SMOOTH",
"401 1434 OFFCURVE",
"349 1492 OFFCURVE",
"269 1492 CURVE SMOOTH",
"190 1492 OFFCURVE",
"138 1434 OFFCURVE",
"138 1368 CURVE SMOOTH",
"138 1302 OFFCURVE",
"190 1244 OFFCURVE",
"269 1244 CURVE SMOOTH"
);
}
);
userData = {
com.typemytype.robofont.mark = (
0.967,
0.6,
1,
1
);
};
width = 526;
},
{
anchors = (
{
name = btm;
position = "{269, -170}";
},
{
name = top;
position = "{269, 1700}";
}
);
layerId = "AC8F5225-6E8D-48D3-AF8E-295F90E86009";
paths = (
{
closed = 1;
nodes = (
"354 0 LINE",
"354 1062 LINE",
"172 1062 LINE",
"172 0 LINE"
);
},
{
closed = 1;
nodes = (
"349 1244 OFFCURVE",
"401 1302 OFFCURVE",
"401 1368 CURVE SMOOTH",
"401 1434 OFFCURVE",
"349 1492 OFFCURVE",
"269 1492 CURVE SMOOTH",
"190 1492 OFFCURVE",
"138 1434 OFFCURVE",
"138 1368 CURVE SMOOTH",
"138 1302 OFFCURVE",
"190 1244 OFFCURVE",
"269 1244 CURVE SMOOTH"
);
}
);
userData = {
com.typemytype.robofont.mark = (
0.967,
0.6,
1,
1
);
};
width = 526;
}
);
unicode = 0069;
},
{
glyphname = idotless;
lastChange = "2021-08-22 04:13:59 +0000";
layers = (
{
anchors = (
{
name = top;
position = "{263, 1700}";
}
);
layerId = master01;
paths = (
{
closed = 1;
nodes = (
"354 1062 LINE",
"172 1062 LINE",
"172 0 LINE",
"354 0 LINE"
);
}
);
userData = {
com.typemytype.robofont.mark = (
0.967,
0.6,
1,
1
);
};
width = 526;
},
{
anchors = (
{
name = top;
position = "{263, 1700}";
}
);
layerId = "AC8F5225-6E8D-48D3-AF8E-295F90E86009";
paths = (
{
closed = 1;
nodes = (
"354 1062 LINE",
"172 1062 LINE",
"172 0 LINE",
"354 0 LINE"
);
}
);
userData = {
com.typemytype.robofont.mark = (
0.967,
0.6,
1,
1
);
};
width = 526;
}
);
unicode = 0131;
},
{
glyphname = iogonek;
lastChange = "2021-08-22 04:13:59 +0000";
layers = (
{
layerId = master01;
paths = (
{
closed = 1;
nodes = (
"359 1062 LINE",
"177 1062 LINE",
"177 0 LINE",
"359 0 LINE"
);
},
{
closed = 1;
nodes = (
"406 1434 OFFCURVE",
"354 1492 OFFCURVE",
"274 1492 CURVE SMOOTH",
"195 1492 OFFCURVE",
"143 1434 OFFCURVE",
"143 1368 CURVE SMOOTH",
"143 1302 OFFCURVE",
"195 1244 OFFCURVE",
"274 1244 CURVE SMOOTH",
"354 1244 OFFCURVE",
"406 1302 OFFCURVE",
"406 1368 CURVE SMOOTH"
);
},
{
closed = 1;
nodes = (
"239 -376 OFFCURVE",
"167 -316 OFFCURVE",
"157 -255 CURVE SMOOTH",
"137 -132 OFFCURVE",
"277 -25 OFFCURVE",
"359 0 CURVE",
"301 67 LINE",
"220 54 LINE",
"41 -15 OFFCURVE",
"-66 -170 OFFCURVE",
"-41 -308 CURVE SMOOTH",
"-12 -464 OFFCURVE",
"154 -534 OFFCURVE",
"362 -506 CURVE",
"363 -365 LINE"
);
}
);
width = 549;
},
{
layerId = "AC8F5225-6E8D-48D3-AF8E-295F90E86009";
paths = (
{
closed = 1;
nodes = (
"359 1062 LINE",
"177 1062 LINE",
"177 0 LINE",
"359 0 LINE"
);
},
{
closed = 1;
nodes = (
"406 1434 OFFCURVE",
"354 1492 OFFCURVE",
"274 1492 CURVE SMOOTH",
"195 1492 OFFCURVE",
"143 1434 OFFCURVE",
"143 1368 CURVE SMOOTH",
"143 1302 OFFCURVE",
"195 1244 OFFCURVE",
"274 1244 CURVE SMOOTH",
"354 1244 OFFCURVE",
"406 1302 OFFCURVE",
"406 1368 CURVE SMOOTH"
);
},
{
closed = 1;
nodes = (
"239 -376 OFFCURVE",
"167 -316 OFFCURVE",
"157 -255 CURVE SMOOTH",
"137 -132 OFFCURVE",
"277 -25 OFFCURVE",
"359 0 CURVE",
"301 67 LINE",
"220 54 LINE",
"41 -15 OFFCURVE",
"-66 -170 OFFCURVE",
"-41 -308 CURVE SMOOTH",
"-12 -464 OFFCURVE",
"154 -534 OFFCURVE",
"362 -506 CURVE",
"363 -365 LINE"
);
}
);
width = 549;
}
);
unicode = 012F;
},
{
glyphname = j;
lastChange = "2021-08-22 04:13:59 +0000";
layers = (
{
anchors = (
{
name = btm;
position = "{242, -170}";
},
{
name = top;
position = "{242, 1700}";
}
);
layerId = master01;
paths = (
{
closed = 1;
nodes = (
"298 -248 OFFCURVE",
"366 -83 OFFCURVE",
"366 123 CURVE SMOOTH",
"366 1062 LINE",
"184 1062 LINE",
"184 123 LINE SMOOTH",
"184 -19 OFFCURVE",
"147 -124 OFFCURVE",
"15 -210 CURVE",
"104 -354 LINE"
);
},
{
closed = 1;
nodes = (
"357 1244 OFFCURVE",
"410 1302 OFFCURVE",
"410 1368 CURVE SMOOTH",
"410 1434 OFFCURVE",
"357 1492 OFFCURVE",
"278 1492 CURVE SMOOTH",
"198 1492 OFFCURVE",
"146 1434 OFFCURVE",
"146 1368 CURVE SMOOTH",
"146 1302 OFFCURVE",
"198 1244 OFFCURVE",
"278 1244 CURVE SMOOTH"
);
}
);
userData = {
com.typemytype.robofont.guides = (
{
angle = 90;
isGlobal = 0;
magnetic = 5;
x = -45;
y = 0;
},
{
angle = 90;
isGlobal = 0;
magnetic = 5;
x = 308;
y = 0;
}
);
com.typemytype.robofont.mark = (
0.967,
0.6,
1,
1
);
};
width = 526;
},
{
anchors = (
{
name = btm;
position = "{242, -170}";
},
{
name = top;
position = "{242, 1700}";
}
);
layerId = "AC8F5225-6E8D-48D3-AF8E-295F90E86009";
paths = (
{
closed = 1;
nodes = (
"298 -248 OFFCURVE",
"366 -83 OFFCURVE",
"366 123 CURVE SMOOTH",
"366 1062 LINE",
"184 1062 LINE",
"184 123 LINE SMOOTH",
"184 -19 OFFCURVE",
"147 -124 OFFCURVE",
"15 -210 CURVE",
"104 -354 LINE"
);
},
{
closed = 1;
nodes = (
"357 1244 OFFCURVE",
"410 1302 OFFCURVE",
"410 1368 CURVE SMOOTH",
"410 1434 OFFCURVE",
"357 1492 OFFCURVE",
"278 1492 CURVE SMOOTH",
"198 1492 OFFCURVE",
"146 1434 OFFCURVE",
"146 1368 CURVE SMOOTH",
"146 1302 OFFCURVE",
"198 1244 OFFCURVE",
"278 1244 CURVE SMOOTH"
);
}
);
userData = {
com.typemytype.robofont.guides = (
{
angle = 90;
isGlobal = 0;
magnetic = 5;
x = -45;
y = 0;
},
{
angle = 90;
isGlobal = 0;
magnetic = 5;
x = 308;
y = 0;
}
);
com.typemytype.robofont.mark = (
0.967,
0.6,
1,
1
);
};
width = 526;
}
);
unicode = 006A;
},
{
glyphname = jdotless;
lastChange = "2021-08-22 04:13:59 +0000";
layers = (
{
anchors = (
{
name = top;
position = "{302, 1700}";
}
);
layerId = master01;
paths = (
{
closed = 1;
nodes = (
"184 1062 LINE",
"184 123 LINE SMOOTH",
"184 -19 OFFCURVE",
"147 -124 OFFCURVE",
"15 -210 CURVE",
"104 -354 LINE",
"298 -248 OFFCURVE",
"366 -83 OFFCURVE",
"366 123 CURVE SMOOTH",
"366 1062 LINE"
);
}
);
userData = {
com.typemytype.robofont.mark = (
0.967,
0.6,
1,
1
);
};
width = 526;
},
{
anchors = (
{
name = top;
position = "{302, 1700}";
}
);
layerId = "AC8F5225-6E8D-48D3-AF8E-295F90E86009";
paths = (
{
closed = 1;
nodes = (
"184 1062 LINE",
"184 123 LINE SMOOTH",
"184 -19 OFFCURVE",
"147 -124 OFFCURVE",
"15 -210 CURVE",
"104 -354 LINE",
"298 -248 OFFCURVE",
"366 -83 OFFCURVE",
"366 123 CURVE SMOOTH",
"366 1062 LINE"
);
}
);
userData = {
com.typemytype.robofont.mark = (
0.967,
0.6,
1,
1
);
};
width = 526;
}
);
unicode = 0237;
},
{
glyphname = k;
lastChange = "2021-08-22 04:13:59 +0000";
layers = (
{
anchors = (
{
name = btm;
position = "{518, -170}";
},
{
name = top;
position = "{518, 1700}";
}
);
layerId = master01;
paths = (
{
closed = 1;
nodes = (
"884 0 LINE",
"470 603 LINE",
"282 559 LINE",
"660 0 LINE"
);
},
{
closed = 1;
nodes = (
"334 0 LINE",
"334 1593 LINE",
"153 1593 LINE",
"153 0 LINE"
);
},
{
closed = 1;
nodes = (
"830 1062 LINE",
"636 1062 LINE",
"316 539 LINE",
"440 433 LINE"
);
}
);
userData = {
com.typemytype.robofont.mark = (
0.967,
0.6,
1,
1
);
};
width = 867;
},
{
anchors = (
{
name = btm;
position = "{518, -170}";
},
{
name = top;
position = "{518, 1700}";
}
);
layerId = "AC8F5225-6E8D-48D3-AF8E-295F90E86009";
paths = (
{
closed = 1;
nodes = (
"884 0 LINE",
"470 603 LINE",
"282 559 LINE",
"660 0 LINE"
);
},
{
closed = 1;
nodes = (
"334 0 LINE",
"334 1593 LINE",
"153 1593 LINE",
"153 0 LINE"
);
},
{
closed = 1;
nodes = (
"830 1062 LINE",
"636 1062 LINE",
"316 539 LINE",
"440 433 LINE"
);
}
);
userData = {
com.typemytype.robofont.mark = (
0.967,
0.6,
1,
1
);
};
width = 867;
}
);
unicode = 006B;
},
{
glyphname = kgreenlandic;
lastChange = "2021-08-22 04:13:59 +0000";
layers = (
{
layerId = master01;
paths = (
{
closed = 1;
nodes = (
"328 1062 LINE",
"150 1062 LINE",
"150 0 LINE",
"328 0 LINE"
);
},
{
closed = 1;
nodes = (
"814 1063 LINE",
"624 1063 LINE",
"310 489 LINE",
"431 383 LINE"
);
},
{
closed = 1;
nodes = (
"461 553 LINE",
"277 509 LINE",
"647 0 LINE",
"867 0 LINE"
);
}
);
width = 940;
},
{
layerId = "AC8F5225-6E8D-48D3-AF8E-295F90E86009";
paths = (
{
closed = 1;
nodes = (
"328 1062 LINE",
"150 1062 LINE",
"150 0 LINE",
"328 0 LINE"
);
},
{
closed = 1;
nodes = (
"814 1063 LINE",
"624 1063 LINE",
"310 489 LINE",
"431 383 LINE"
);
},
{
closed = 1;
nodes = (
"461 553 LINE",
"277 509 LINE",
"647 0 LINE",
"867 0 LINE"
);
}
);
width = 940;
}
);
unicode = 0138;
},
{
glyphname = l;
lastChange = "2021-08-22 04:13:59 +0000";
layers = (
{
anchors = (
{
name = bottom;
position = "{263, 0}";
},
{
name = btm;
position = "{263, -170}";
},
{
name = center;
position = "{263, 1010}";
},
{
name = top;
position = "{263, 1700}";
},
{
name = topright;
position = "{505, 2020}";
}
);
layerId = master01;
paths = (
{
closed = 1;
nodes = (
"353 0 LINE",
"353 1593 LINE",
"172 1593 LINE",
"172 0 LINE"
);
}
);
userData = {
com.typemytype.robofont.mark = (
0.967,
0.6,
1,
1
);
};
width = 525;
},
{
anchors = (
{
name = bottom;
position = "{263, 0}";
},
{
name = btm;
position = "{263, -170}";
},
{
name = center;
position = "{263, 1010}";
},
{
name = top;
position = "{263, 1700}";
},
{
name = topright;
position = "{505, 2020}";
}
);
layerId = "AC8F5225-6E8D-48D3-AF8E-295F90E86009";
paths = (
{
closed = 1;
nodes = (
"353 0 LINE",
"353 1593 LINE",
"172 1593 LINE",
"172 0 LINE"
);
}
);
userData = {
com.typemytype.robofont.mark = (
0.967,
0.6,
1,
1
);
};
width = 525;
}
);
unicode = 006C;
},
{
glyphname = lcaron;
lastChange = "2021-08-22 04:13:59 +0000";
layers = (
{
components = (
{
name = l;
transform = "{1, 0, 0, 1, -24, 0}";
}
);
layerId = master01;
paths = (
{
closed = 1;
nodes = (
"745 1537 OFFCURVE",
"676 1594 OFFCURVE",
"598 1594 CURVE SMOOTH",
"514 1594 OFFCURVE",
"468 1531 OFFCURVE",
"468 1460 CURVE SMOOTH",
"468 1393 OFFCURVE",
"508 1334 OFFCURVE",
"584 1328 CURVE",
"569 1274 OFFCURVE",
"546 1181 OFFCURVE",
"499 1128 CURVE",
"587 1063 LINE",
"710 1201 OFFCURVE",
"745 1321 OFFCURVE",
"745 1425 CURVE SMOOTH"
);
}
);
width = 740;
},
{
components = (
{
name = l;
transform = "{1, 0, 0, 1, -24, 0}";
}
);
layerId = "AC8F5225-6E8D-48D3-AF8E-295F90E86009";
paths = (
{
closed = 1;
nodes = (
"745 1537 OFFCURVE",
"676 1594 OFFCURVE",
"598 1594 CURVE SMOOTH",
"514 1594 OFFCURVE",
"468 1531 OFFCURVE",
"468 1460 CURVE SMOOTH",
"468 1393 OFFCURVE",
"508 1334 OFFCURVE",
"584 1328 CURVE",
"569 1274 OFFCURVE",
"546 1181 OFFCURVE",
"499 1128 CURVE",
"587 1063 LINE",
"710 1201 OFFCURVE",
"745 1321 OFFCURVE",
"745 1425 CURVE SMOOTH"
);
}
);
width = 740;
}
);
unicode = 013E;
},
{
glyphname = lslash;
lastChange = "2021-08-22 04:13:59 +0000";
layers = (
{
components = (
{
name = l;
transform = "{1, 0, 0, 1, -19, 0}";
}
);
layerId = master01;
paths = (
{
closed = 1;
nodes = (
"555 941 LINE",
"462 1081 LINE",
"-48 740 LINE",
"45 600 LINE"
);
}
);
width = 479;
},
{
components = (
{
name = l;
transform = "{1, 0, 0, 1, -19, 0}";
}
);
layerId = "AC8F5225-6E8D-48D3-AF8E-295F90E86009";
paths = (
{
closed = 1;
nodes = (
"555 941 LINE",
"462 1081 LINE",
"-48 740 LINE",
"45 600 LINE"
);
}
);
width = 479;
}
);
unicode = 0142;
},
{
glyphname = m;
lastChange = "2021-08-22 04:13:59 +0000";
layers = (
{
anchors = (
{
name = bottom;
position = "{774, 0}";
},
{
name = btm;
position = "{774, -170}";
},
{
name = top;
position = "{774, 1700}";
}
);
layerId = master01;
paths = (
{
closed = 1;
nodes = (
"1403 0 LINE",
"1403 688 LINE SMOOTH",
"1403 939 OFFCURVE",
"1291 1078 OFFCURVE",
"1075 1078 CURVE SMOOTH",
"963 1078 OFFCURVE",
"836 997 OFFCURVE",
"789 914 CURVE",
"824 751 LINE",
"879 858 OFFCURVE",
"974 897 OFFCURVE",
"1054 897 CURVE SMOOTH",
"1165 897 OFFCURVE",
"1222 822 OFFCURVE",
"1222 686 CURVE SMOOTH",
"1222 0 LINE"
);
},
{
closed = 1;
nodes = (
"341 0 LINE",
"341 954 LINE",
"276 1081 LINE",
"160 1081 LINE",
"160 0 LINE"
);
},
{
closed = 1;
nodes = (
"872 0 LINE",
"872 890 LINE",
"840 888 LINE",
"793 1012 OFFCURVE",
"693 1078 OFFCURVE",
"543 1078 CURVE SMOOTH",
"431 1078 OFFCURVE",
"305 997 OFFCURVE",
"258 914 CURVE",
"292 751 LINE",
"348 858 OFFCURVE",
"442 897 OFFCURVE",
"523 897 CURVE SMOOTH",
"633 897 OFFCURVE",
"690 822 OFFCURVE",
"690 686 CURVE SMOOTH",
"690 0 LINE"
);
}
);
userData = {
com.typemytype.robofont.mark = (
0.967,
0.6,
1,
1
);
};
width = 1548;
},
{
anchors = (
{
name = bottom;
position = "{774, 0}";
},
{
name = btm;
position = "{774, -170}";
},
{
name = top;
position = "{774, 1700}";
}
);
layerId = "AC8F5225-6E8D-48D3-AF8E-295F90E86009";
paths = (
{
closed = 1;
nodes = (
"1403 0 LINE",
"1403 688 LINE SMOOTH",
"1403 939 OFFCURVE",
"1291 1078 OFFCURVE",
"1075 1078 CURVE SMOOTH",
"963 1078 OFFCURVE",
"836 997 OFFCURVE",
"789 914 CURVE",
"824 751 LINE",
"879 858 OFFCURVE",
"974 897 OFFCURVE",
"1054 897 CURVE SMOOTH",
"1165 897 OFFCURVE",
"1222 822 OFFCURVE",
"1222 686 CURVE SMOOTH",
"1222 0 LINE"
);
},
{
closed = 1;
nodes = (
"341 0 LINE",
"341 954 LINE",
"276 1081 LINE",
"160 1081 LINE",
"160 0 LINE"
);
},
{
closed = 1;
nodes = (
"872 0 LINE",
"872 890 LINE",
"840 888 LINE",
"793 1012 OFFCURVE",
"693 1078 OFFCURVE",
"543 1078 CURVE SMOOTH",
"431 1078 OFFCURVE",
"305 997 OFFCURVE",
"258 914 CURVE",
"292 751 LINE",
"348 858 OFFCURVE",
"442 897 OFFCURVE",
"523 897 CURVE SMOOTH",
"633 897 OFFCURVE",
"690 822 OFFCURVE",
"690 686 CURVE SMOOTH",
"690 0 LINE"
);
}
);
userData = {
com.typemytype.robofont.mark = (
0.967,
0.6,
1,
1
);
};
width = 1548;
}
);
unicode = 006D;
},
{
color = 4;
glyphname = n;
lastChange = "2021-08-29 04:32:45 +0000";
layers = (
{
anchors = (
{
name = bottom;
position = "{454, 0}";
},
{
name = btm;
position = "{454, -170}";
},
{
name = top;
position = "{454, 1700}";
}
);
layerId = master01;
paths = (
{
closed = 1;
nodes = (
"822 0 LINE",
"822 688 LINE SMOOTH",
"822 939 OFFCURVE",
"710 1078 OFFCURVE",
"494 1078 CURVE SMOOTH",
"381 1078 OFFCURVE",
"273 1012 OFFCURVE",
"222 917 CURVE",
"243 751 LINE",
"298 858 OFFCURVE",
"393 897 OFFCURVE",
"473 897 CURVE SMOOTH",
"583 897 OFFCURVE",
"640 822 OFFCURVE",
"640 686 CURVE SMOOTH",
"640 0 LINE"
);
},
{
closed = 1;
nodes = (
"281 0 LINE",
"281 954 LINE",
"221 1081 LINE",
"100 1081 LINE",
"100 0 LINE"
);
}
);
userData = {
com.typemytype.robofont.mark = (
0.967,
0.6,
1,
1
);
};
width = 907;
},
{
anchors = (
{
name = bottom;
position = "{450, 0}";
},
{
name = btm;
position = "{450, -170}";
},
{
name = top;
position = "{450, 1700}";
}
);
layerId = "AC8F5225-6E8D-48D3-AF8E-295F90E86009";
paths = (
{
closed = 1;
nodes = (
"856 0 LINE",
"856 718 LINE SMOOTH",
"856 939 OFFCURVE",
"744 1078 OFFCURVE",
"558 1078 CURVE SMOOTH",
"379 1078 OFFCURVE",
"306 972 OFFCURVE",
"288 918 CURVE",
"288 720 LINE",
"324 791 OFFCURVE",
"379 828 OFFCURVE",
"465 828 CURVE SMOOTH",
"562 828 OFFCURVE",
"591 753 OFFCURVE",
"591 617 CURVE SMOOTH",
"591 0 LINE"
);
},
{
closed = 1;
nodes = (
"334 0 LINE",
"334 954 LINE",
"257 1081 LINE",
"75 1081 LINE",
"75 0 LINE"
);
}
);
userData = {
com.typemytype.robofont.mark = (
0.967,
0.6,
1,
1
);
};
width = 924;
}
);
unicode = 006E;
},
{
glyphname = eng;
lastChange = "2021-08-22 04:13:59 +0000";
layers = (
{
layerId = master01;
paths = (
{
closed = 1;
nodes = (
"334 0 LINE",
"334 800 LINE",
"390 866 OFFCURVE",
"462 897 OFFCURVE",
"526 897 CURVE SMOOTH",
"636 897 OFFCURVE",
"693 822 OFFCURVE",
"693 686 CURVE SMOOTH",
"691 123 LINE SMOOTH",
"691 -19 OFFCURVE",
"655 -124 OFFCURVE",
"522 -210 CURVE",
"611 -354 LINE",
"806 -248 OFFCURVE",
"873 -83 OFFCURVE",
"873 123 CURVE SMOOTH",
"875 688 LINE SMOOTH",
"875 939 OFFCURVE",
"763 1078 OFFCURVE",
"547 1078 CURVE SMOOTH",
"461 1078 OFFCURVE",
"367 1032 OFFCURVE",
"306 974 CURVE",
"153 1081 LINE",
"153 0 LINE"
);
}
);
width = 1027;
},
{
layerId = "AC8F5225-6E8D-48D3-AF8E-295F90E86009";
paths = (
{
closed = 1;
nodes = (
"334 0 LINE",
"334 800 LINE",
"390 866 OFFCURVE",
"462 897 OFFCURVE",
"526 897 CURVE SMOOTH",
"636 897 OFFCURVE",
"693 822 OFFCURVE",
"693 686 CURVE SMOOTH",
"691 123 LINE SMOOTH",
"691 -19 OFFCURVE",
"655 -124 OFFCURVE",
"522 -210 CURVE",
"611 -354 LINE",
"806 -248 OFFCURVE",
"873 -83 OFFCURVE",
"873 123 CURVE SMOOTH",
"875 688 LINE SMOOTH",
"875 939 OFFCURVE",
"763 1078 OFFCURVE",
"547 1078 CURVE SMOOTH",
"461 1078 OFFCURVE",
"367 1032 OFFCURVE",
"306 974 CURVE",
"153 1081 LINE",
"153 0 LINE"
);
}
);
width = 1027;
}
);
unicode = 014B;
},
{
glyphname = o;
lastChange = "2021-08-29 04:35:57 +0000";
layers = (
{
anchors = (
{
name = bottom;
position = "{462, 0}";
},
{
name = btm;
position = "{461, -170}";
},
{
name = center;
position = "{462, 531}";
},
{
name = ogonek;
position = "{597, 10}";
},
{
name = top;
position = "{461, 1700}";
},
{
name = topright;
position = "{926, 1062}";
}
);
layerId = master01;
paths = (
{
closed = 1;
nodes = (
"686 -19 OFFCURVE",
"853 163 OFFCURVE",
"853 531 CURVE SMOOTH",
"853 899 OFFCURVE",
"686 1081 OFFCURVE",
"461 1081 CURVE SMOOTH",
"236 1081 OFFCURVE",
"70 899 OFFCURVE",
"70 531 CURVE SMOOTH",
"70 163 OFFCURVE",
"236 -19 OFFCURVE",
"461 -19 CURVE SMOOTH"
);
},
{
closed = 1;
nodes = (
"354 156 OFFCURVE",
"259 243 OFFCURVE",
"259 531 CURVE SMOOTH",
"259 819 OFFCURVE",
"354 906 OFFCURVE",
"461 906 CURVE SMOOTH",
"568 906 OFFCURVE",
"663 819 OFFCURVE",
"663 531 CURVE SMOOTH",
"663 243 OFFCURVE",
"568 156 OFFCURVE",
"461 156 CURVE SMOOTH"
);
}
);
userData = {
com.typemytype.robofont.guides = (
{
angle = 90;
isGlobal = 0;
magnetic = 5;
x = 484;
y = 0;
}
);
com.typemytype.robofont.mark = (
0.967,
0.6,
1,
1
);
};
width = 923;
},
{
anchors = (
{
name = bottom;
position = "{482, 0}";
},
{
name = btm;
position = "{481, -170}";
},
{
name = center;
position = "{482, 531}";
},
{
name = ogonek;
position = "{617, 10}";
},
{
name = top;
position = "{481, 1700}";
},
{
name = topright;
position = "{946, 1062}";
}
);
layerId = "AC8F5225-6E8D-48D3-AF8E-295F90E86009";
paths = (
{
closed = 1;
nodes = (
"720 -24 OFFCURVE",
"897 159 OFFCURVE",
"897 531 CURVE SMOOTH",
"897 903 OFFCURVE",
"720 1086 OFFCURVE",
"481 1086 CURVE SMOOTH",
"242 1086 OFFCURVE",
"66 903 OFFCURVE",
"66 531 CURVE SMOOTH",
"66 159 OFFCURVE",
"242 -24 OFFCURVE",
"481 -24 CURVE SMOOTH"
);
},
{
closed = 1;
nodes = (
"398 231 OFFCURVE",
"324 296 OFFCURVE",
"324 531 CURVE SMOOTH",
"324 766 OFFCURVE",
"398 829 OFFCURVE",
"481 829 CURVE SMOOTH",
"564 829 OFFCURVE",
"638 766 OFFCURVE",
"638 531 CURVE SMOOTH",
"638 296 OFFCURVE",
"564 231 OFFCURVE",
"481 231 CURVE SMOOTH"
);
}
);
userData = {
com.typemytype.robofont.guides = (
{
angle = 90;
isGlobal = 0;
magnetic = 5;
x = 484;
y = 0;
}
);
com.typemytype.robofont.mark = (
0.967,
0.6,
1,
1
);
};
width = 963;
}
);
rightMetricsKey = "=|";
unicode = 006F;
},
{
glyphname = oslash;
lastChange = "2021-08-22 04:13:59 +0000";
layers = (
{
components = (
{
name = o;
}
);
layerId = master01;
paths = (
{
closed = 1;
nodes = (
"774 1181 LINE",
"627 1236 LINE",
"532 963 LINE",
"668 874 LINE"
);
},
{
closed = 1;
nodes = (
"393 84 LINE",
"259 175 LINE",
"156 -121 LINE",
"303 -176 LINE"
);
}
);
width = 950;
},
{
components = (
{
name = o;
}
);
layerId = "AC8F5225-6E8D-48D3-AF8E-295F90E86009";
paths = (
{
closed = 1;
nodes = (
"774 1181 LINE",
"627 1236 LINE",
"532 963 LINE",
"668 874 LINE"
);
},
{
closed = 1;
nodes = (
"393 84 LINE",
"259 175 LINE",
"156 -121 LINE",
"303 -176 LINE"
);
}
);
width = 950;
}
);
unicode = 00F8;
},
{
glyphname = oe;
lastChange = "2021-08-22 04:13:59 +0000";
layers = (
{
layerId = master01;
paths = (
{
closed = 1;
nodes = (
"687 -19 OFFCURVE",
"871 163 OFFCURVE",
"871 531 CURVE SMOOTH",
"871 899 OFFCURVE",
"687 1081 OFFCURVE",
"484 1081 CURVE SMOOTH",
"281 1081 OFFCURVE",
"93 899 OFFCURVE",
"93 531 CURVE SMOOTH",
"93 163 OFFCURVE",
"281 -19 OFFCURVE",
"484 -19 CURVE SMOOTH"
);
},
{
closed = 1;
nodes = (
"387 156 OFFCURVE",
"282 253 OFFCURVE",
"282 531 CURVE SMOOTH",
"282 809 OFFCURVE",
"387 906 OFFCURVE",
"484 906 CURVE SMOOTH",
"581 906 OFFCURVE",
"686 809 OFFCURVE",
"686 531 CURVE SMOOTH",
"686 253 OFFCURVE",
"581 156 OFFCURVE",
"484 156 CURVE"
);
},
{
closed = 1;
nodes = (
"1177 -19 OFFCURVE",
"1285 13 OFFCURVE",
"1347 53 CURVE",
"1278 205 LINE",
"1248 181 OFFCURVE",
"1172 150 OFFCURVE",
"1121 150 CURVE SMOOTH",
"1001 150 OFFCURVE",
"870 244 OFFCURVE",
"870 533 CURVE",
"870 781 OFFCURVE",
"959 906 OFFCURVE",
"1060 906 CURVE SMOOTH",
"1148 906 OFFCURVE",
"1208 850 OFFCURVE",
"1195 623 CURVE",
"840 623 LINE",
"840 456 LINE",
"1363 455 LINE",
"1431 833 OFFCURVE",
"1307 1079 OFFCURVE",
"1072 1079 CURVE SMOOTH",
"870 1079 OFFCURVE",
"688 905 OFFCURVE",
"688 527 CURVE SMOOTH",
"688 187 OFFCURVE",
"860 -19 OFFCURVE",
"1099 -19 CURVE SMOOTH"
);
}
);
width = 1479;
},
{
layerId = "AC8F5225-6E8D-48D3-AF8E-295F90E86009";
paths = (
{
closed = 1;
nodes = (
"687 -19 OFFCURVE",
"871 163 OFFCURVE",
"871 531 CURVE SMOOTH",
"871 899 OFFCURVE",
"687 1081 OFFCURVE",
"484 1081 CURVE SMOOTH",
"281 1081 OFFCURVE",
"93 899 OFFCURVE",
"93 531 CURVE SMOOTH",
"93 163 OFFCURVE",
"281 -19 OFFCURVE",
"484 -19 CURVE SMOOTH"
);
},
{
closed = 1;
nodes = (
"387 156 OFFCURVE",
"282 253 OFFCURVE",
"282 531 CURVE SMOOTH",
"282 809 OFFCURVE",
"387 906 OFFCURVE",
"484 906 CURVE SMOOTH",
"581 906 OFFCURVE",
"686 809 OFFCURVE",
"686 531 CURVE SMOOTH",
"686 253 OFFCURVE",
"581 156 OFFCURVE",
"484 156 CURVE"
);
},
{
closed = 1;
nodes = (
"1177 -19 OFFCURVE",
"1285 13 OFFCURVE",
"1347 53 CURVE",
"1278 205 LINE",
"1248 181 OFFCURVE",
"1172 150 OFFCURVE",
"1121 150 CURVE SMOOTH",
"1001 150 OFFCURVE",
"870 244 OFFCURVE",
"870 533 CURVE",
"870 781 OFFCURVE",
"959 906 OFFCURVE",
"1060 906 CURVE SMOOTH",
"1148 906 OFFCURVE",
"1208 850 OFFCURVE",
"1195 623 CURVE",
"840 623 LINE",
"840 456 LINE",
"1363 455 LINE",
"1431 833 OFFCURVE",
"1307 1079 OFFCURVE",
"1072 1079 CURVE SMOOTH",
"870 1079 OFFCURVE",
"688 905 OFFCURVE",
"688 527 CURVE SMOOTH",
"688 187 OFFCURVE",
"860 -19 OFFCURVE",
"1099 -19 CURVE SMOOTH"
);
}
);
width = 1479;
}
);
unicode = 0153;
},
{
glyphname = p;
lastChange = "2021-08-22 04:13:59 +0000";
layers = (
{
anchors = (
{
name = btm;
position = "{511, -170}";
},
{
name = top;
position = "{511, 1700}";
}
);
layerId = master01;
paths = (
{
closed = 1;
nodes = (
"710 -19 OFFCURVE",
"889 156 OFFCURVE",
"889 541 CURVE SMOOTH",
"889 926 OFFCURVE",
"710 1081 OFFCURVE",
"500 1081 CURVE SMOOTH",
"363 1081 OFFCURVE",
"250 992 OFFCURVE",
"206 843 CURVE",
"310 807 LINE",
"348 874 OFFCURVE",
"413 913 OFFCURVE",
"488 913 CURVE SMOOTH",
"599 913 OFFCURVE",
"704 839 OFFCURVE",
"704 541 CURVE SMOOTH",
"704 243 OFFCURVE",
"599 149 OFFCURVE",
"488 149 CURVE SMOOTH",
"413 149 OFFCURVE",
"348 188 OFFCURVE",
"310 255 CURVE",
"206 219 LINE",
"250 70 OFFCURVE",
"363 -19 OFFCURVE",
"500 -19 CURVE SMOOTH"
);
},
{
closed = 1;
nodes = (
"334 -354 LINE",
"334 925 LINE",
"273 1082 LINE",
"153 1082 LINE",
"153 -354 LINE"
);
}
);
userData = {
com.typemytype.robofont.mark = (
0.967,
0.6,
1,
1
);
};
width = 975;
},
{
anchors = (
{
name = btm;
position = "{511, -170}";
},
{
name = top;
position = "{511, 1700}";
}
);
layerId = "AC8F5225-6E8D-48D3-AF8E-295F90E86009";
paths = (
{
closed = 1;
nodes = (
"710 -19 OFFCURVE",
"889 156 OFFCURVE",
"889 541 CURVE SMOOTH",
"889 926 OFFCURVE",
"710 1081 OFFCURVE",
"500 1081 CURVE SMOOTH",
"363 1081 OFFCURVE",
"250 992 OFFCURVE",
"206 843 CURVE",
"310 807 LINE",
"348 874 OFFCURVE",
"413 913 OFFCURVE",
"488 913 CURVE SMOOTH",
"599 913 OFFCURVE",
"704 839 OFFCURVE",
"704 541 CURVE SMOOTH",
"704 243 OFFCURVE",
"599 149 OFFCURVE",
"488 149 CURVE SMOOTH",
"413 149 OFFCURVE",
"348 188 OFFCURVE",
"310 255 CURVE",
"206 219 LINE",
"250 70 OFFCURVE",
"363 -19 OFFCURVE",
"500 -19 CURVE SMOOTH"
);
},
{
closed = 1;
nodes = (
"334 -354 LINE",
"334 925 LINE",
"273 1082 LINE",
"153 1082 LINE",
"153 -354 LINE"
);
}
);
userData = {
com.typemytype.robofont.mark = (
0.967,
0.6,
1,
1
);
};
width = 975;
}
);
unicode = 0070;
},
{
glyphname = thorn;
lastChange = "2021-08-22 04:13:59 +0000";
layers = (
{
components = (
{
name = p;
transform = "{1, 0, 0, 1, 14, 0}";
}
);
layerId = master01;
paths = (
{
closed = 1;
nodes = (
"348 -354 LINE",
"348 1593 LINE",
"167 1593 LINE",
"167 -354 LINE"
);
}
);
width = 989;
},
{
components = (
{
name = p;
transform = "{1, 0, 0, 1, 14, 0}";
}
);
layerId = "AC8F5225-6E8D-48D3-AF8E-295F90E86009";
paths = (
{
closed = 1;
nodes = (
"348 -354 LINE",
"348 1593 LINE",
"167 1593 LINE",
"167 -354 LINE"
);
}
);
width = 989;
}
);
unicode = 00FE;
},
{
glyphname = q;
lastChange = "2021-08-22 04:13:59 +0000";
layers = (
{
anchors = (
{
name = btm;
position = "{461, -170}";
},
{
name = top;
position = "{461, 1700}";
}
);
layerId = master01;
paths = (
{
closed = 1;
nodes = (
"633 -19 OFFCURVE",
"746 70 OFFCURVE",
"790 219 CURVE",
"686 255 LINE",
"648 188 OFFCURVE",
"583 149 OFFCURVE",
"508 149 CURVE SMOOTH",
"397 149 OFFCURVE",
"292 223 OFFCURVE",
"292 521 CURVE SMOOTH",
"292 819 OFFCURVE",
"397 913 OFFCURVE",
"508 913 CURVE SMOOTH",
"583 913 OFFCURVE",
"648 874 OFFCURVE",
"686 807 CURVE",
"790 843 LINE",
"746 992 OFFCURVE",
"633 1081 OFFCURVE",
"496 1081 CURVE SMOOTH",
"285 1081 OFFCURVE",
"107 906 OFFCURVE",
"107 521 CURVE SMOOTH",
"107 136 OFFCURVE",
"285 -19 OFFCURVE",
"496 -19 CURVE SMOOTH"
);
},
{
closed = 1;
nodes = (
"816 -354 LINE",
"816 1082 LINE",
"703 1081 LINE",
"634 985 LINE",
"634 -354 LINE"
);
}
);
userData = {
com.typemytype.robofont.mark = (
0.967,
0.6,
1,
1
);
};
width = 969;
},
{
anchors = (
{
name = btm;
position = "{461, -170}";
},
{
name = top;
position = "{461, 1700}";
}
);
layerId = "AC8F5225-6E8D-48D3-AF8E-295F90E86009";
paths = (
{
closed = 1;
nodes = (
"633 -19 OFFCURVE",
"746 70 OFFCURVE",
"790 219 CURVE",
"686 255 LINE",
"648 188 OFFCURVE",
"583 149 OFFCURVE",
"508 149 CURVE SMOOTH",
"397 149 OFFCURVE",
"292 223 OFFCURVE",
"292 521 CURVE SMOOTH",
"292 819 OFFCURVE",
"397 913 OFFCURVE",
"508 913 CURVE SMOOTH",
"583 913 OFFCURVE",
"648 874 OFFCURVE",
"686 807 CURVE",
"790 843 LINE",
"746 992 OFFCURVE",
"633 1081 OFFCURVE",
"496 1081 CURVE SMOOTH",
"285 1081 OFFCURVE",
"107 906 OFFCURVE",
"107 521 CURVE SMOOTH",
"107 136 OFFCURVE",
"285 -19 OFFCURVE",
"496 -19 CURVE SMOOTH"
);
},
{
closed = 1;
nodes = (
"816 -354 LINE",
"816 1082 LINE",
"703 1081 LINE",
"634 985 LINE",
"634 -354 LINE"
);
}
);
userData = {
com.typemytype.robofont.mark = (
0.967,
0.6,
1,
1
);
};
width = 969;
}
);
unicode = 0071;
},
{
glyphname = r;
lastChange = "2021-08-22 04:13:59 +0000";
layers = (
{
anchors = (
{
name = btm;
position = "{250, -170}";
},
{
name = top;
position = "{372, 1700}";
}
);
layerId = master01;
paths = (
{
closed = 1;
nodes = (
"340 0 LINE",
"340 874 LINE",
"270 1081 LINE",
"153 1081 LINE",
"153 0 LINE"
);
},
{
closed = 1;
nodes = (
"320 826 OFFCURVE",
"427 883 OFFCURVE",
"593 883 CURVE",
"593 1079 LINE",
"470 1079 OFFCURVE",
"353 1022 OFFCURVE",
"261 937 CURVE",
"261 739 LINE"
);
}
);
userData = {
com.typemytype.robofont.mark = (
0.967,
0.6,
1,
1
);
};
width = 654;
},
{
anchors = (
{
name = btm;
position = "{250, -170}";
},
{
name = top;
position = "{372, 1700}";
}
);
layerId = "AC8F5225-6E8D-48D3-AF8E-295F90E86009";
paths = (
{
closed = 1;
nodes = (
"340 0 LINE",
"340 874 LINE",
"270 1081 LINE",
"153 1081 LINE",
"153 0 LINE"
);
},
{
closed = 1;
nodes = (
"320 826 OFFCURVE",
"427 883 OFFCURVE",
"593 883 CURVE",
"593 1079 LINE",
"470 1079 OFFCURVE",
"353 1022 OFFCURVE",
"261 937 CURVE",
"261 739 LINE"
);
}
);
userData = {
com.typemytype.robofont.mark = (
0.967,
0.6,
1,
1
);
};
width = 654;
}
);
unicode = 0072;
},
{
glyphname = s;
lastChange = "2021-08-22 04:13:59 +0000";
layers = (
{
anchors = (
{
name = bottom;
position = "{390, 0}";
},
{
name = btm;
position = "{410, -170}";
},
{
name = top;
position = "{392, 1700}";
}
);
layerId = master01;
paths = (
{
closed = 1;
nodes = (
"551 -18 OFFCURVE",
"691 107 OFFCURVE",
"691 272 CURVE SMOOTH",
"691 393 OFFCURVE",
"638 485 OFFCURVE",
"496 599 CURVE SMOOTH",
"417 663 LINE SMOOTH",
"342 723 OFFCURVE",
"316 763 OFFCURVE",
"316 808 CURVE SMOOTH",
"316 863 OFFCURVE",
"361 912 OFFCURVE",
"436 912 CURVE SMOOTH",
"489 912 OFFCURVE",
"542 897 OFFCURVE",
"592 861 CURVE",
"668 1027 LINE",
"591 1065 OFFCURVE",
"519 1081 OFFCURVE",
"440 1081 CURVE SMOOTH",
"259 1081 OFFCURVE",
"132 951 OFFCURVE",
"132 802 CURVE SMOOTH",
"132 690 OFFCURVE",
"187 591 OFFCURVE",
"303 504 CURVE SMOOTH",
"372 450 LINE SMOOTH",
"441 396 OFFCURVE",
"505 345 OFFCURVE",
"505 271 CURVE SMOOTH",
"505 200 OFFCURVE",
"449 153 OFFCURVE",
"367 153 CURVE SMOOTH",
"304 153 OFFCURVE",
"236 176 OFFCURVE",
"183 210 CURVE",
"113 53 LINE",
"181 12 OFFCURVE",
"261 -18 OFFCURVE",
"363 -18 CURVE SMOOTH"
);
}
);
userData = {
com.typemytype.robofont.mark = (
0.967,
0.6,
1,
1
);
};
width = 779;
},
{
anchors = (
{
name = bottom;
position = "{390, 0}";
},
{
name = btm;
position = "{410, -170}";
},
{
name = top;
position = "{392, 1700}";
}
);
layerId = "AC8F5225-6E8D-48D3-AF8E-295F90E86009";
paths = (
{
closed = 1;
nodes = (
"551 -18 OFFCURVE",
"691 107 OFFCURVE",
"691 272 CURVE SMOOTH",
"691 393 OFFCURVE",
"638 485 OFFCURVE",
"496 599 CURVE SMOOTH",
"417 663 LINE SMOOTH",
"342 723 OFFCURVE",
"316 763 OFFCURVE",
"316 808 CURVE SMOOTH",
"316 863 OFFCURVE",
"361 912 OFFCURVE",
"436 912 CURVE SMOOTH",
"489 912 OFFCURVE",
"542 897 OFFCURVE",
"592 861 CURVE",
"668 1027 LINE",
"591 1065 OFFCURVE",
"519 1081 OFFCURVE",
"440 1081 CURVE SMOOTH",
"259 1081 OFFCURVE",
"132 951 OFFCURVE",
"132 802 CURVE SMOOTH",
"132 690 OFFCURVE",
"187 591 OFFCURVE",
"303 504 CURVE SMOOTH",
"372 450 LINE SMOOTH",
"441 396 OFFCURVE",
"505 345 OFFCURVE",
"505 271 CURVE SMOOTH",
"505 200 OFFCURVE",
"449 153 OFFCURVE",
"367 153 CURVE SMOOTH",
"304 153 OFFCURVE",
"236 176 OFFCURVE",
"183 210 CURVE",
"113 53 LINE",
"181 12 OFFCURVE",
"261 -18 OFFCURVE",
"363 -18 CURVE SMOOTH"
);
}
);
userData = {
com.typemytype.robofont.mark = (
0.967,
0.6,
1,
1
);
};
width = 779;
}
);
unicode = 0073;
},
{
glyphname = germandbls;
lastChange = "2021-08-22 04:13:59 +0000";
layers = (
{
layerId = master01;
paths = (
{
closed = 1;
nodes = (
"867 -18 OFFCURVE",
"1007 107 OFFCURVE",
"1007 296 CURVE SMOOTH",
"1007 584 OFFCURVE",
"684 669 OFFCURVE",
"684 849 CURVE SMOOTH",
"684 988 OFFCURVE",
"877 1101 OFFCURVE",
"877 1313 CURVE SMOOTH",
"877 1482 OFFCURVE",
"738 1612 OFFCURVE",
"551 1612 CURVE SMOOTH",
"328 1612 OFFCURVE",
"153 1448 OFFCURVE",
"153 1139 CURVE SMOOTH",
"153 0 LINE",
"338 0 LINE",
"338 1155 LINE SMOOTH",
"338 1359 OFFCURVE",
"437 1455 OFFCURVE",
"556 1446 CURVE SMOOTH",
"635 1440 OFFCURVE",
"698 1386 OFFCURVE",
"698 1307 CURVE SMOOTH",
"698 1163 OFFCURVE",
"488 1014 OFFCURVE",
"488 818 CURVE SMOOTH",
"488 575 OFFCURVE",
"813 485 OFFCURVE",
"813 287 CURVE SMOOTH",
"813 196 OFFCURVE",
"744 156 OFFCURVE",
"676 156 CURVE SMOOTH",
"630 156 OFFCURVE",
"578 176 OFFCURVE",
"517 209 CURVE",
"440 43 LINE",
"502 8 OFFCURVE",
"577 -18 OFFCURVE",
"667 -18 CURVE SMOOTH"
);
},
{
closed = 1;
nodes = (
"288 894 LINE",
"288 1062 LINE",
"64 1062 LINE",
"64 894 LINE"
);
}
);
userData = {
com.typemytype.robofont.guides = (
{
angle = 0;
isGlobal = 0;
magnetic = 5;
x = 0;
y = 1297;
}
);
com.typemytype.robofont.mark = (
0.967,
0.6,
1,
1
);
};
width = 1063;
},
{
layerId = "AC8F5225-6E8D-48D3-AF8E-295F90E86009";
paths = (
{
closed = 1;
nodes = (
"867 -18 OFFCURVE",
"1007 107 OFFCURVE",
"1007 296 CURVE SMOOTH",
"1007 584 OFFCURVE",
"684 669 OFFCURVE",
"684 849 CURVE SMOOTH",
"684 988 OFFCURVE",
"877 1101 OFFCURVE",
"877 1313 CURVE SMOOTH",
"877 1482 OFFCURVE",
"738 1612 OFFCURVE",
"551 1612 CURVE SMOOTH",
"328 1612 OFFCURVE",
"153 1448 OFFCURVE",
"153 1139 CURVE SMOOTH",
"153 0 LINE",
"338 0 LINE",
"338 1155 LINE SMOOTH",
"338 1359 OFFCURVE",
"437 1455 OFFCURVE",
"556 1446 CURVE SMOOTH",
"635 1440 OFFCURVE",
"698 1386 OFFCURVE",
"698 1307 CURVE SMOOTH",
"698 1163 OFFCURVE",
"488 1014 OFFCURVE",
"488 818 CURVE SMOOTH",
"488 575 OFFCURVE",
"813 485 OFFCURVE",
"813 287 CURVE SMOOTH",
"813 196 OFFCURVE",
"744 156 OFFCURVE",
"676 156 CURVE SMOOTH",
"630 156 OFFCURVE",
"578 176 OFFCURVE",
"517 209 CURVE",
"440 43 LINE",
"502 8 OFFCURVE",
"577 -18 OFFCURVE",
"667 -18 CURVE SMOOTH"
);
},
{
closed = 1;
nodes = (
"288 894 LINE",
"288 1062 LINE",
"64 1062 LINE",
"64 894 LINE"
);
}
);
userData = {
com.typemytype.robofont.guides = (
{
angle = 0;
isGlobal = 0;
magnetic = 5;
x = 0;
y = 1297;
}
);
com.typemytype.robofont.mark = (
0.967,
0.6,
1,
1
);
};
width = 1063;
}
);
unicode = 00DF;
},
{
glyphname = t;
lastChange = "2021-08-22 04:13:59 +0000";
layers = (
{
anchors = (
{
name = btm;
position = "{396, -170}";
},
{
name = top;
position = "{268, 1941}";
}
);
layerId = master01;
paths = (
{
closed = 1;
nodes = (
"550 160 LINE",
"381 153 OFFCURVE",
"362 220 OFFCURVE",
"362 320 CURVE SMOOTH",
"362 1416 LINE",
"181 1416 LINE",
"181 322 LINE SMOOTH",
"181 99 OFFCURVE",
"264 -20 OFFCURVE",
"550 -18 CURVE"
);
},
{
closed = 1;
nodes = (
"535 894 LINE",
"535 1062 LINE",
"100 1062 LINE",
"100 894 LINE"
);
}
);
userData = {
com.typemytype.robofont.guides = (
{
angle = 90;
isGlobal = 0;
magnetic = 5;
x = 535;
y = 0;
}
);
com.typemytype.robofont.mark = (
0.967,
0.6,
1,
1
);
};
width = 625;
},
{
anchors = (
{
name = btm;
position = "{396, -170}";
},
{
name = top;
position = "{268, 1941}";
}
);
layerId = "AC8F5225-6E8D-48D3-AF8E-295F90E86009";
paths = (
{
closed = 1;
nodes = (
"550 160 LINE",
"381 153 OFFCURVE",
"362 220 OFFCURVE",
"362 320 CURVE SMOOTH",
"362 1416 LINE",
"181 1416 LINE",
"181 322 LINE SMOOTH",
"181 99 OFFCURVE",
"264 -20 OFFCURVE",
"550 -18 CURVE"
);
},
{
closed = 1;
nodes = (
"535 894 LINE",
"535 1062 LINE",
"100 1062 LINE",
"100 894 LINE"
);
}
);
userData = {
com.typemytype.robofont.guides = (
{
angle = 90;
isGlobal = 0;
magnetic = 5;
x = 535;
y = 0;
}
);
com.typemytype.robofont.mark = (
0.967,
0.6,
1,
1
);
};
width = 625;
}
);
unicode = 0074;
},
{
glyphname = tbar;
lastChange = "2021-08-22 04:13:59 +0000";
layers = (
{
components = (
{
name = t;
}
);
layerId = master01;
paths = (
{
closed = 1;
nodes = (
"525 681 LINE",
"98 681 LINE",
"98 513 LINE",
"525 513 LINE"
);
}
);
width = 633;
},
{
components = (
{
name = t;
}
);
layerId = "AC8F5225-6E8D-48D3-AF8E-295F90E86009";
paths = (
{
closed = 1;
nodes = (
"525 681 LINE",
"98 681 LINE",
"98 513 LINE",
"525 513 LINE"
);
}
);
width = 633;
}
);
unicode = 0167;
},
{
glyphname = u;
lastChange = "2021-08-22 04:13:59 +0000";
layers = (
{
anchors = (
{
name = btm;
position = "{505, -170}";
},
{
name = top;
position = "{505, 1700}";
}
);
layerId = master01;
paths = (
{
closed = 1;
nodes = (
"591 -18 OFFCURVE",
"701 61 OFFCURVE",
"754 146 CURVE",
"710 305 LINE",
"676 220 OFFCURVE",
"601 161 OFFCURVE",
"501 161 CURVE SMOOTH",
"391 161 OFFCURVE",
"334 207 OFFCURVE",
"334 347 CURVE SMOOTH",
"334 1062 LINE",
"153 1062 LINE",
"153 327 LINE SMOOTH",
"153 102 OFFCURVE",
"289 -18 OFFCURVE",
"458 -18 CURVE SMOOTH"
);
},
{
closed = 1;
nodes = (
"858 -20 LINE",
"858 1062 LINE",
"676 1062 LINE",
"676 127 LINE",
"745 -20 LINE"
);
}
);
userData = {
com.typemytype.robofont.guides = (
{
angle = 90;
isGlobal = 0;
magnetic = 5;
x = 485;
y = 0;
}
);
com.typemytype.robofont.mark = (
0.967,
0.6,
1,
1
);
};
width = 1011;
},
{
anchors = (
{
name = btm;
position = "{505, -170}";
},
{
name = top;
position = "{505, 1700}";
}
);
layerId = "AC8F5225-6E8D-48D3-AF8E-295F90E86009";
paths = (
{
closed = 1;
nodes = (
"591 -18 OFFCURVE",
"701 61 OFFCURVE",
"754 146 CURVE",
"710 305 LINE",
"676 220 OFFCURVE",
"601 161 OFFCURVE",
"501 161 CURVE SMOOTH",
"391 161 OFFCURVE",
"334 207 OFFCURVE",
"334 347 CURVE SMOOTH",
"334 1062 LINE",
"153 1062 LINE",
"153 327 LINE SMOOTH",
"153 102 OFFCURVE",
"289 -18 OFFCURVE",
"458 -18 CURVE SMOOTH"
);
},
{
closed = 1;
nodes = (
"858 -20 LINE",
"858 1062 LINE",
"676 1062 LINE",
"676 127 LINE",
"745 -20 LINE"
);
}
);
userData = {
com.typemytype.robofont.guides = (
{
angle = 90;
isGlobal = 0;
magnetic = 5;
x = 485;
y = 0;
}
);
com.typemytype.robofont.mark = (
0.967,
0.6,
1,
1
);
};
width = 1011;
}
);
unicode = 0075;
},
{
glyphname = uogonek;
lastChange = "2021-08-22 04:13:59 +0000";
layers = (
{
layerId = master01;
paths = (
{
closed = 1;
nodes = (
"676 1062 LINE",
"676 107 LINE",
"858 -19 LINE",
"858 1062 LINE"
);
},
{
closed = 1;
nodes = (
"676 230 OFFCURVE",
"615 161 OFFCURVE",
"501 161 CURVE SMOOTH",
"391 161 OFFCURVE",
"334 230 OFFCURVE",
"334 370 CURVE SMOOTH",
"334 1062 LINE",
"153 1062 LINE",
"153 327 LINE SMOOTH",
"153 102 OFFCURVE",
"289 -19 OFFCURVE",
"458 -19 CURVE SMOOTH",
"616 -19 OFFCURVE",
"734 131 OFFCURVE",
"788 190 CURVE",
"710 315 LINE"
);
},
{
closed = 1;
nodes = (
"732 -376 OFFCURVE",
"671 -316 OFFCURVE",
"661 -255 CURVE SMOOTH",
"640 -132 OFFCURVE",
"776 -44 OFFCURVE",
"858 -19 CURVE",
"805 67 LINE",
"773 54 LINE",
"525 -44 OFFCURVE",
"437 -170 OFFCURVE",
"463 -308 CURVE SMOOTH",
"492 -464 OFFCURVE",
"648 -534 OFFCURVE",
"856 -506 CURVE",
"857 -365 LINE"
);
}
);
width = 1011;
},
{
layerId = "AC8F5225-6E8D-48D3-AF8E-295F90E86009";
paths = (
{
closed = 1;
nodes = (
"676 1062 LINE",
"676 107 LINE",
"858 -19 LINE",
"858 1062 LINE"
);
},
{
closed = 1;
nodes = (
"676 230 OFFCURVE",
"615 161 OFFCURVE",
"501 161 CURVE SMOOTH",
"391 161 OFFCURVE",
"334 230 OFFCURVE",
"334 370 CURVE SMOOTH",
"334 1062 LINE",
"153 1062 LINE",
"153 327 LINE SMOOTH",
"153 102 OFFCURVE",
"289 -19 OFFCURVE",
"458 -19 CURVE SMOOTH",
"616 -19 OFFCURVE",
"734 131 OFFCURVE",
"788 190 CURVE",
"710 315 LINE"
);
},
{
closed = 1;
nodes = (
"732 -376 OFFCURVE",
"671 -316 OFFCURVE",
"661 -255 CURVE SMOOTH",
"640 -132 OFFCURVE",
"776 -44 OFFCURVE",
"858 -19 CURVE",
"805 67 LINE",
"773 54 LINE",
"525 -44 OFFCURVE",
"437 -170 OFFCURVE",
"463 -308 CURVE SMOOTH",
"492 -464 OFFCURVE",
"648 -534 OFFCURVE",
"856 -506 CURVE",
"857 -365 LINE"
);
}
);
width = 1011;
}
);
unicode = 0173;
},
{
glyphname = v;
lastChange = "2021-08-22 04:13:59 +0000";
layers = (
{
anchors = (
{
name = btm;
position = "{409, -170}";
},
{
name = top;
position = "{409, 1700}";
}
);
layerId = master01;
paths = (
{
closed = 1;
nodes = (
"800 1062 LINE",
"609 1062 LINE",
"459 601 LINE",
"413 411 LINE",
"366 601 LINE",
"213 1062 LINE",
"20 1062 LINE",
"412 -79 LINE"
);
}
);
userData = {
com.typemytype.robofont.guides = (
{
angle = 0;
isGlobal = 0;
magnetic = 5;
x = 0;
y = 463;
},
{
angle = 0;
isGlobal = 0;
magnetic = 5;
x = 0;
y = 600;
},
{
angle = 90;
isGlobal = 0;
magnetic = 5;
x = 412;
y = 0;
}
);
com.typemytype.robofont.mark = (
0.967,
0.6,
1,
1
);
};
width = 820;
},
{
anchors = (
{
name = btm;
position = "{409, -170}";
},
{
name = top;
position = "{409, 1700}";
}
);
layerId = "AC8F5225-6E8D-48D3-AF8E-295F90E86009";
paths = (
{
closed = 1;
nodes = (
"800 1062 LINE",
"609 1062 LINE",
"459 601 LINE",
"413 411 LINE",
"366 601 LINE",
"213 1062 LINE",
"20 1062 LINE",
"412 -79 LINE"
);
}
);
userData = {
com.typemytype.robofont.guides = (
{
angle = 0;
isGlobal = 0;
magnetic = 5;
x = 0;
y = 463;
},
{
angle = 0;
isGlobal = 0;
magnetic = 5;
x = 0;
y = 600;
},
{
angle = 90;
isGlobal = 0;
magnetic = 5;
x = 412;
y = 0;
}
);
com.typemytype.robofont.mark = (
0.967,
0.6,
1,
1
);
};
width = 820;
}
);
unicode = 0076;
},
{
glyphname = w;
lastChange = "2021-08-22 04:13:59 +0000";
layers = (
{
anchors = (
{
name = btm;
position = "{548, -170}";
},
{
name = top;
position = "{548, 1700}";
}
);
layerId = master01;
paths = (
{
closed = 1;
nodes = (
"509 277 LINE",
"601 503 LINE",
"702 276 LINE",
"858 -61 LINE",
"1176 1062 LINE",
"983 1062 LINE",
"860 598 LINE",
"822 392 LINE",
"741 600 LINE",
"598 882 LINE",
"471 600 LINE",
"382 392 LINE",
"339 600 LINE",
"213 1062 LINE",
"20 1062 LINE",
"338 -61 LINE"
);
}
);
userData = {
com.typemytype.robofont.guides = (
{
angle = 0;
isGlobal = 0;
magnetic = 5;
x = 0;
y = 600;
},
{
angle = 0;
isGlobal = 0;
magnetic = 5;
x = 0;
y = 276;
},
{
angle = 90;
isGlobal = 0;
magnetic = 5;
x = 548;
y = 0;
},
{
angle = 90;
isGlobal = 0;
magnetic = 5;
x = 353;
y = 0;
}
);
com.typemytype.robofont.mark = (
0.967,
0.6,
1,
1
);
};
width = 1196;
},
{
anchors = (
{
name = btm;
position = "{548, -170}";
},
{
name = top;
position = "{548, 1700}";
}
);
layerId = "AC8F5225-6E8D-48D3-AF8E-295F90E86009";
paths = (
{
closed = 1;
nodes = (
"509 277 LINE",
"601 503 LINE",
"702 276 LINE",
"858 -61 LINE",
"1176 1062 LINE",
"983 1062 LINE",
"860 598 LINE",
"822 392 LINE",
"741 600 LINE",
"598 882 LINE",
"471 600 LINE",
"382 392 LINE",
"339 600 LINE",
"213 1062 LINE",
"20 1062 LINE",
"338 -61 LINE"
);
}
);
userData = {
com.typemytype.robofont.guides = (
{
angle = 0;
isGlobal = 0;
magnetic = 5;
x = 0;
y = 600;
},
{
angle = 0;
isGlobal = 0;
magnetic = 5;
x = 0;
y = 276;
},
{
angle = 90;
isGlobal = 0;
magnetic = 5;
x = 548;
y = 0;
},
{
angle = 90;
isGlobal = 0;
magnetic = 5;
x = 353;
y = 0;
}
);
com.typemytype.robofont.mark = (
0.967,
0.6,
1,
1
);
};
width = 1196;
}
);
unicode = 0077;
},
{
glyphname = x;
lastChange = "2021-08-22 04:13:59 +0000";
layers = (
{
anchors = (
{
name = btm;
position = "{416, -170}";
},
{
name = top;
position = "{416, 1700}";
}
);
layerId = master01;
paths = (
{
closed = 1;
nodes = (
"792 0 LINE",
"255 1062 LINE",
"61 1062 LINE",
"599 0 LINE"
);
},
{
closed = 1;
nodes = (
"234 0 LINE",
"477 466 LINE",
"498 487 LINE",
"772 1062 LINE",
"578 1062 LINE",
"396 648 LINE",
"373 630 LINE",
"41 0 LINE"
);
}
);
userData = {
com.typemytype.robofont.mark = (
0.967,
0.6,
1,
1
);
};
width = 833;
},
{
anchors = (
{
name = btm;
position = "{416, -170}";
},
{
name = top;
position = "{416, 1700}";
}
);
layerId = "AC8F5225-6E8D-48D3-AF8E-295F90E86009";
paths = (
{
closed = 1;
nodes = (
"792 0 LINE",
"255 1062 LINE",
"61 1062 LINE",
"599 0 LINE"
);
},
{
closed = 1;
nodes = (
"234 0 LINE",
"477 466 LINE",
"498 487 LINE",
"772 1062 LINE",
"578 1062 LINE",
"396 648 LINE",
"373 630 LINE",
"41 0 LINE"
);
}
);
userData = {
com.typemytype.robofont.mark = (
0.967,
0.6,
1,
1
);
};
width = 833;
}
);
unicode = 0078;
},
{
glyphname = y;
lastChange = "2021-08-22 04:13:59 +0000";
layers = (
{
anchors = (
{
name = btm;
position = "{431, -170}";
},
{
name = top;
position = "{431, 1700}";
}
);
layerId = master01;
paths = (
{
closed = 1;
nodes = (
"431 -244 OFFCURVE",
"480 -164 OFFCURVE",
"557 110 CURVE SMOOTH",
"822 1062 LINE",
"628 1062 LINE",
"487 521 LINE",
"439 247 LINE",
"387 522 LINE",
"234 1062 LINE",
"41 1062 LINE",
"357 45 LINE",
"346 -61 OFFCURVE",
"294 -129 OFFCURVE",
"189 -210 CURVE",
"277 -354 LINE"
);
}
);
userData = {
com.typemytype.robofont.mark = (
0.967,
0.6,
1,
1
);
};
width = 842;
},
{
anchors = (
{
name = btm;
position = "{431, -170}";
},
{
name = top;
position = "{431, 1700}";
}
);
layerId = "AC8F5225-6E8D-48D3-AF8E-295F90E86009";
paths = (
{
closed = 1;
nodes = (
"431 -244 OFFCURVE",
"480 -164 OFFCURVE",
"557 110 CURVE SMOOTH",
"822 1062 LINE",
"628 1062 LINE",
"487 521 LINE",
"439 247 LINE",
"387 522 LINE",
"234 1062 LINE",
"41 1062 LINE",
"357 45 LINE",
"346 -61 OFFCURVE",
"294 -129 OFFCURVE",
"189 -210 CURVE",
"277 -354 LINE"
);
}
);
userData = {
com.typemytype.robofont.mark = (
0.967,
0.6,
1,
1
);
};
width = 842;
}
);
unicode = 0079;
},
{
glyphname = z;
lastChange = "2021-08-22 04:13:59 +0000";
layers = (
{
anchors = (
{
name = bottom;
position = "{442, 0}";
},
{
name = btm;
position = "{447, -170}";
},
{
name = center;
position = "{442, 531}";
},
{
name = top;
position = "{447, 1700}";
}
);
layerId = master01;
paths = (
{
closed = 1;
nodes = (
"766 0 LINE",
"766 168 LINE",
"370 168 LINE",
"798 1062 LINE",
"171 1062 LINE",
"171 894 LINE",
"523 894 LINE",
"97 0 LINE"
);
}
);
userData = {
com.typemytype.robofont.guides = (
{
angle = 90;
isGlobal = 0;
magnetic = 5;
x = 798;
y = 0;
}
);
com.typemytype.robofont.mark = (
0.967,
0.6,
1,
1
);
};
width = 883;
},
{
anchors = (
{
name = bottom;
position = "{442, 0}";
},
{
name = btm;
position = "{447, -170}";
},
{
name = center;
position = "{442, 531}";
},
{
name = top;
position = "{447, 1700}";
}
);
layerId = "AC8F5225-6E8D-48D3-AF8E-295F90E86009";
paths = (
{
closed = 1;
nodes = (
"766 0 LINE",
"766 168 LINE",
"370 168 LINE",
"798 1062 LINE",
"171 1062 LINE",
"171 894 LINE",
"523 894 LINE",
"97 0 LINE"
);
}
);
userData = {
com.typemytype.robofont.guides = (
{
angle = 90;
isGlobal = 0;
magnetic = 5;
x = 798;
y = 0;
}
);
com.typemytype.robofont.mark = (
0.967,
0.6,
1,
1
);
};
width = 883;
}
);
unicode = 007A;
},
{
glyphname = ordfeminine;
lastChange = "2021-08-22 04:13:59 +0000";
layers = (
{
layerId = master01;
paths = (
{
closed = 1;
nodes = (
"564 1373 LINE SMOOTH",
"564 1523 OFFCURVE",
"472 1612 OFFCURVE",
"333 1612 CURVE SMOOTH",
"280 1612 OFFCURVE",
"216 1599 OFFCURVE",
"159 1571 CURVE",
"214 1446 LINE",
"251 1467 OFFCURVE",
"291 1481 OFFCURVE",
"326 1481 CURVE SMOOTH",
"393 1481 OFFCURVE",
"428 1431 OFFCURVE",
"428 1349 CURVE SMOOTH",
"428 953 LINE",
"564 885 LINE"
);
},
{
closed = 1;
nodes = (
"446 885 OFFCURVE",
"527 978 OFFCURVE",
"527 1094 CURVE",
"444 1081 LINE",
"441 1051 OFFCURVE",
"400 1021 OFFCURVE",
"353 1021 CURVE SMOOTH",
"296 1021 OFFCURVE",
"260 1066 OFFCURVE",
"260 1121 CURVE SMOOTH",
"260 1191 OFFCURVE",
"321 1231 OFFCURVE",
"428 1229 CURVE",
"525 1229 LINE",
"525 1354 LINE",
"428 1355 LINE",
"221 1345 OFFCURVE",
"117 1256 OFFCURVE",
"117 1118 CURVE SMOOTH",
"117 988 OFFCURVE",
"210 885 OFFCURVE",
"331 885 CURVE SMOOTH"
);
}
);
width = 651;
},
{
layerId = "AC8F5225-6E8D-48D3-AF8E-295F90E86009";
paths = (
{
closed = 1;
nodes = (
"564 1373 LINE SMOOTH",
"564 1523 OFFCURVE",
"472 1612 OFFCURVE",
"333 1612 CURVE SMOOTH",
"280 1612 OFFCURVE",
"216 1599 OFFCURVE",
"159 1571 CURVE",
"214 1446 LINE",
"251 1467 OFFCURVE",
"291 1481 OFFCURVE",
"326 1481 CURVE SMOOTH",
"393 1481 OFFCURVE",
"428 1431 OFFCURVE",
"428 1349 CURVE SMOOTH",
"428 953 LINE",
"564 885 LINE"
);
},
{
closed = 1;
nodes = (
"446 885 OFFCURVE",
"527 978 OFFCURVE",
"527 1094 CURVE",
"444 1081 LINE",
"441 1051 OFFCURVE",
"400 1021 OFFCURVE",
"353 1021 CURVE SMOOTH",
"296 1021 OFFCURVE",
"260 1066 OFFCURVE",
"260 1121 CURVE SMOOTH",
"260 1191 OFFCURVE",
"321 1231 OFFCURVE",
"428 1229 CURVE",
"525 1229 LINE",
"525 1354 LINE",
"428 1355 LINE",
"221 1345 OFFCURVE",
"117 1256 OFFCURVE",
"117 1118 CURVE SMOOTH",
"117 988 OFFCURVE",
"210 885 OFFCURVE",
"331 885 CURVE SMOOTH"
);
}
);
width = 651;
}
);
unicode = 00AA;
},
{
glyphname = ordmasculine;
lastChange = "2021-08-22 04:13:59 +0000";
layers = (
{
layerId = master01;
paths = (
{
closed = 1;
nodes = (
"464 884 OFFCURVE",
"582 1006 OFFCURVE",
"582 1249 CURVE SMOOTH",
"582 1492 OFFCURVE",
"464 1612 OFFCURVE",
"334 1612 CURVE SMOOTH",
"203 1612 OFFCURVE",
"86 1492 OFFCURVE",
"86 1249 CURVE SMOOTH",
"86 1006 OFFCURVE",
"203 884 OFFCURVE",
"334 884 CURVE SMOOTH"
);
},
{
closed = 1;
nodes = (
"283 1022 OFFCURVE",
"227 1081 OFFCURVE",
"227 1249 CURVE SMOOTH",
"227 1416 OFFCURVE",
"283 1474 OFFCURVE",
"334 1474 CURVE SMOOTH",
"386 1474 OFFCURVE",
"442 1416 OFFCURVE",
"442 1249 CURVE SMOOTH",
"442 1081 OFFCURVE",
"386 1022 OFFCURVE",
"334 1022 CURVE SMOOTH"
);
}
);
width = 666;
},
{
layerId = "AC8F5225-6E8D-48D3-AF8E-295F90E86009";
paths = (
{
closed = 1;
nodes = (
"464 884 OFFCURVE",
"582 1006 OFFCURVE",
"582 1249 CURVE SMOOTH",
"582 1492 OFFCURVE",
"464 1612 OFFCURVE",
"334 1612 CURVE SMOOTH",
"203 1612 OFFCURVE",
"86 1492 OFFCURVE",
"86 1249 CURVE SMOOTH",
"86 1006 OFFCURVE",
"203 884 OFFCURVE",
"334 884 CURVE SMOOTH"
);
},
{
closed = 1;
nodes = (
"283 1022 OFFCURVE",
"227 1081 OFFCURVE",
"227 1249 CURVE SMOOTH",
"227 1416 OFFCURVE",
"283 1474 OFFCURVE",
"334 1474 CURVE SMOOTH",
"386 1474 OFFCURVE",
"442 1416 OFFCURVE",
"442 1249 CURVE SMOOTH",
"442 1081 OFFCURVE",
"386 1022 OFFCURVE",
"334 1022 CURVE SMOOTH"
);
}
);
width = 666;
}
);
unicode = 00BA;
},
{
glyphname = Delta;
lastChange = "2021-08-22 04:13:59 +0000";
layers = (
{
layerId = master01;
paths = (
{
closed = 1;
nodes = (
"1072 0 LINE",
"605 1530 LINE",
"139 0 LINE"
);
},
{
closed = 1;
nodes = (
"605 927 LINE",
"840 162 LINE",
"379 162 LINE"
);
}
);
userData = {
com.typemytype.robofont.guides = (
{
angle = 0;
isGlobal = 0;
magnetic = 5;
x = 0;
y = 92;
}
);
};
width = 1212;
},
{
layerId = "AC8F5225-6E8D-48D3-AF8E-295F90E86009";
paths = (
{
closed = 1;
nodes = (
"1072 0 LINE",
"605 1530 LINE",
"139 0 LINE"
);
},
{
closed = 1;
nodes = (
"605 927 LINE",
"840 162 LINE",
"379 162 LINE"
);
}
);
userData = {
com.typemytype.robofont.guides = (
{
angle = 0;
isGlobal = 0;
magnetic = 5;
x = 0;
y = 92;
}
);
};
width = 1212;
}
);
unicode = 0394;
},
{
glyphname = Omega;
lastChange = "2021-08-22 04:13:59 +0000";
layers = (
{
layerId = master01;
paths = (
{
closed = 1;
nodes = (
"619 100 LINE",
"540 265 OFFCURVE",
"421 486 OFFCURVE",
"421 883 CURVE SMOOTH",
"421 1368 OFFCURVE",
"583 1447 OFFCURVE",
"698 1447 CURVE SMOOTH",
"812 1447 OFFCURVE",
"974 1368 OFFCURVE",
"974 883 CURVE SMOOTH",
"974 486 OFFCURVE",
"850 266 OFFCURVE",
"771 100 CURVE",
"771 0 LINE",
"841 2 OFFCURVE",
"887 40 OFFCURVE",
"956 151 CURVE SMOOTH",
"1071 338 OFFCURVE",
"1191 615 OFFCURVE",
"1191 883 CURVE SMOOTH",
"1191 1544 OFFCURVE",
"861 1611 OFFCURVE",
"698 1611 CURVE SMOOTH",
"534 1611 OFFCURVE",
"204 1544 OFFCURVE",
"204 883 CURVE SMOOTH",
"204 615 OFFCURVE",
"321 335 OFFCURVE",
"437 149 CURVE SMOOTH",
"505 38 OFFCURVE",
"549 1 OFFCURVE",
"619 0 CURVE"
);
},
{
closed = 1;
nodes = (
"619 0 LINE",
"581 67 LINE",
"551 169 LINE",
"171 170 LINE",
"171 0 LINE"
);
},
{
closed = 1;
nodes = (
"1220 0 LINE",
"1220 170 LINE",
"836 169 LINE",
"810 67 LINE",
"771 0 LINE"
);
}
);
width = 1392;
},
{
layerId = "AC8F5225-6E8D-48D3-AF8E-295F90E86009";
paths = (
{
closed = 1;
nodes = (
"619 100 LINE",
"540 265 OFFCURVE",
"421 486 OFFCURVE",
"421 883 CURVE SMOOTH",
"421 1368 OFFCURVE",
"583 1447 OFFCURVE",
"698 1447 CURVE SMOOTH",
"812 1447 OFFCURVE",
"974 1368 OFFCURVE",
"974 883 CURVE SMOOTH",
"974 486 OFFCURVE",
"850 266 OFFCURVE",
"771 100 CURVE",
"771 0 LINE",
"841 2 OFFCURVE",
"887 40 OFFCURVE",
"956 151 CURVE SMOOTH",
"1071 338 OFFCURVE",
"1191 615 OFFCURVE",
"1191 883 CURVE SMOOTH",
"1191 1544 OFFCURVE",
"861 1611 OFFCURVE",
"698 1611 CURVE SMOOTH",
"534 1611 OFFCURVE",
"204 1544 OFFCURVE",
"204 883 CURVE SMOOTH",
"204 615 OFFCURVE",
"321 335 OFFCURVE",
"437 149 CURVE SMOOTH",
"505 38 OFFCURVE",
"549 1 OFFCURVE",
"619 0 CURVE"
);
},
{
closed = 1;
nodes = (
"619 0 LINE",
"581 67 LINE",
"551 169 LINE",
"171 170 LINE",
"171 0 LINE"
);
},
{
closed = 1;
nodes = (
"1220 0 LINE",
"1220 170 LINE",
"836 169 LINE",
"810 67 LINE",
"771 0 LINE"
);
}
);
width = 1392;
}
);
unicode = 03A9;
},
{
color = 4;
glyphname = mu;
lastChange = "2021-08-22 04:13:59 +0000";
layers = (
{
layerId = master01;
paths = (
{
closed = 1;
nodes = (
"637 194 OFFCURVE",
"576 161 OFFCURVE",
"502 161 CURVE SMOOTH",
"392 161 OFFCURVE",
"335 207 OFFCURVE",
"335 260 CURVE SMOOTH",
"335 1062 LINE",
"153 1062 LINE",
"153 -425 LINE",
"334 -425 LINE",
"334 48 LINE",
"385 7 OFFCURVE",
"444 -18 OFFCURVE",
"502 -18 CURVE SMOOTH",
"567 -18 OFFCURVE",
"643 23 OFFCURVE",
"700 79 CURVE",
"746 -20 LINE",
"859 -20 LINE",
"859 1062 LINE",
"677 1062 LINE",
"677 245 LINE"
);
}
);
width = 1012;
},
{
layerId = "AC8F5225-6E8D-48D3-AF8E-295F90E86009";
paths = (
{
closed = 1;
nodes = (
"637 194 OFFCURVE",
"576 161 OFFCURVE",
"502 161 CURVE SMOOTH",
"392 161 OFFCURVE",
"335 207 OFFCURVE",
"335 260 CURVE SMOOTH",
"335 1062 LINE",
"153 1062 LINE",
"153 -425 LINE",
"334 -425 LINE",
"334 48 LINE",
"385 7 OFFCURVE",
"444 -18 OFFCURVE",
"502 -18 CURVE SMOOTH",
"567 -18 OFFCURVE",
"643 23 OFFCURVE",
"700 79 CURVE",
"746 -20 LINE",
"859 -20 LINE",
"859 1062 LINE",
"677 1062 LINE",
"677 245 LINE"
);
}
);
width = 1012;
}
);
leftMetricsKey = u;
rightMetricsKey = u;
unicode = 03BC;
},
{
glyphname = pi;
lastChange = "2021-08-22 04:13:59 +0000";
layers = (
{
layerId = master01;
paths = (
{
closed = 1;
nodes = (
"916 -6 OFFCURVE",
"974 -3 OFFCURVE",
"996 0 CURVE",
"996 160 LINE",
"981 155 OFFCURVE",
"924 152 OFFCURVE",
"912 152 CURVE SMOOTH",
"826 152 OFFCURVE",
"822 215 OFFCURVE",
"822 864 CURVE",
"1000 864 LINE",
"1000 1032 LINE",
"79 1032 LINE",
"79 864 LINE",
"244 864 LINE",
"152 1 LINE",
"343 1 LINE",
"424 864 LINE",
"634 864 LINE",
"634 316 LINE SMOOTH",
"634 125 OFFCURVE",
"675 -6 OFFCURVE",
"898 -6 CURVE SMOOTH"
);
}
);
userData = {
com.typemytype.robofont.guides = (
{
angle = 90;
isGlobal = 0;
magnetic = 5;
x = 1009;
y = 0;
}
);
};
width = 1114;
},
{
layerId = "AC8F5225-6E8D-48D3-AF8E-295F90E86009";
paths = (
{
closed = 1;
nodes = (
"916 -6 OFFCURVE",
"974 -3 OFFCURVE",
"996 0 CURVE",
"996 160 LINE",
"981 155 OFFCURVE",
"924 152 OFFCURVE",
"912 152 CURVE SMOOTH",
"826 152 OFFCURVE",
"822 215 OFFCURVE",
"822 864 CURVE",
"1000 864 LINE",
"1000 1032 LINE",
"79 1032 LINE",
"79 864 LINE",
"244 864 LINE",
"152 1 LINE",
"343 1 LINE",
"424 864 LINE",
"634 864 LINE",
"634 316 LINE SMOOTH",
"634 125 OFFCURVE",
"675 -6 OFFCURVE",
"898 -6 CURVE SMOOTH"
);
}
);
userData = {
com.typemytype.robofont.guides = (
{
angle = 90;
isGlobal = 0;
magnetic = 5;
x = 1009;
y = 0;
}
);
};
width = 1114;
}
);
unicode = 03C0;
},
{
glyphname = zero;
lastChange = "2021-08-22 04:13:59 +0000";
layers = (
{
layerId = master01;
paths = (
{
closed = 1;
nodes = (
"792 -19 OFFCURVE",
"988 174 OFFCURVE",
"988 796 CURVE SMOOTH",
"988 1418 OFFCURVE",
"792 1611 OFFCURVE",
"563 1611 CURVE SMOOTH",
"335 1611 OFFCURVE",
"138 1418 OFFCURVE",
"138 796 CURVE SMOOTH",
"138 174 OFFCURVE",
"335 -19 OFFCURVE",
"563 -19 CURVE SMOOTH"
);
},
{
closed = 1;
nodes = (
"449 156 OFFCURVE",
"335 276 OFFCURVE",
"335 796 CURVE SMOOTH",
"335 1316 OFFCURVE",
"449 1436 OFFCURVE",
"563 1436 CURVE SMOOTH",
"677 1436 OFFCURVE",
"792 1316 OFFCURVE",
"792 796 CURVE SMOOTH",
"792 276 OFFCURVE",
"677 156 OFFCURVE",
"563 156 CURVE SMOOTH"
);
}
);
width = 1126;
},
{
layerId = "AC8F5225-6E8D-48D3-AF8E-295F90E86009";
paths = (
{
closed = 1;
nodes = (
"792 -19 OFFCURVE",
"988 174 OFFCURVE",
"988 796 CURVE SMOOTH",
"988 1418 OFFCURVE",
"792 1611 OFFCURVE",
"563 1611 CURVE SMOOTH",
"335 1611 OFFCURVE",
"138 1418 OFFCURVE",
"138 796 CURVE SMOOTH",
"138 174 OFFCURVE",
"335 -19 OFFCURVE",
"563 -19 CURVE SMOOTH"
);
},
{
closed = 1;
nodes = (
"449 156 OFFCURVE",
"335 276 OFFCURVE",
"335 796 CURVE SMOOTH",
"335 1316 OFFCURVE",
"449 1436 OFFCURVE",
"563 1436 CURVE SMOOTH",
"677 1436 OFFCURVE",
"792 1316 OFFCURVE",
"792 796 CURVE SMOOTH",
"792 276 OFFCURVE",
"677 156 OFFCURVE",
"563 156 CURVE SMOOTH"
);
}
);
width = 1126;
}
);
unicode = 0030;
},
{
glyphname = one;
lastChange = "2021-08-22 04:13:59 +0000";
layers = (
{
layerId = master01;
paths = (
{
closed = 1;
nodes = (
"403 0 LINE",
"403 1631 LINE",
"213 1430 LINE",
"213 0 LINE"
);
}
);
width = 616;
},
{
layerId = "AC8F5225-6E8D-48D3-AF8E-295F90E86009";
paths = (
{
closed = 1;
nodes = (
"403 0 LINE",
"403 1631 LINE",
"213 1430 LINE",
"213 0 LINE"
);
}
);
width = 616;
}
);
unicode = 0031;
},
{
glyphname = two;
lastChange = "2021-08-22 04:13:59 +0000";
layers = (
{
layerId = master01;
paths = (
{
closed = 1;
nodes = (
"268 1 LINE",
"605 684 LINE SMOOTH",
"733 945 OFFCURVE",
"794 1072 OFFCURVE",
"794 1221 CURVE SMOOTH",
"794 1449 OFFCURVE",
"652 1613 OFFCURVE",
"407 1613 CURVE SMOOTH",
"299 1613 OFFCURVE",
"182 1581 OFFCURVE",
"91 1503 CURVE",
"182 1357 LINE",
"261 1416 OFFCURVE",
"342 1438 OFFCURVE",
"403 1438 CURVE SMOOTH",
"537 1438 OFFCURVE",
"597 1333 OFFCURVE",
"597 1231 CURVE SMOOTH",
"597 1143 OFFCURVE",
"553 1010 OFFCURVE",
"465 830 CURVE SMOOTH",
"60 1 LINE"
);
},
{
closed = 1;
nodes = (
"812 1 LINE",
"812 176 LINE",
"188 176 LINE",
"184 1 LINE"
);
}
);
userData = {
com.typemytype.robofont.guides = (
{
angle = 90;
isGlobal = 0;
magnetic = 5;
x = 733;
y = 0;
}
);
};
width = 940;
},
{
layerId = "AC8F5225-6E8D-48D3-AF8E-295F90E86009";
paths = (
{
closed = 1;
nodes = (
"268 1 LINE",
"605 684 LINE SMOOTH",
"733 945 OFFCURVE",
"794 1072 OFFCURVE",
"794 1221 CURVE SMOOTH",
"794 1449 OFFCURVE",
"652 1613 OFFCURVE",
"407 1613 CURVE SMOOTH",
"299 1613 OFFCURVE",
"182 1581 OFFCURVE",
"91 1503 CURVE",
"182 1357 LINE",
"261 1416 OFFCURVE",
"342 1438 OFFCURVE",
"403 1438 CURVE SMOOTH",
"537 1438 OFFCURVE",
"597 1333 OFFCURVE",
"597 1231 CURVE SMOOTH",
"597 1143 OFFCURVE",
"553 1010 OFFCURVE",
"465 830 CURVE SMOOTH",
"60 1 LINE"
);
},
{
closed = 1;
nodes = (
"812 1 LINE",
"812 176 LINE",
"188 176 LINE",
"184 1 LINE"
);
}
);
userData = {
com.typemytype.robofont.guides = (
{
angle = 90;
isGlobal = 0;
magnetic = 5;
x = 733;
y = 0;
}
);
};
width = 940;
}
);
unicode = 0032;
},
{
glyphname = three;
lastChange = "2021-08-22 04:13:59 +0000";
layers = (
{
layerId = master01;
paths = (
{
closed = 1;
nodes = (
"678 -19 OFFCURVE",
"870 184 OFFCURVE",
"870 469 CURVE SMOOTH",
"870 728 OFFCURVE",
"712 918 OFFCURVE",
"386 966 CURVE",
"302 868 LINE",
"236 741 LINE",
"292 766 OFFCURVE",
"334 774 OFFCURVE",
"377 774 CURVE SMOOTH",
"542 774 OFFCURVE",
"673 663 OFFCURVE",
"673 464 CURVE SMOOTH",
"673 277 OFFCURVE",
"558 156 OFFCURVE",
"389 156 CURVE SMOOTH",
"323 156 OFFCURVE",
"245 174 OFFCURVE",
"177 214 CURVE",
"88 61 LINE",
"152 19 OFFCURVE",
"271 -19 OFFCURVE",
"394 -19 CURVE SMOOTH"
);
},
{
closed = 1;
nodes = (
"414 840 LINE",
"492 849 LINE",
"840 1594 LINE",
"644 1594 LINE",
"257 779 LINE"
);
},
{
closed = 1;
nodes = (
"577 1418 LINE",
"684 1594 LINE",
"161 1594 LINE",
"162 1418 LINE"
);
}
);
width = 1007;
},
{
layerId = "AC8F5225-6E8D-48D3-AF8E-295F90E86009";
paths = (
{
closed = 1;
nodes = (
"678 -19 OFFCURVE",
"870 184 OFFCURVE",
"870 469 CURVE SMOOTH",
"870 728 OFFCURVE",
"712 918 OFFCURVE",
"386 966 CURVE",
"302 868 LINE",
"236 741 LINE",
"292 766 OFFCURVE",
"334 774 OFFCURVE",
"377 774 CURVE SMOOTH",
"542 774 OFFCURVE",
"673 663 OFFCURVE",
"673 464 CURVE SMOOTH",
"673 277 OFFCURVE",
"558 156 OFFCURVE",
"389 156 CURVE SMOOTH",
"323 156 OFFCURVE",
"245 174 OFFCURVE",
"177 214 CURVE",
"88 61 LINE",
"152 19 OFFCURVE",
"271 -19 OFFCURVE",
"394 -19 CURVE SMOOTH"
);
},
{
closed = 1;
nodes = (
"414 840 LINE",
"492 849 LINE",
"840 1594 LINE",
"644 1594 LINE",
"257 779 LINE"
);
},
{
closed = 1;
nodes = (
"577 1418 LINE",
"684 1594 LINE",
"161 1594 LINE",
"162 1418 LINE"
);
}
);
width = 1007;
}
);
unicode = 0033;
},
{
glyphname = four;
lastChange = "2021-08-22 04:13:59 +0000";
layers = (
{
layerId = master01;
paths = (
{
closed = 1;
nodes = (
"955 336 LINE",
"955 512 LINE",
"334 512 LINE",
"614 1593 LINE",
"422 1593 LINE",
"102 336 LINE"
);
},
{
closed = 1;
nodes = (
"806 0 LINE",
"806 1081 LINE",
"616 880 LINE",
"616 0 LINE"
);
}
);
width = 1072;
},
{
layerId = "AC8F5225-6E8D-48D3-AF8E-295F90E86009";
paths = (
{
closed = 1;
nodes = (
"955 336 LINE",
"955 512 LINE",
"334 512 LINE",
"614 1593 LINE",
"422 1593 LINE",
"102 336 LINE"
);
},
{
closed = 1;
nodes = (
"806 0 LINE",
"806 1081 LINE",
"616 880 LINE",
"616 0 LINE"
);
}
);
width = 1072;
}
);
unicode = 0034;
},
{
glyphname = five;
lastChange = "2021-08-22 04:13:59 +0000";
layers = (
{
layerId = master01;
paths = (
{
closed = 1;
nodes = (
"649 -19 OFFCURVE",
"870 152 OFFCURVE",
"870 481 CURVE SMOOTH",
"870 772 OFFCURVE",
"697 971 OFFCURVE",
"416 971 CURVE SMOOTH",
"322 971 OFFCURVE",
"283 949 OFFCURVE",
"226 876 CURVE",
"183 720 LINE",
"264 779 OFFCURVE",
"346 796 OFFCURVE",
"406 796 CURVE SMOOTH",
"565 796 OFFCURVE",
"673 679 OFFCURVE",
"673 486 CURVE SMOOTH",
"673 265 OFFCURVE",
"530 156 OFFCURVE",
"380 156 CURVE SMOOTH",
"314 156 OFFCURVE",
"241 177 OFFCURVE",
"173 221 CURVE",
"88 61 LINE",
"204 0 OFFCURVE",
"316 -19 OFFCURVE",
"400 -19 CURVE SMOOTH"
);
},
{
closed = 1;
nodes = (
"372 884 LINE",
"372 1593 LINE",
"183 1593 LINE",
"183 726 LINE"
);
},
{
closed = 1;
nodes = (
"783 1417 LINE",
"780 1593 LINE",
"202 1593 LINE",
"226 1417 LINE"
);
}
);
width = 971;
},
{
layerId = "AC8F5225-6E8D-48D3-AF8E-295F90E86009";
paths = (
{
closed = 1;
nodes = (
"649 -19 OFFCURVE",
"870 152 OFFCURVE",
"870 481 CURVE SMOOTH",
"870 772 OFFCURVE",
"697 971 OFFCURVE",
"416 971 CURVE SMOOTH",
"322 971 OFFCURVE",
"283 949 OFFCURVE",
"226 876 CURVE",
"183 720 LINE",
"264 779 OFFCURVE",
"346 796 OFFCURVE",
"406 796 CURVE SMOOTH",
"565 796 OFFCURVE",
"673 679 OFFCURVE",
"673 486 CURVE SMOOTH",
"673 265 OFFCURVE",
"530 156 OFFCURVE",
"380 156 CURVE SMOOTH",
"314 156 OFFCURVE",
"241 177 OFFCURVE",
"173 221 CURVE",
"88 61 LINE",
"204 0 OFFCURVE",
"316 -19 OFFCURVE",
"400 -19 CURVE SMOOTH"
);
},
{
closed = 1;
nodes = (
"372 884 LINE",
"372 1593 LINE",
"183 1593 LINE",
"183 726 LINE"
);
},
{
closed = 1;
nodes = (
"783 1417 LINE",
"780 1593 LINE",
"202 1593 LINE",
"226 1417 LINE"
);
}
);
width = 971;
}
);
unicode = 0035;
},
{
glyphname = six;
lastChange = "2021-08-22 04:13:59 +0000";
layers = (
{
layerId = master01;
paths = (
{
closed = 1;
nodes = (
"783 -18 OFFCURVE",
"976 148 OFFCURVE",
"976 483 CURVE SMOOTH",
"976 819 OFFCURVE",
"782 985 OFFCURVE",
"579 985 CURVE SMOOTH",
"493 985 OFFCURVE",
"427 955 OFFCURVE",
"357 872 CURVE",
"377 1065 OFFCURVE",
"522 1321 OFFCURVE",
"744 1479 CURVE",
"650 1632 LINE",
"314 1397 OFFCURVE",
"138 1022 OFFCURVE",
"138 602 CURVE SMOOTH",
"138 184 OFFCURVE",
"312 -18 OFFCURVE",
"559 -18 CURVE SMOOTH"
);
},
{
closed = 1;
nodes = (
"455 159 OFFCURVE",
"352 245 OFFCURVE",
"352 484 CURVE SMOOTH",
"352 724 OFFCURVE",
"455 810 OFFCURVE",
"563 810 CURVE SMOOTH",
"669 810 OFFCURVE",
"779 727 OFFCURVE",
"779 484 CURVE SMOOTH",
"779 242 OFFCURVE",
"669 159 OFFCURVE",
"563 159 CURVE SMOOTH"
);
}
);
userData = {
com.typemytype.robofont.guides = (
{
angle = 90;
isGlobal = 0;
magnetic = 5;
x = 498;
y = 0;
}
);
};
width = 1078;
},
{
layerId = "AC8F5225-6E8D-48D3-AF8E-295F90E86009";
paths = (
{
closed = 1;
nodes = (
"783 -18 OFFCURVE",
"976 148 OFFCURVE",
"976 483 CURVE SMOOTH",
"976 819 OFFCURVE",
"782 985 OFFCURVE",
"579 985 CURVE SMOOTH",
"493 985 OFFCURVE",
"427 955 OFFCURVE",
"357 872 CURVE",
"377 1065 OFFCURVE",
"522 1321 OFFCURVE",
"744 1479 CURVE",
"650 1632 LINE",
"314 1397 OFFCURVE",
"138 1022 OFFCURVE",
"138 602 CURVE SMOOTH",
"138 184 OFFCURVE",
"312 -18 OFFCURVE",
"559 -18 CURVE SMOOTH"
);
},
{
closed = 1;
nodes = (
"455 159 OFFCURVE",
"352 245 OFFCURVE",
"352 484 CURVE SMOOTH",
"352 724 OFFCURVE",
"455 810 OFFCURVE",
"563 810 CURVE SMOOTH",
"669 810 OFFCURVE",
"779 727 OFFCURVE",
"779 484 CURVE SMOOTH",
"779 242 OFFCURVE",
"669 159 OFFCURVE",
"563 159 CURVE SMOOTH"
);
}
);
userData = {
com.typemytype.robofont.guides = (
{
angle = 90;
isGlobal = 0;
magnetic = 5;
x = 498;
y = 0;
}
);
};
width = 1078;
}
);
unicode = 0036;
},
{
glyphname = seven;
lastChange = "2021-08-22 04:13:59 +0000";
layers = (
{
layerId = master01;
paths = (
{
closed = 1;
nodes = (
"361 0 LINE",
"829 1593 LINE",
"88 1593 LINE",
"89 1418 LINE",
"585 1418 LINE",
"173 0 LINE"
);
}
);
width = 895;
},
{
layerId = "AC8F5225-6E8D-48D3-AF8E-295F90E86009";
paths = (
{
closed = 1;
nodes = (
"361 0 LINE",
"829 1593 LINE",
"88 1593 LINE",
"89 1418 LINE",
"585 1418 LINE",
"173 0 LINE"
);
}
);
width = 895;
}
);
unicode = 0037;
},
{
glyphname = eight;
lastChange = "2021-08-22 04:13:59 +0000";
layers = (
{
layerId = master01;
paths = (
{
closed = 1;
nodes = (
"802 -19 OFFCURVE",
"984 172 OFFCURVE",
"984 455 CURVE SMOOTH",
"984 751 OFFCURVE",
"784 955 OFFCURVE",
"561 955 CURVE SMOOTH",
"338 955 OFFCURVE",
"138 751 OFFCURVE",
"138 455 CURVE SMOOTH",
"138 172 OFFCURVE",
"320 -19 OFFCURVE",
"561 -19 CURVE SMOOTH"
);
},
{
closed = 1;
nodes = (
"432 156 OFFCURVE",
"335 262 OFFCURVE",
"335 469 CURVE SMOOTH",
"335 676 OFFCURVE",
"432 779 OFFCURVE",
"561 779 CURVE SMOOTH",
"691 779 OFFCURVE",
"787 676 OFFCURVE",
"787 469 CURVE SMOOTH",
"787 262 OFFCURVE",
"691 156 OFFCURVE",
"561 156 CURVE SMOOTH"
);
},
{
closed = 1;
nodes = (
"761 782 OFFCURVE",
"926 980 OFFCURVE",
"926 1224 CURVE SMOOTH",
"926 1475 OFFCURVE",
"752 1630 OFFCURVE",
"561 1630 CURVE SMOOTH",
"369 1630 OFFCURVE",
"195 1474 OFFCURVE",
"195 1223 CURVE SMOOTH",
"195 978 OFFCURVE",
"362 782 OFFCURVE",
"561 782 CURVE SMOOTH"
);
},
{
closed = 1;
nodes = (
"480 956 OFFCURVE",
"392 1025 OFFCURVE",
"392 1205 CURVE SMOOTH",
"392 1385 OFFCURVE",
"480 1455 OFFCURVE",
"561 1455 CURVE SMOOTH",
"642 1455 OFFCURVE",
"729 1385 OFFCURVE",
"729 1205 CURVE SMOOTH",
"729 1025 OFFCURVE",
"642 956 OFFCURVE",
"561 956 CURVE SMOOTH"
);
}
);
userData = {
com.typemytype.robofont.guides = (
{
angle = 90;
isGlobal = 0;
magnetic = 5;
x = 514;
y = 0;
}
);
};
width = 1122;
},
{
layerId = "AC8F5225-6E8D-48D3-AF8E-295F90E86009";
paths = (
{
closed = 1;
nodes = (
"802 -19 OFFCURVE",
"984 172 OFFCURVE",
"984 455 CURVE SMOOTH",
"984 751 OFFCURVE",
"784 955 OFFCURVE",
"561 955 CURVE SMOOTH",
"338 955 OFFCURVE",
"138 751 OFFCURVE",
"138 455 CURVE SMOOTH",
"138 172 OFFCURVE",
"320 -19 OFFCURVE",
"561 -19 CURVE SMOOTH"
);
},
{
closed = 1;
nodes = (
"432 156 OFFCURVE",
"335 262 OFFCURVE",
"335 469 CURVE SMOOTH",
"335 676 OFFCURVE",
"432 779 OFFCURVE",
"561 779 CURVE SMOOTH",
"691 779 OFFCURVE",
"787 676 OFFCURVE",
"787 469 CURVE SMOOTH",
"787 262 OFFCURVE",
"691 156 OFFCURVE",
"561 156 CURVE SMOOTH"
);
},
{
closed = 1;
nodes = (
"761 782 OFFCURVE",
"926 980 OFFCURVE",
"926 1224 CURVE SMOOTH",
"926 1475 OFFCURVE",
"752 1630 OFFCURVE",
"561 1630 CURVE SMOOTH",
"369 1630 OFFCURVE",
"195 1474 OFFCURVE",
"195 1223 CURVE SMOOTH",
"195 978 OFFCURVE",
"362 782 OFFCURVE",
"561 782 CURVE SMOOTH"
);
},
{
closed = 1;
nodes = (
"480 956 OFFCURVE",
"392 1025 OFFCURVE",
"392 1205 CURVE SMOOTH",
"392 1385 OFFCURVE",
"480 1455 OFFCURVE",
"561 1455 CURVE SMOOTH",
"642 1455 OFFCURVE",
"729 1385 OFFCURVE",
"729 1205 CURVE SMOOTH",
"729 1025 OFFCURVE",
"642 956 OFFCURVE",
"561 956 CURVE SMOOTH"
);
}
);
userData = {
com.typemytype.robofont.guides = (
{
angle = 90;
isGlobal = 0;
magnetic = 5;
x = 514;
y = 0;
}
);
};
width = 1122;
}
);
unicode = 0038;
},
{
glyphname = nine;
lastChange = "2021-08-22 04:13:59 +0000";
layers = (
{
layerId = master01;
paths = (
{
closed = 1;
nodes = (
"781 211 OFFCURVE",
"950 589 OFFCURVE",
"950 1003 CURVE SMOOTH",
"950 1427 OFFCURVE",
"773 1631 OFFCURVE",
"525 1631 CURVE SMOOTH",
"301 1631 OFFCURVE",
"106 1463 OFFCURVE",
"106 1124 CURVE SMOOTH",
"106 784 OFFCURVE",
"303 615 OFFCURVE",
"506 615 CURVE SMOOTH",
"593 615 OFFCURVE",
"658 646 OFFCURVE",
"729 730 CURVE",
"709 535 OFFCURVE",
"562 276 OFFCURVE",
"338 115 CURVE",
"433 -39 LINE"
);
},
{
closed = 1;
nodes = (
"415 790 OFFCURVE",
"302 876 OFFCURVE",
"302 1123 CURVE SMOOTH",
"302 1370 OFFCURVE",
"415 1456 OFFCURVE",
"519 1456 CURVE SMOOTH",
"622 1456 OFFCURVE",
"735 1370 OFFCURVE",
"735 1123 CURVE SMOOTH",
"735 876 OFFCURVE",
"622 790 OFFCURVE",
"519 790 CURVE SMOOTH"
);
}
);
userData = {
com.typemytype.robofont.guides = (
{
angle = 0;
isGlobal = 0;
magnetic = 5;
x = 0;
y = -38;
}
);
};
width = 1088;
},
{
layerId = "AC8F5225-6E8D-48D3-AF8E-295F90E86009";
paths = (
{
closed = 1;
nodes = (
"781 211 OFFCURVE",
"950 589 OFFCURVE",
"950 1003 CURVE SMOOTH",
"950 1427 OFFCURVE",
"773 1631 OFFCURVE",
"525 1631 CURVE SMOOTH",
"301 1631 OFFCURVE",
"106 1463 OFFCURVE",
"106 1124 CURVE SMOOTH",
"106 784 OFFCURVE",
"303 615 OFFCURVE",
"506 615 CURVE SMOOTH",
"593 615 OFFCURVE",
"658 646 OFFCURVE",
"729 730 CURVE",
"709 535 OFFCURVE",
"562 276 OFFCURVE",
"338 115 CURVE",
"433 -39 LINE"
);
},
{
closed = 1;
nodes = (
"415 790 OFFCURVE",
"302 876 OFFCURVE",
"302 1123 CURVE SMOOTH",
"302 1370 OFFCURVE",
"415 1456 OFFCURVE",
"519 1456 CURVE SMOOTH",
"622 1456 OFFCURVE",
"735 1370 OFFCURVE",
"735 1123 CURVE SMOOTH",
"735 876 OFFCURVE",
"622 790 OFFCURVE",
"519 790 CURVE SMOOTH"
);
}
);
userData = {
com.typemytype.robofont.guides = (
{
angle = 0;
isGlobal = 0;
magnetic = 5;
x = 0;
y = -38;
}
);
};
width = 1088;
}
);
unicode = 0039;
},
{
color = 6;
glyphname = one.tf;
lastChange = "2021-08-22 04:13:59 +0000";
layers = (
{
layerId = master01;
paths = (
{
closed = 1;
nodes = (
"219 1412 LINE",
"718 1412 LINE",
"718 1593 LINE",
"219 1593 LINE"
);
},
{
closed = 1;
nodes = (
"247 0 LINE",
"995 0 LINE",
"995 181 LINE",
"247 181 LINE"
);
},
{
closed = 1;
nodes = (
"722 0 LINE",
"718 1593 LINE",
"532 1450 LINE",
"532 0 LINE"
);
}
);
width = 1126;
},
{
layerId = "AC8F5225-6E8D-48D3-AF8E-295F90E86009";
paths = (
{
closed = 1;
nodes = (
"219 1412 LINE",
"718 1412 LINE",
"718 1593 LINE",
"219 1593 LINE"
);
},
{
closed = 1;
nodes = (
"247 0 LINE",
"995 0 LINE",
"995 181 LINE",
"247 181 LINE"
);
},
{
closed = 1;
nodes = (
"722 0 LINE",
"718 1593 LINE",
"532 1450 LINE",
"532 0 LINE"
);
}
);
width = 1126;
}
);
},
{
color = 6;
glyphname = two.tf;
lastChange = "2021-08-22 04:13:59 +0000";
layers = (
{
layerId = master01;
paths = (
{
closed = 1;
nodes = (
"378 1 LINE",
"715 684 LINE SMOOTH",
"843 945 OFFCURVE",
"904 1072 OFFCURVE",
"904 1221 CURVE SMOOTH",
"904 1449 OFFCURVE",
"762 1613 OFFCURVE",
"517 1613 CURVE SMOOTH",
"409 1613 OFFCURVE",
"292 1581 OFFCURVE",
"201 1503 CURVE",
"292 1357 LINE",
"371 1416 OFFCURVE",
"452 1438 OFFCURVE",
"513 1438 CURVE SMOOTH",
"647 1438 OFFCURVE",
"707 1333 OFFCURVE",
"707 1231 CURVE SMOOTH",
"707 1143 OFFCURVE",
"663 1010 OFFCURVE",
"575 830 CURVE SMOOTH",
"170 1 LINE"
);
},
{
closed = 1;
nodes = (
"922 1 LINE",
"922 176 LINE",
"298 176 LINE",
"294 1 LINE"
);
}
);
width = 1126;
},
{
layerId = "AC8F5225-6E8D-48D3-AF8E-295F90E86009";
paths = (
{
closed = 1;
nodes = (
"378 1 LINE",
"715 684 LINE SMOOTH",
"843 945 OFFCURVE",
"904 1072 OFFCURVE",
"904 1221 CURVE SMOOTH",
"904 1449 OFFCURVE",
"762 1613 OFFCURVE",
"517 1613 CURVE SMOOTH",
"409 1613 OFFCURVE",
"292 1581 OFFCURVE",
"201 1503 CURVE",
"292 1357 LINE",
"371 1416 OFFCURVE",
"452 1438 OFFCURVE",
"513 1438 CURVE SMOOTH",
"647 1438 OFFCURVE",
"707 1333 OFFCURVE",
"707 1231 CURVE SMOOTH",
"707 1143 OFFCURVE",
"663 1010 OFFCURVE",
"575 830 CURVE SMOOTH",
"170 1 LINE"
);
},
{
closed = 1;
nodes = (
"922 1 LINE",
"922 176 LINE",
"298 176 LINE",
"294 1 LINE"
);
}
);
width = 1126;
}
);
},
{
color = 6;
glyphname = three.tf;
lastChange = "2021-08-22 04:13:59 +0000";
layers = (
{
layerId = master01;
paths = (
{
closed = 1;
nodes = (
"778 -19 OFFCURVE",
"970 184 OFFCURVE",
"970 469 CURVE SMOOTH",
"970 728 OFFCURVE",
"812 918 OFFCURVE",
"486 966 CURVE",
"402 868 LINE",
"336 741 LINE",
"392 766 OFFCURVE",
"434 774 OFFCURVE",
"477 774 CURVE SMOOTH",
"642 774 OFFCURVE",
"773 663 OFFCURVE",
"773 464 CURVE SMOOTH",
"773 277 OFFCURVE",
"658 156 OFFCURVE",
"489 156 CURVE SMOOTH",
"423 156 OFFCURVE",
"345 174 OFFCURVE",
"277 214 CURVE",
"188 61 LINE",
"252 19 OFFCURVE",
"371 -19 OFFCURVE",
"494 -19 CURVE SMOOTH"
);
},
{
closed = 1;
nodes = (
"514 840 LINE",
"592 849 LINE",
"940 1594 LINE",
"744 1594 LINE",
"357 779 LINE"
);
},
{
closed = 1;
nodes = (
"677 1418 LINE",
"784 1594 LINE",
"261 1594 LINE",
"262 1418 LINE"
);
}
);
width = 1126;
},
{
layerId = "AC8F5225-6E8D-48D3-AF8E-295F90E86009";
paths = (
{
closed = 1;
nodes = (
"778 -19 OFFCURVE",
"970 184 OFFCURVE",
"970 469 CURVE SMOOTH",
"970 728 OFFCURVE",
"812 918 OFFCURVE",
"486 966 CURVE",
"402 868 LINE",
"336 741 LINE",
"392 766 OFFCURVE",
"434 774 OFFCURVE",
"477 774 CURVE SMOOTH",
"642 774 OFFCURVE",
"773 663 OFFCURVE",
"773 464 CURVE SMOOTH",
"773 277 OFFCURVE",
"658 156 OFFCURVE",
"489 156 CURVE SMOOTH",
"423 156 OFFCURVE",
"345 174 OFFCURVE",
"277 214 CURVE",
"188 61 LINE",
"252 19 OFFCURVE",
"371 -19 OFFCURVE",
"494 -19 CURVE SMOOTH"
);
},
{
closed = 1;
nodes = (
"514 840 LINE",
"592 849 LINE",
"940 1594 LINE",
"744 1594 LINE",
"357 779 LINE"
);
},
{
closed = 1;
nodes = (
"677 1418 LINE",
"784 1594 LINE",
"261 1594 LINE",
"262 1418 LINE"
);
}
);
width = 1126;
}
);
},
{
color = 6;
glyphname = four.tf;
lastChange = "2021-08-22 04:13:59 +0000";
layers = (
{
layerId = master01;
paths = (
{
closed = 1;
nodes = (
"974 336 LINE",
"974 512 LINE",
"353 512 LINE",
"633 1593 LINE",
"441 1593 LINE",
"121 336 LINE"
);
},
{
closed = 1;
nodes = (
"825 0 LINE",
"825 1081 LINE",
"635 880 LINE",
"635 0 LINE"
);
}
);
width = 1126;
},
{
layerId = "AC8F5225-6E8D-48D3-AF8E-295F90E86009";
paths = (
{
closed = 1;
nodes = (
"974 336 LINE",
"974 512 LINE",
"353 512 LINE",
"633 1593 LINE",
"441 1593 LINE",
"121 336 LINE"
);
},
{
closed = 1;
nodes = (
"825 0 LINE",
"825 1081 LINE",
"635 880 LINE",
"635 0 LINE"
);
}
);
width = 1126;
}
);
},
{
color = 6;
glyphname = five.tf;
lastChange = "2021-08-22 04:13:59 +0000";
layers = (
{
layerId = master01;
paths = (
{
closed = 1;
nodes = (
"719 -19 OFFCURVE",
"940 152 OFFCURVE",
"940 481 CURVE SMOOTH",
"940 772 OFFCURVE",
"767 971 OFFCURVE",
"486 971 CURVE SMOOTH",
"392 971 OFFCURVE",
"353 949 OFFCURVE",
"296 876 CURVE",
"253 720 LINE",
"334 779 OFFCURVE",
"416 796 OFFCURVE",
"476 796 CURVE SMOOTH",
"635 796 OFFCURVE",
"743 679 OFFCURVE",
"743 486 CURVE SMOOTH",
"743 265 OFFCURVE",
"600 156 OFFCURVE",
"450 156 CURVE SMOOTH",
"384 156 OFFCURVE",
"311 177 OFFCURVE",
"243 221 CURVE",
"158 61 LINE",
"274 0 OFFCURVE",
"386 -19 OFFCURVE",
"470 -19 CURVE SMOOTH"
);
},
{
closed = 1;
nodes = (
"442 884 LINE",
"452 1593 LINE",
"263 1593 LINE",
"253 726 LINE"
);
},
{
closed = 1;
nodes = (
"883 1417 LINE",
"880 1593 LINE",
"282 1593 LINE",
"306 1417 LINE"
);
}
);
width = 1126;
},
{
layerId = "AC8F5225-6E8D-48D3-AF8E-295F90E86009";
paths = (
{
closed = 1;
nodes = (
"719 -19 OFFCURVE",
"940 152 OFFCURVE",
"940 481 CURVE SMOOTH",
"940 772 OFFCURVE",
"767 971 OFFCURVE",
"486 971 CURVE SMOOTH",
"392 971 OFFCURVE",
"353 949 OFFCURVE",
"296 876 CURVE",
"253 720 LINE",
"334 779 OFFCURVE",
"416 796 OFFCURVE",
"476 796 CURVE SMOOTH",
"635 796 OFFCURVE",
"743 679 OFFCURVE",
"743 486 CURVE SMOOTH",
"743 265 OFFCURVE",
"600 156 OFFCURVE",
"450 156 CURVE SMOOTH",
"384 156 OFFCURVE",
"311 177 OFFCURVE",
"243 221 CURVE",
"158 61 LINE",
"274 0 OFFCURVE",
"386 -19 OFFCURVE",
"470 -19 CURVE SMOOTH"
);
},
{
closed = 1;
nodes = (
"442 884 LINE",
"452 1593 LINE",
"263 1593 LINE",
"253 726 LINE"
);
},
{
closed = 1;
nodes = (
"883 1417 LINE",
"880 1593 LINE",
"282 1593 LINE",
"306 1417 LINE"
);
}
);
width = 1126;
}
);
},
{
color = 6;
glyphname = six.tf;
lastChange = "2021-08-22 04:13:59 +0000";
layers = (
{
layerId = master01;
paths = (
{
closed = 1;
nodes = (
"800 -18 OFFCURVE",
"993 148 OFFCURVE",
"993 483 CURVE SMOOTH",
"993 819 OFFCURVE",
"799 985 OFFCURVE",
"596 985 CURVE SMOOTH",
"510 985 OFFCURVE",
"444 955 OFFCURVE",
"374 872 CURVE",
"394 1065 OFFCURVE",
"539 1321 OFFCURVE",
"761 1479 CURVE",
"667 1632 LINE",
"331 1397 OFFCURVE",
"155 1022 OFFCURVE",
"155 602 CURVE SMOOTH",
"155 184 OFFCURVE",
"329 -18 OFFCURVE",
"576 -18 CURVE SMOOTH"
);
},
{
closed = 1;
nodes = (
"472 159 OFFCURVE",
"369 245 OFFCURVE",
"369 484 CURVE SMOOTH",
"369 724 OFFCURVE",
"472 810 OFFCURVE",
"580 810 CURVE SMOOTH",
"686 810 OFFCURVE",
"796 727 OFFCURVE",
"796 484 CURVE SMOOTH",
"796 242 OFFCURVE",
"686 159 OFFCURVE",
"580 159 CURVE SMOOTH"
);
}
);
width = 1126;
},
{
layerId = "AC8F5225-6E8D-48D3-AF8E-295F90E86009";
paths = (
{
closed = 1;
nodes = (
"800 -18 OFFCURVE",
"993 148 OFFCURVE",
"993 483 CURVE SMOOTH",
"993 819 OFFCURVE",
"799 985 OFFCURVE",
"596 985 CURVE SMOOTH",
"510 985 OFFCURVE",
"444 955 OFFCURVE",
"374 872 CURVE",
"394 1065 OFFCURVE",
"539 1321 OFFCURVE",
"761 1479 CURVE",
"667 1632 LINE",
"331 1397 OFFCURVE",
"155 1022 OFFCURVE",
"155 602 CURVE SMOOTH",
"155 184 OFFCURVE",
"329 -18 OFFCURVE",
"576 -18 CURVE SMOOTH"
);
},
{
closed = 1;
nodes = (
"472 159 OFFCURVE",
"369 245 OFFCURVE",
"369 484 CURVE SMOOTH",
"369 724 OFFCURVE",
"472 810 OFFCURVE",
"580 810 CURVE SMOOTH",
"686 810 OFFCURVE",
"796 727 OFFCURVE",
"796 484 CURVE SMOOTH",
"796 242 OFFCURVE",
"686 159 OFFCURVE",
"580 159 CURVE SMOOTH"
);
}
);
width = 1126;
}
);
},
{
color = 6;
glyphname = seven.tf;
lastChange = "2021-08-22 04:13:59 +0000";
layers = (
{
layerId = master01;
paths = (
{
closed = 1;
nodes = (
"431 0 LINE",
"1020 1593 LINE",
"128 1593 LINE",
"129 1418 LINE",
"776 1418 LINE",
"243 0 LINE"
);
}
);
width = 1126;
},
{
layerId = "AC8F5225-6E8D-48D3-AF8E-295F90E86009";
paths = (
{
closed = 1;
nodes = (
"431 0 LINE",
"1020 1593 LINE",
"128 1593 LINE",
"129 1418 LINE",
"776 1418 LINE",
"243 0 LINE"
);
}
);
width = 1126;
}
);
},
{
color = 6;
glyphname = eight.tf;
lastChange = "2021-08-22 04:13:59 +0000";
layers = (
{
layerId = master01;
paths = (
{
closed = 1;
nodes = (
"804 -19 OFFCURVE",
"986 172 OFFCURVE",
"986 455 CURVE SMOOTH",
"986 751 OFFCURVE",
"786 955 OFFCURVE",
"563 955 CURVE SMOOTH",
"340 955 OFFCURVE",
"140 751 OFFCURVE",
"140 455 CURVE SMOOTH",
"140 172 OFFCURVE",
"322 -19 OFFCURVE",
"563 -19 CURVE SMOOTH"
);
},
{
closed = 1;
nodes = (
"434 156 OFFCURVE",
"337 262 OFFCURVE",
"337 469 CURVE SMOOTH",
"337 676 OFFCURVE",
"434 779 OFFCURVE",
"563 779 CURVE SMOOTH",
"693 779 OFFCURVE",
"789 676 OFFCURVE",
"789 469 CURVE SMOOTH",
"789 262 OFFCURVE",
"693 156 OFFCURVE",
"563 156 CURVE SMOOTH"
);
},
{
closed = 1;
nodes = (
"763 782 OFFCURVE",
"928 980 OFFCURVE",
"928 1224 CURVE SMOOTH",
"928 1475 OFFCURVE",
"754 1630 OFFCURVE",
"563 1630 CURVE SMOOTH",
"371 1630 OFFCURVE",
"197 1474 OFFCURVE",
"197 1223 CURVE SMOOTH",
"197 978 OFFCURVE",
"364 782 OFFCURVE",
"563 782 CURVE SMOOTH"
);
},
{
closed = 1;
nodes = (
"482 956 OFFCURVE",
"394 1025 OFFCURVE",
"394 1205 CURVE SMOOTH",
"394 1385 OFFCURVE",
"482 1455 OFFCURVE",
"563 1455 CURVE SMOOTH",
"644 1455 OFFCURVE",
"731 1385 OFFCURVE",
"731 1205 CURVE SMOOTH",
"731 1025 OFFCURVE",
"644 956 OFFCURVE",
"563 956 CURVE SMOOTH"
);
}
);
width = 1126;
},
{
layerId = "AC8F5225-6E8D-48D3-AF8E-295F90E86009";
paths = (
{
closed = 1;
nodes = (
"804 -19 OFFCURVE",
"986 172 OFFCURVE",
"986 455 CURVE SMOOTH",
"986 751 OFFCURVE",
"786 955 OFFCURVE",
"563 955 CURVE SMOOTH",
"340 955 OFFCURVE",
"140 751 OFFCURVE",
"140 455 CURVE SMOOTH",
"140 172 OFFCURVE",
"322 -19 OFFCURVE",
"563 -19 CURVE SMOOTH"
);
},
{
closed = 1;
nodes = (
"434 156 OFFCURVE",
"337 262 OFFCURVE",
"337 469 CURVE SMOOTH",
"337 676 OFFCURVE",
"434 779 OFFCURVE",
"563 779 CURVE SMOOTH",
"693 779 OFFCURVE",
"789 676 OFFCURVE",
"789 469 CURVE SMOOTH",
"789 262 OFFCURVE",
"693 156 OFFCURVE",
"563 156 CURVE SMOOTH"
);
},
{
closed = 1;
nodes = (
"763 782 OFFCURVE",
"928 980 OFFCURVE",
"928 1224 CURVE SMOOTH",
"928 1475 OFFCURVE",
"754 1630 OFFCURVE",
"563 1630 CURVE SMOOTH",
"371 1630 OFFCURVE",
"197 1474 OFFCURVE",
"197 1223 CURVE SMOOTH",
"197 978 OFFCURVE",
"364 782 OFFCURVE",
"563 782 CURVE SMOOTH"
);
},
{
closed = 1;
nodes = (
"482 956 OFFCURVE",
"394 1025 OFFCURVE",
"394 1205 CURVE SMOOTH",
"394 1385 OFFCURVE",
"482 1455 OFFCURVE",
"563 1455 CURVE SMOOTH",
"644 1455 OFFCURVE",
"731 1385 OFFCURVE",
"731 1205 CURVE SMOOTH",
"731 1025 OFFCURVE",
"644 956 OFFCURVE",
"563 956 CURVE SMOOTH"
);
}
);
width = 1126;
}
);
},
{
color = 6;
glyphname = nine.tf;
lastChange = "2021-08-22 04:13:59 +0000";
layers = (
{
layerId = master01;
paths = (
{
closed = 1;
nodes = (
"809 211 OFFCURVE",
"978 589 OFFCURVE",
"978 1003 CURVE SMOOTH",
"978 1427 OFFCURVE",
"801 1631 OFFCURVE",
"553 1631 CURVE SMOOTH",
"329 1631 OFFCURVE",
"134 1463 OFFCURVE",
"134 1124 CURVE SMOOTH",
"134 784 OFFCURVE",
"331 615 OFFCURVE",
"534 615 CURVE SMOOTH",
"621 615 OFFCURVE",
"686 646 OFFCURVE",
"757 730 CURVE",
"737 535 OFFCURVE",
"590 276 OFFCURVE",
"366 115 CURVE",
"461 -39 LINE"
);
},
{
closed = 1;
nodes = (
"443 790 OFFCURVE",
"330 876 OFFCURVE",
"330 1123 CURVE SMOOTH",
"330 1370 OFFCURVE",
"443 1456 OFFCURVE",
"547 1456 CURVE SMOOTH",
"650 1456 OFFCURVE",
"763 1370 OFFCURVE",
"763 1123 CURVE SMOOTH",
"763 876 OFFCURVE",
"650 790 OFFCURVE",
"547 790 CURVE SMOOTH"
);
}
);
width = 1126;
},
{
layerId = "AC8F5225-6E8D-48D3-AF8E-295F90E86009";
paths = (
{
closed = 1;
nodes = (
"809 211 OFFCURVE",
"978 589 OFFCURVE",
"978 1003 CURVE SMOOTH",
"978 1427 OFFCURVE",
"801 1631 OFFCURVE",
"553 1631 CURVE SMOOTH",
"329 1631 OFFCURVE",
"134 1463 OFFCURVE",
"134 1124 CURVE SMOOTH",
"134 784 OFFCURVE",
"331 615 OFFCURVE",
"534 615 CURVE SMOOTH",
"621 615 OFFCURVE",
"686 646 OFFCURVE",
"757 730 CURVE",
"737 535 OFFCURVE",
"590 276 OFFCURVE",
"366 115 CURVE",
"461 -39 LINE"
);
},
{
closed = 1;
nodes = (
"443 790 OFFCURVE",
"330 876 OFFCURVE",
"330 1123 CURVE SMOOTH",
"330 1370 OFFCURVE",
"443 1456 OFFCURVE",
"547 1456 CURVE SMOOTH",
"650 1456 OFFCURVE",
"763 1370 OFFCURVE",
"763 1123 CURVE SMOOTH",
"763 876 OFFCURVE",
"650 790 OFFCURVE",
"547 790 CURVE SMOOTH"
);
}
);
width = 1126;
}
);
},
{
glyphname = onesuperior;
lastChange = "2021-08-22 04:13:59 +0000";
layers = (
{
layerId = master01;
paths = (
{
closed = 1;
nodes = (
"273 530 LINE",
"273 1633 LINE",
"125 1468 LINE",
"125 530 LINE"
);
}
);
width = 397;
},
{
layerId = "AC8F5225-6E8D-48D3-AF8E-295F90E86009";
paths = (
{
closed = 1;
nodes = (
"273 530 LINE",
"273 1633 LINE",
"125 1468 LINE",
"125 530 LINE"
);
}
);
width = 397;
}
);
unicode = 00B9;
},
{
glyphname = twosuperior;
lastChange = "2021-08-22 04:13:59 +0000";
layers = (
{
layerId = master01;
paths = (
{
closed = 1;
nodes = (
"288 529 LINE",
"546 1064 LINE SMOOTH",
"615 1208 OFFCURVE",
"644 1287 OFFCURVE",
"644 1361 CURVE SMOOTH",
"644 1501 OFFCURVE",
"541 1612 OFFCURVE",
"374 1612 CURVE SMOOTH",
"297 1612 OFFCURVE",
"218 1585 OFFCURVE",
"152 1531 CURVE",
"223 1414 LINE",
"275 1456 OFFCURVE",
"316 1472 OFFCURVE",
"359 1472 CURVE SMOOTH",
"442 1472 OFFCURVE",
"486 1420 OFFCURVE",
"486 1358 CURVE SMOOTH",
"486 1318 OFFCURVE",
"467 1245 OFFCURVE",
"419 1145 CURVE SMOOTH",
"125 529 LINE"
);
},
{
closed = 1;
nodes = (
"657 529 LINE",
"657 673 LINE",
"266 673 LINE",
"193 529 LINE"
);
}
);
width = 782;
},
{
layerId = "AC8F5225-6E8D-48D3-AF8E-295F90E86009";
paths = (
{
closed = 1;
nodes = (
"288 529 LINE",
"546 1064 LINE SMOOTH",
"615 1208 OFFCURVE",
"644 1287 OFFCURVE",
"644 1361 CURVE SMOOTH",
"644 1501 OFFCURVE",
"541 1612 OFFCURVE",
"374 1612 CURVE SMOOTH",
"297 1612 OFFCURVE",
"218 1585 OFFCURVE",
"152 1531 CURVE",
"223 1414 LINE",
"275 1456 OFFCURVE",
"316 1472 OFFCURVE",
"359 1472 CURVE SMOOTH",
"442 1472 OFFCURVE",
"486 1420 OFFCURVE",
"486 1358 CURVE SMOOTH",
"486 1318 OFFCURVE",
"467 1245 OFFCURVE",
"419 1145 CURVE SMOOTH",
"125 529 LINE"
);
},
{
closed = 1;
nodes = (
"657 529 LINE",
"657 673 LINE",
"266 673 LINE",
"193 529 LINE"
);
}
);
width = 782;
}
);
unicode = 00B2;
},
{
glyphname = threesuperior;
lastChange = "2021-08-22 04:13:59 +0000";
layers = (
{
layerId = master01;
paths = (
{
closed = 1;
nodes = (
"538 510 OFFCURVE",
"656 657 OFFCURVE",
"656 836 CURVE SMOOTH",
"656 1002 OFFCURVE",
"547 1149 OFFCURVE",
"312 1176 CURVE",
"276 1088 LINE",
"220 1007 LINE",
"249 1023 OFFCURVE",
"298 1025 OFFCURVE",
"316 1025 CURVE SMOOTH",
"422 1025 OFFCURVE",
"498 951 OFFCURVE",
"498 833 CURVE SMOOTH",
"498 724 OFFCURVE",
"433 651 OFFCURVE",
"318 651 CURVE SMOOTH",
"276 651 OFFCURVE",
"225 661 OFFCURVE",
"182 683 CURVE",
"125 560 LINE",
"171 533 OFFCURVE",
"248 510 OFFCURVE",
"330 510 CURVE SMOOTH"
);
},
{
closed = 1;
nodes = (
"264 1047 LINE",
"396 1052 LINE",
"636 1593 LINE",
"482 1593 LINE",
"220 1007 LINE"
);
},
{
closed = 1;
nodes = (
"465 1449 LINE",
"524 1593 LINE",
"186 1593 LINE",
"186 1449 LINE"
);
}
);
width = 780;
},
{
layerId = "AC8F5225-6E8D-48D3-AF8E-295F90E86009";
paths = (
{
closed = 1;
nodes = (
"538 510 OFFCURVE",
"656 657 OFFCURVE",
"656 836 CURVE SMOOTH",
"656 1002 OFFCURVE",
"547 1149 OFFCURVE",
"312 1176 CURVE",
"276 1088 LINE",
"220 1007 LINE",
"249 1023 OFFCURVE",
"298 1025 OFFCURVE",
"316 1025 CURVE SMOOTH",
"422 1025 OFFCURVE",
"498 951 OFFCURVE",
"498 833 CURVE SMOOTH",
"498 724 OFFCURVE",
"433 651 OFFCURVE",
"318 651 CURVE SMOOTH",
"276 651 OFFCURVE",
"225 661 OFFCURVE",
"182 683 CURVE",
"125 560 LINE",
"171 533 OFFCURVE",
"248 510 OFFCURVE",
"330 510 CURVE SMOOTH"
);
},
{
closed = 1;
nodes = (
"264 1047 LINE",
"396 1052 LINE",
"636 1593 LINE",
"482 1593 LINE",
"220 1007 LINE"
);
},
{
closed = 1;
nodes = (
"465 1449 LINE",
"524 1593 LINE",
"186 1593 LINE",
"186 1449 LINE"
);
}
);
width = 780;
}
);
unicode = 00B3;
},
{
glyphname = fraction;
lastChange = "2021-08-22 04:13:59 +0000";
layers = (
{
layerId = master01;
paths = (
{
closed = 1;
nodes = (
"1140 1549 LINE",
"1004 1612 LINE",
"246 30 LINE",
"382 -33 LINE"
);
}
);
width = 1386;
},
{
layerId = "AC8F5225-6E8D-48D3-AF8E-295F90E86009";
paths = (
{
closed = 1;
nodes = (
"1140 1549 LINE",
"1004 1612 LINE",
"246 30 LINE",
"382 -33 LINE"
);
}
);
width = 1386;
}
);
unicode = 2044;
},
{
glyphname = onehalf;
lastChange = "2021-08-22 04:13:59 +0000";
layers = (
{
components = (
{
name = onesuperior;
transform = "{1, 0, 0, 1, 25, 0}";
},
{
name = twosuperior;
transform = "{1, 0, 0, 1, 850, -527}";
}
);
layerId = master01;
paths = (
{
closed = 1;
nodes = (
"1114 1549 LINE",
"977 1612 LINE",
"219 30 LINE",
"356 -33 LINE"
);
}
);
width = 1673;
},
{
components = (
{
name = onesuperior;
transform = "{1, 0, 0, 1, 25, 0}";
},
{
name = twosuperior;
transform = "{1, 0, 0, 1, 850, -527}";
}
);
layerId = "AC8F5225-6E8D-48D3-AF8E-295F90E86009";
paths = (
{
closed = 1;
nodes = (
"1114 1549 LINE",
"977 1612 LINE",
"219 30 LINE",
"356 -33 LINE"
);
}
);
width = 1673;
}
);
unicode = 00BD;
},
{
glyphname = onequarter;
lastChange = "2021-08-22 04:13:59 +0000";
layers = (
{
components = (
{
name = onesuperior;
transform = "{1, 0, 0, 1, 25, 1}";
}
);
layerId = master01;
paths = (
{
closed = 1;
nodes = (
"1104 1549 LINE",
"967 1612 LINE",
"209 30 LINE",
"346 -33 LINE"
);
},
{
closed = 1;
nodes = (
"1378 0 LINE",
"1378 781 LINE",
"1227 616 LINE",
"1227 0 LINE"
);
},
{
closed = 1;
nodes = (
"1497 250 LINE",
"1497 394 LINE",
"1051 394 LINE",
"1233 1062 LINE",
"1080 1062 LINE",
"856 250 LINE"
);
}
);
width = 1675;
},
{
components = (
{
name = onesuperior;
transform = "{1, 0, 0, 1, 25, 1}";
}
);
layerId = "AC8F5225-6E8D-48D3-AF8E-295F90E86009";
paths = (
{
closed = 1;
nodes = (
"1104 1549 LINE",
"967 1612 LINE",
"209 30 LINE",
"346 -33 LINE"
);
},
{
closed = 1;
nodes = (
"1378 0 LINE",
"1378 781 LINE",
"1227 616 LINE",
"1227 0 LINE"
);
},
{
closed = 1;
nodes = (
"1497 250 LINE",
"1497 394 LINE",
"1051 394 LINE",
"1233 1062 LINE",
"1080 1062 LINE",
"856 250 LINE"
);
}
);
width = 1675;
}
);
unicode = 00BC;
},
{
glyphname = threequarters;
lastChange = "2021-08-22 04:13:59 +0000";
layers = (
{
components = (
{
name = threesuperior;
transform = "{1, 0, 0, 1, 51, 0}";
}
);
layerId = master01;
paths = (
{
closed = 1;
nodes = (
"1434 1549 LINE",
"1297 1612 LINE",
"540 30 LINE",
"676 -33 LINE"
);
},
{
closed = 1;
nodes = (
"1708 0 LINE",
"1708 781 LINE",
"1558 616 LINE",
"1558 0 LINE"
);
},
{
closed = 1;
nodes = (
"1828 250 LINE",
"1828 394 LINE",
"1381 394 LINE",
"1564 1062 LINE",
"1411 1062 LINE",
"1186 250 LINE"
);
}
);
width = 1981;
},
{
components = (
{
name = threesuperior;
transform = "{1, 0, 0, 1, 51, 0}";
}
);
layerId = "AC8F5225-6E8D-48D3-AF8E-295F90E86009";
paths = (
{
closed = 1;
nodes = (
"1434 1549 LINE",
"1297 1612 LINE",
"540 30 LINE",
"676 -33 LINE"
);
},
{
closed = 1;
nodes = (
"1708 0 LINE",
"1708 781 LINE",
"1558 616 LINE",
"1558 0 LINE"
);
},
{
closed = 1;
nodes = (
"1828 250 LINE",
"1828 394 LINE",
"1381 394 LINE",
"1564 1062 LINE",
"1411 1062 LINE",
"1186 250 LINE"
);
}
);
width = 1981;
}
);
unicode = 00BE;
},
{
glyphname = period;
lastChange = "2021-08-22 04:13:59 +0000";
layers = (
{
layerId = master01;
paths = (
{
closed = 1;
nodes = (
"373 -18 OFFCURVE",
"428 44 OFFCURVE",
"428 115 CURVE SMOOTH",
"428 186 OFFCURVE",
"373 249 OFFCURVE",
"289 249 CURVE SMOOTH",
"205 249 OFFCURVE",
"150 186 OFFCURVE",
"150 115 CURVE SMOOTH",
"150 44 OFFCURVE",
"205 -18 OFFCURVE",
"289 -18 CURVE SMOOTH"
);
}
);
width = 578;
},
{
layerId = "AC8F5225-6E8D-48D3-AF8E-295F90E86009";
paths = (
{
closed = 1;
nodes = (
"373 -18 OFFCURVE",
"428 44 OFFCURVE",
"428 115 CURVE SMOOTH",
"428 186 OFFCURVE",
"373 249 OFFCURVE",
"289 249 CURVE SMOOTH",
"205 249 OFFCURVE",
"150 186 OFFCURVE",
"150 115 CURVE SMOOTH",
"150 44 OFFCURVE",
"205 -18 OFFCURVE",
"289 -18 CURVE SMOOTH"
);
}
);
width = 578;
}
);
unicode = 002E;
},
{
glyphname = comma;
lastChange = "2021-08-22 04:13:59 +0000";
layers = (
{
layerId = master01;
paths = (
{
closed = 1;
nodes = (
"325 -145 OFFCURVE",
"390 -24 OFFCURVE",
"390 80 CURVE",
"390 192 OFFCURVE",
"321 249 OFFCURVE",
"243 249 CURVE SMOOTH",
"159 249 OFFCURVE",
"104 186 OFFCURVE",
"104 115 CURVE SMOOTH",
"104 48 OFFCURVE",
"153 -11 OFFCURVE",
"229 -17 CURVE",
"214 -71 OFFCURVE",
"161 -145 OFFCURVE",
"104 -198 CURVE",
"192 -283 LINE"
);
}
);
userData = {
com.typemytype.robofont.guides = (
{
angle = 90;
isGlobal = 0;
magnetic = 5;
x = 104;
y = 0;
}
);
};
width = 475;
},
{
layerId = "AC8F5225-6E8D-48D3-AF8E-295F90E86009";
paths = (
{
closed = 1;
nodes = (
"325 -145 OFFCURVE",
"390 -24 OFFCURVE",
"390 80 CURVE",
"390 192 OFFCURVE",
"321 249 OFFCURVE",
"243 249 CURVE SMOOTH",
"159 249 OFFCURVE",
"104 186 OFFCURVE",
"104 115 CURVE SMOOTH",
"104 48 OFFCURVE",
"153 -11 OFFCURVE",
"229 -17 CURVE",
"214 -71 OFFCURVE",
"161 -145 OFFCURVE",
"104 -198 CURVE",
"192 -283 LINE"
);
}
);
userData = {
com.typemytype.robofont.guides = (
{
angle = 90;
isGlobal = 0;
magnetic = 5;
x = 104;
y = 0;
}
);
};
width = 475;
}
);
unicode = 002C;
},
{
glyphname = semicolon;
lastChange = "2021-08-22 04:13:59 +0000";
layers = (
{
layerId = master01;
paths = (
{
closed = 1;
nodes = (
"375 -134 OFFCURVE",
"427 -17 OFFCURVE",
"427 87 CURVE SMOOTH",
"427 194 OFFCURVE",
"363 249 OFFCURVE",
"285 249 CURVE SMOOTH",
"201 249 OFFCURVE",
"146 186 OFFCURVE",
"146 115 CURVE SMOOTH",
"146 48 OFFCURVE",
"195 -11 OFFCURVE",
"271 -17 CURVE",
"253 -71 OFFCURVE",
"202 -139 OFFCURVE",
"145 -192 CURVE",
"233 -277 LINE"
);
},
{
closed = 1;
nodes = (
"368 612 OFFCURVE",
"423 674 OFFCURVE",
"423 745 CURVE SMOOTH",
"423 816 OFFCURVE",
"368 879 OFFCURVE",
"284 879 CURVE SMOOTH",
"200 879 OFFCURVE",
"145 816 OFFCURVE",
"145 745 CURVE SMOOTH",
"145 674 OFFCURVE",
"200 612 OFFCURVE",
"284 612 CURVE SMOOTH"
);
}
);
width = 571;
},
{
layerId = "AC8F5225-6E8D-48D3-AF8E-295F90E86009";
paths = (
{
closed = 1;
nodes = (
"375 -134 OFFCURVE",
"427 -17 OFFCURVE",
"427 87 CURVE SMOOTH",
"427 194 OFFCURVE",
"363 249 OFFCURVE",
"285 249 CURVE SMOOTH",
"201 249 OFFCURVE",
"146 186 OFFCURVE",
"146 115 CURVE SMOOTH",
"146 48 OFFCURVE",
"195 -11 OFFCURVE",
"271 -17 CURVE",
"253 -71 OFFCURVE",
"202 -139 OFFCURVE",
"145 -192 CURVE",
"233 -277 LINE"
);
},
{
closed = 1;
nodes = (
"368 612 OFFCURVE",
"423 674 OFFCURVE",
"423 745 CURVE SMOOTH",
"423 816 OFFCURVE",
"368 879 OFFCURVE",
"284 879 CURVE SMOOTH",
"200 879 OFFCURVE",
"145 816 OFFCURVE",
"145 745 CURVE SMOOTH",
"145 674 OFFCURVE",
"200 612 OFFCURVE",
"284 612 CURVE SMOOTH"
);
}
);
width = 571;
}
);
unicode = 003B;
},
{
glyphname = exclam;
lastChange = "2021-08-22 04:13:59 +0000";
layers = (
{
layerId = master01;
paths = (
{
closed = 1;
nodes = (
"388 531 LINE",
"388 1593 LINE",
"198 1593 LINE",
"198 531 LINE"
);
},
{
closed = 1;
nodes = (
"375 -18 OFFCURVE",
"431 44 OFFCURVE",
"431 115 CURVE SMOOTH",
"431 186 OFFCURVE",
"375 249 OFFCURVE",
"290 249 CURVE SMOOTH",
"204 249 OFFCURVE",
"148 186 OFFCURVE",
"148 115 CURVE SMOOTH",
"148 44 OFFCURVE",
"204 -18 OFFCURVE",
"290 -18 CURVE SMOOTH"
);
}
);
width = 578;
},
{
layerId = "AC8F5225-6E8D-48D3-AF8E-295F90E86009";
paths = (
{
closed = 1;
nodes = (
"388 531 LINE",
"388 1593 LINE",
"198 1593 LINE",
"198 531 LINE"
);
},
{
closed = 1;
nodes = (
"375 -18 OFFCURVE",
"431 44 OFFCURVE",
"431 115 CURVE SMOOTH",
"431 186 OFFCURVE",
"375 249 OFFCURVE",
"290 249 CURVE SMOOTH",
"204 249 OFFCURVE",
"148 186 OFFCURVE",
"148 115 CURVE SMOOTH",
"148 44 OFFCURVE",
"204 -18 OFFCURVE",
"290 -18 CURVE SMOOTH"
);
}
);
width = 578;
}
);
unicode = 0021;
},
{
glyphname = question;
lastChange = "2021-08-22 04:13:59 +0000";
layers = (
{
layerId = master01;
paths = (
{
closed = 1;
nodes = (
"474 531 LINE",
"474 641 LINE SMOOTH",
"484 1013 OFFCURVE",
"778 988 OFFCURVE",
"778 1286 CURVE SMOOTH",
"778 1484 OFFCURVE",
"648 1611 OFFCURVE",
"422 1611 CURVE SMOOTH",
"333 1611 OFFCURVE",
"240 1588 OFFCURVE",
"153 1538 CURVE",
"235 1383 LINE",
"283 1411 OFFCURVE",
"337 1435 OFFCURVE",
"402 1435 CURVE SMOOTH",
"516 1435 OFFCURVE",
"586 1363 OFFCURVE",
"586 1266 CURVE SMOOTH",
"586 1081 OFFCURVE",
"285 1027 OFFCURVE",
"285 644 CURVE SMOOTH",
"285 531 LINE"
);
},
{
closed = 1;
nodes = (
"492 -18 OFFCURVE",
"548 44 OFFCURVE",
"548 115 CURVE SMOOTH",
"548 186 OFFCURVE",
"492 249 OFFCURVE",
"406 249 CURVE SMOOTH",
"320 249 OFFCURVE",
"264 186 OFFCURVE",
"264 115 CURVE SMOOTH",
"264 44 OFFCURVE",
"320 -18 OFFCURVE",
"406 -18 CURVE SMOOTH"
);
}
);
width = 931;
},
{
layerId = "AC8F5225-6E8D-48D3-AF8E-295F90E86009";
paths = (
{
closed = 1;
nodes = (
"474 531 LINE",
"474 641 LINE SMOOTH",
"484 1013 OFFCURVE",
"778 988 OFFCURVE",
"778 1286 CURVE SMOOTH",
"778 1484 OFFCURVE",
"648 1611 OFFCURVE",
"422 1611 CURVE SMOOTH",
"333 1611 OFFCURVE",
"240 1588 OFFCURVE",
"153 1538 CURVE",
"235 1383 LINE",
"283 1411 OFFCURVE",
"337 1435 OFFCURVE",
"402 1435 CURVE SMOOTH",
"516 1435 OFFCURVE",
"586 1363 OFFCURVE",
"586 1266 CURVE SMOOTH",
"586 1081 OFFCURVE",
"285 1027 OFFCURVE",
"285 644 CURVE SMOOTH",
"285 531 LINE"
);
},
{
closed = 1;
nodes = (
"492 -18 OFFCURVE",
"548 44 OFFCURVE",
"548 115 CURVE SMOOTH",
"548 186 OFFCURVE",
"492 249 OFFCURVE",
"406 249 CURVE SMOOTH",
"320 249 OFFCURVE",
"264 186 OFFCURVE",
"264 115 CURVE SMOOTH",
"264 44 OFFCURVE",
"320 -18 OFFCURVE",
"406 -18 CURVE SMOOTH"
);
}
);
width = 931;
}
);
unicode = 003F;
},
{
glyphname = asterisk;
lastChange = "2021-08-22 04:13:59 +0000";
layers = (
{
layerId = master01;
paths = (
{
closed = 1;
nodes = (
"550 1134 LINE",
"754 979 LINE",
"847 1107 LINE",
"632 1253 LINE",
"845 1399 LINE",
"752 1527 LINE",
"547 1370 LINE",
"475 1619 LINE",
"324 1570 LINE",
"410 1324 LINE",
"150 1331 LINE",
"150 1173 LINE",
"412 1179 LINE",
"325 932 LINE",
"475 883 LINE"
);
}
);
width = 997;
},
{
layerId = "AC8F5225-6E8D-48D3-AF8E-295F90E86009";
paths = (
{
closed = 1;
nodes = (
"550 1134 LINE",
"754 979 LINE",
"847 1107 LINE",
"632 1253 LINE",
"845 1399 LINE",
"752 1527 LINE",
"547 1370 LINE",
"475 1619 LINE",
"324 1570 LINE",
"410 1324 LINE",
"150 1331 LINE",
"150 1173 LINE",
"412 1179 LINE",
"325 932 LINE",
"475 883 LINE"
);
}
);
width = 997;
}
);
unicode = 002A;
},
{
glyphname = numbersign;
lastChange = "2021-08-22 04:13:59 +0000";
layers = (
{
layerId = master01;
paths = (
{
closed = 1;
nodes = (
"776 0 LINE",
"1070 1417 LINE",
"922 1417 LINE",
"628 0 LINE"
);
},
{
closed = 1;
nodes = (
"1205 383 LINE",
"1205 531 LINE",
"90 531 LINE",
"90 383 LINE"
);
},
{
closed = 1;
nodes = (
"365 0 LINE",
"659 1417 LINE",
"511 1417 LINE",
"217 0 LINE"
);
},
{
closed = 1;
nodes = (
"1205 914 LINE",
"1205 1062 LINE",
"90 1062 LINE",
"90 914 LINE"
);
}
);
width = 1290;
},
{
layerId = "AC8F5225-6E8D-48D3-AF8E-295F90E86009";
paths = (
{
closed = 1;
nodes = (
"776 0 LINE",
"1070 1417 LINE",
"922 1417 LINE",
"628 0 LINE"
);
},
{
closed = 1;
nodes = (
"1205 383 LINE",
"1205 531 LINE",
"90 531 LINE",
"90 383 LINE"
);
},
{
closed = 1;
nodes = (
"365 0 LINE",
"659 1417 LINE",
"511 1417 LINE",
"217 0 LINE"
);
},
{
closed = 1;
nodes = (
"1205 914 LINE",
"1205 1062 LINE",
"90 1062 LINE",
"90 914 LINE"
);
}
);
width = 1290;
}
);
unicode = 0023;
},
{
glyphname = slash;
lastChange = "2021-08-22 04:13:59 +0000";
layers = (
{
layerId = master01;
paths = (
{
closed = 1;
nodes = (
"804 1559 LINE",
"648 1612 LINE",
"96 34 LINE",
"251 -19 LINE"
);
}
);
width = 881;
},
{
layerId = "AC8F5225-6E8D-48D3-AF8E-295F90E86009";
paths = (
{
closed = 1;
nodes = (
"804 1559 LINE",
"648 1612 LINE",
"96 34 LINE",
"251 -19 LINE"
);
}
);
width = 881;
}
);
unicode = 002F;
},
{
glyphname = backslash;
lastChange = "2021-08-22 04:13:59 +0000";
layers = (
{
layerId = master01;
paths = (
{
closed = 1;
nodes = (
"785 34 LINE",
"234 1612 LINE",
"78 1559 LINE",
"630 -19 LINE"
);
}
);
width = 881;
},
{
layerId = "AC8F5225-6E8D-48D3-AF8E-295F90E86009";
paths = (
{
closed = 1;
nodes = (
"785 34 LINE",
"234 1612 LINE",
"78 1559 LINE",
"630 -19 LINE"
);
}
);
width = 881;
}
);
unicode = 005C;
},
{
glyphname = parenleft;
lastChange = "2021-08-22 04:13:59 +0000";
layers = (
{
layerId = master01;
paths = (
{
closed = 1;
nodes = (
"692 64 LINE",
"477 251 OFFCURVE",
"359 497 OFFCURVE",
"359 796 CURVE SMOOTH",
"359 1095 OFFCURVE",
"477 1341 OFFCURVE",
"692 1528 CURVE",
"692 1736 LINE",
"398 1534 OFFCURVE",
"188 1212 OFFCURVE",
"188 796 CURVE SMOOTH",
"188 380 OFFCURVE",
"398 58 OFFCURVE",
"692 -144 CURVE"
);
}
);
userData = {
com.typemytype.robofont.guides = (
{
angle = 0;
isGlobal = 0;
magnetic = 5;
x = 0;
y = 622;
},
{
angle = 0;
isGlobal = 0;
magnetic = 5;
x = 0;
y = -305;
}
);
};
width = 831;
},
{
layerId = "AC8F5225-6E8D-48D3-AF8E-295F90E86009";
paths = (
{
closed = 1;
nodes = (
"692 64 LINE",
"477 251 OFFCURVE",
"359 497 OFFCURVE",
"359 796 CURVE SMOOTH",
"359 1095 OFFCURVE",
"477 1341 OFFCURVE",
"692 1528 CURVE",
"692 1736 LINE",
"398 1534 OFFCURVE",
"188 1212 OFFCURVE",
"188 796 CURVE SMOOTH",
"188 380 OFFCURVE",
"398 58 OFFCURVE",
"692 -144 CURVE"
);
}
);
userData = {
com.typemytype.robofont.guides = (
{
angle = 0;
isGlobal = 0;
magnetic = 5;
x = 0;
y = 622;
},
{
angle = 0;
isGlobal = 0;
magnetic = 5;
x = 0;
y = -305;
}
);
};
width = 831;
}
);
unicode = 0028;
},
{
glyphname = parenright;
lastChange = "2021-08-22 04:13:59 +0000";
layers = (
{
layerId = master01;
paths = (
{
closed = 1;
nodes = (
"481 58 OFFCURVE",
"692 380 OFFCURVE",
"692 796 CURVE SMOOTH",
"692 1212 OFFCURVE",
"481 1534 OFFCURVE",
"188 1736 CURVE",
"188 1528 LINE",
"402 1341 OFFCURVE",
"520 1095 OFFCURVE",
"520 796 CURVE",
"520 497 OFFCURVE",
"402 251 OFFCURVE",
"188 64 CURVE",
"188 -144 LINE"
);
}
);
width = 809;
},
{
layerId = "AC8F5225-6E8D-48D3-AF8E-295F90E86009";
paths = (
{
closed = 1;
nodes = (
"481 58 OFFCURVE",
"692 380 OFFCURVE",
"692 796 CURVE SMOOTH",
"692 1212 OFFCURVE",
"481 1534 OFFCURVE",
"188 1736 CURVE",
"188 1528 LINE",
"402 1341 OFFCURVE",
"520 1095 OFFCURVE",
"520 796 CURVE",
"520 497 OFFCURVE",
"402 251 OFFCURVE",
"188 64 CURVE",
"188 -144 LINE"
);
}
);
width = 809;
}
);
unicode = 0029;
},
{
glyphname = braceleft;
lastChange = "2021-08-22 04:13:59 +0000";
layers = (
{
layerId = master01;
paths = (
{
closed = 1;
nodes = (
"682 -158 LINE",
"682 0 LINE",
"601 0 LINE SMOOTH",
"527 0 OFFCURVE",
"494 36 OFFCURVE",
"494 115 CURVE SMOOTH",
"494 357 LINE SMOOTH",
"494 520 OFFCURVE",
"455 672 OFFCURVE",
"310 797 CURVE",
"455 920 OFFCURVE",
"494 1072 OFFCURVE",
"494 1235 CURVE SMOOTH",
"494 1478 LINE SMOOTH",
"494 1557 OFFCURVE",
"527 1593 OFFCURVE",
"601 1593 CURVE SMOOTH",
"682 1593 LINE",
"682 1751 LINE",
"601 1751 LINE SMOOTH",
"406 1751 OFFCURVE",
"322 1664 OFFCURVE",
"322 1478 CURVE SMOOTH",
"322 1235 LINE SMOOTH",
"322 1048 OFFCURVE",
"270 940 OFFCURVE",
"78 796 CURVE",
"270 652 OFFCURVE",
"322 544 OFFCURVE",
"322 357 CURVE SMOOTH",
"322 115 LINE SMOOTH",
"322 -71 OFFCURVE",
"406 -158 OFFCURVE",
"601 -158 CURVE SMOOTH"
);
}
);
userData = {
com.typemytype.robofont.guides = (
{
angle = 0;
isGlobal = 0;
magnetic = 5;
x = 0;
y = 620;
}
);
};
width = 833;
},
{
layerId = "AC8F5225-6E8D-48D3-AF8E-295F90E86009";
paths = (
{
closed = 1;
nodes = (
"682 -158 LINE",
"682 0 LINE",
"601 0 LINE SMOOTH",
"527 0 OFFCURVE",
"494 36 OFFCURVE",
"494 115 CURVE SMOOTH",
"494 357 LINE SMOOTH",
"494 520 OFFCURVE",
"455 672 OFFCURVE",
"310 797 CURVE",
"455 920 OFFCURVE",
"494 1072 OFFCURVE",
"494 1235 CURVE SMOOTH",
"494 1478 LINE SMOOTH",
"494 1557 OFFCURVE",
"527 1593 OFFCURVE",
"601 1593 CURVE SMOOTH",
"682 1593 LINE",
"682 1751 LINE",
"601 1751 LINE SMOOTH",
"406 1751 OFFCURVE",
"322 1664 OFFCURVE",
"322 1478 CURVE SMOOTH",
"322 1235 LINE SMOOTH",
"322 1048 OFFCURVE",
"270 940 OFFCURVE",
"78 796 CURVE",
"270 652 OFFCURVE",
"322 544 OFFCURVE",
"322 357 CURVE SMOOTH",
"322 115 LINE SMOOTH",
"322 -71 OFFCURVE",
"406 -158 OFFCURVE",
"601 -158 CURVE SMOOTH"
);
}
);
userData = {
com.typemytype.robofont.guides = (
{
angle = 0;
isGlobal = 0;
magnetic = 5;
x = 0;
y = 620;
}
);
};
width = 833;
}
);
unicode = 007B;
},
{
glyphname = braceright;
lastChange = "2021-08-22 04:13:59 +0000";
layers = (
{
layerId = master01;
paths = (
{
closed = 1;
nodes = (
"235 -158 LINE SMOOTH",
"429 -158 OFFCURVE",
"513 -71 OFFCURVE",
"513 115 CURVE SMOOTH",
"513 357 LINE SMOOTH",
"513 544 OFFCURVE",
"565 652 OFFCURVE",
"758 796 CURVE",
"565 940 OFFCURVE",
"513 1048 OFFCURVE",
"513 1235 CURVE SMOOTH",
"513 1478 LINE SMOOTH",
"513 1664 OFFCURVE",
"429 1751 OFFCURVE",
"235 1751 CURVE SMOOTH",
"153 1751 LINE",
"153 1593 LINE",
"235 1593 LINE SMOOTH",
"308 1593 OFFCURVE",
"342 1557 OFFCURVE",
"342 1478 CURVE SMOOTH",
"342 1235 LINE SMOOTH",
"342 1072 OFFCURVE",
"380 919 OFFCURVE",
"525 796 CURVE",
"380 671 OFFCURVE",
"342 520 OFFCURVE",
"342 357 CURVE SMOOTH",
"342 115 LINE SMOOTH",
"342 36 OFFCURVE",
"308 0 OFFCURVE",
"235 0 CURVE SMOOTH",
"153 0 LINE",
"153 -158 LINE"
);
}
);
userData = {
com.typemytype.robofont.guides = (
{
angle = 0;
isGlobal = 0;
magnetic = 5;
x = 0;
y = 620;
},
{
angle = 0;
isGlobal = 0;
magnetic = 5;
x = 0;
y = -305;
}
);
};
width = 833;
},
{
layerId = "AC8F5225-6E8D-48D3-AF8E-295F90E86009";
paths = (
{
closed = 1;
nodes = (
"235 -158 LINE SMOOTH",
"429 -158 OFFCURVE",
"513 -71 OFFCURVE",
"513 115 CURVE SMOOTH",
"513 357 LINE SMOOTH",
"513 544 OFFCURVE",
"565 652 OFFCURVE",
"758 796 CURVE",
"565 940 OFFCURVE",
"513 1048 OFFCURVE",
"513 1235 CURVE SMOOTH",
"513 1478 LINE SMOOTH",
"513 1664 OFFCURVE",
"429 1751 OFFCURVE",
"235 1751 CURVE SMOOTH",
"153 1751 LINE",
"153 1593 LINE",
"235 1593 LINE SMOOTH",
"308 1593 OFFCURVE",
"342 1557 OFFCURVE",
"342 1478 CURVE SMOOTH",
"342 1235 LINE SMOOTH",
"342 1072 OFFCURVE",
"380 919 OFFCURVE",
"525 796 CURVE",
"380 671 OFFCURVE",
"342 520 OFFCURVE",
"342 357 CURVE SMOOTH",
"342 115 LINE SMOOTH",
"342 36 OFFCURVE",
"308 0 OFFCURVE",
"235 0 CURVE SMOOTH",
"153 0 LINE",
"153 -158 LINE"
);
}
);
userData = {
com.typemytype.robofont.guides = (
{
angle = 0;
isGlobal = 0;
magnetic = 5;
x = 0;
y = 620;
},
{
angle = 0;
isGlobal = 0;
magnetic = 5;
x = 0;
y = -305;
}
);
};
width = 833;
}
);
unicode = 007D;
},
{
glyphname = bracketleft;
lastChange = "2021-08-22 04:13:59 +0000";
layers = (
{
layerId = master01;
paths = (
{
closed = 1;
nodes = (
"538 -158 LINE",
"538 0 LINE",
"359 0 LINE",
"359 1593 LINE",
"538 1593 LINE",
"538 1751 LINE",
"188 1751 LINE",
"188 -158 LINE"
);
}
);
width = 692;
},
{
layerId = "AC8F5225-6E8D-48D3-AF8E-295F90E86009";
paths = (
{
closed = 1;
nodes = (
"538 -158 LINE",
"538 0 LINE",
"359 0 LINE",
"359 1593 LINE",
"538 1593 LINE",
"538 1751 LINE",
"188 1751 LINE",
"188 -158 LINE"
);
}
);
width = 692;
}
);
unicode = 005B;
},
{
glyphname = bracketright;
lastChange = "2021-08-22 04:13:59 +0000";
layers = (
{
layerId = master01;
paths = (
{
closed = 1;
nodes = (
"503 -158 LINE",
"503 1751 LINE",
"153 1751 LINE",
"153 1593 LINE",
"331 1593 LINE",
"331 0 LINE",
"153 0 LINE",
"153 -158 LINE"
);
}
);
userData = {
com.typemytype.robofont.guides = (
{
angle = 0;
isGlobal = 0;
magnetic = 5;
x = 0;
y = -305;
}
);
};
width = 692;
},
{
layerId = "AC8F5225-6E8D-48D3-AF8E-295F90E86009";
paths = (
{
closed = 1;
nodes = (
"503 -158 LINE",
"503 1751 LINE",
"153 1751 LINE",
"153 1593 LINE",
"331 1593 LINE",
"331 0 LINE",
"153 0 LINE",
"153 -158 LINE"
);
}
);
userData = {
com.typemytype.robofont.guides = (
{
angle = 0;
isGlobal = 0;
magnetic = 5;
x = 0;
y = -305;
}
);
};
width = 692;
}
);
unicode = 005D;
},
{
glyphname = hyphen;
lastChange = "2021-08-22 04:13:59 +0000";
layers = (
{
layerId = master01;
paths = (
{
closed = 1;
nodes = (
"577 531 LINE",
"577 699 LINE",
"150 699 LINE",
"150 531 LINE"
);
}
);
width = 727;
},
{
layerId = "AC8F5225-6E8D-48D3-AF8E-295F90E86009";
paths = (
{
closed = 1;
nodes = (
"577 531 LINE",
"577 699 LINE",
"150 699 LINE",
"150 531 LINE"
);
}
);
width = 727;
}
);
unicode = 002D;
},
{
glyphname = endash;
lastChange = "2021-08-22 04:13:59 +0000";
layers = (
{
layerId = master01;
paths = (
{
closed = 1;
nodes = (
"775 531 LINE",
"775 699 LINE",
"150 699 LINE",
"150 531 LINE"
);
}
);
width = 926;
},
{
layerId = "AC8F5225-6E8D-48D3-AF8E-295F90E86009";
paths = (
{
closed = 1;
nodes = (
"775 531 LINE",
"775 699 LINE",
"150 699 LINE",
"150 531 LINE"
);
}
);
width = 926;
}
);
unicode = 2013;
},
{
glyphname = emdash;
lastChange = "2021-08-22 04:13:59 +0000";
layers = (
{
layerId = master01;
paths = (
{
closed = 1;
nodes = (
"1136 531 LINE",
"1136 699 LINE",
"150 699 LINE",
"150 531 LINE"
);
}
);
width = 1286;
},
{
layerId = "AC8F5225-6E8D-48D3-AF8E-295F90E86009";
paths = (
{
closed = 1;
nodes = (
"1136 531 LINE",
"1136 699 LINE",
"150 699 LINE",
"150 531 LINE"
);
}
);
width = 1286;
}
);
unicode = 2014;
},
{
glyphname = underscore;
lastChange = "2021-08-22 04:13:59 +0000";
layers = (
{
layerId = master01;
paths = (
{
closed = 1;
nodes = (
"1100 -353 LINE",
"1100 -205 LINE",
"-50 -205 LINE",
"-50 -353 LINE"
);
}
);
width = 1050;
},
{
layerId = "AC8F5225-6E8D-48D3-AF8E-295F90E86009";
paths = (
{
closed = 1;
nodes = (
"1100 -353 LINE",
"1100 -205 LINE",
"-50 -205 LINE",
"-50 -353 LINE"
);
}
);
width = 1050;
}
);
unicode = 005F;
},
{
glyphname = quoteleft;
lastChange = "2021-08-22 04:13:59 +0000";
layers = (
{
layerId = master01;
paths = (
{
closed = 1;
nodes = (
"387 1062 OFFCURVE",
"442 1125 OFFCURVE",
"442 1196 CURVE SMOOTH",
"442 1263 OFFCURVE",
"393 1322 OFFCURVE",
"317 1328 CURVE",
"332 1382 OFFCURVE",
"385 1455 OFFCURVE",
"442 1508 CURVE",
"354 1593 LINE",
"221 1455 OFFCURVE",
"156 1335 OFFCURVE",
"156 1231 CURVE SMOOTH",
"156 1119 OFFCURVE",
"225 1062 OFFCURVE",
"303 1062 CURVE SMOOTH"
);
}
);
width = 571;
},
{
layerId = "AC8F5225-6E8D-48D3-AF8E-295F90E86009";
paths = (
{
closed = 1;
nodes = (
"387 1062 OFFCURVE",
"442 1125 OFFCURVE",
"442 1196 CURVE SMOOTH",
"442 1263 OFFCURVE",
"393 1322 OFFCURVE",
"317 1328 CURVE",
"332 1382 OFFCURVE",
"385 1455 OFFCURVE",
"442 1508 CURVE",
"354 1593 LINE",
"221 1455 OFFCURVE",
"156 1335 OFFCURVE",
"156 1231 CURVE SMOOTH",
"156 1119 OFFCURVE",
"225 1062 OFFCURVE",
"303 1062 CURVE SMOOTH"
);
}
);
width = 571;
}
);
unicode = 2018;
},
{
glyphname = quoteright;
lastChange = "2021-08-22 04:13:59 +0000";
layers = (
{
layerId = master01;
paths = (
{
closed = 1;
nodes = (
"350 1201 OFFCURVE",
"415 1321 OFFCURVE",
"415 1425 CURVE SMOOTH",
"415 1537 OFFCURVE",
"346 1594 OFFCURVE",
"268 1594 CURVE SMOOTH",
"184 1594 OFFCURVE",
"129 1531 OFFCURVE",
"129 1460 CURVE SMOOTH",
"129 1393 OFFCURVE",
"178 1334 OFFCURVE",
"254 1328 CURVE",
"239 1274 OFFCURVE",
"186 1201 OFFCURVE",
"129 1148 CURVE",
"217 1063 LINE"
);
}
);
width = 571;
},
{
layerId = "AC8F5225-6E8D-48D3-AF8E-295F90E86009";
paths = (
{
closed = 1;
nodes = (
"350 1201 OFFCURVE",
"415 1321 OFFCURVE",
"415 1425 CURVE SMOOTH",
"415 1537 OFFCURVE",
"346 1594 OFFCURVE",
"268 1594 CURVE SMOOTH",
"184 1594 OFFCURVE",
"129 1531 OFFCURVE",
"129 1460 CURVE SMOOTH",
"129 1393 OFFCURVE",
"178 1334 OFFCURVE",
"254 1328 CURVE",
"239 1274 OFFCURVE",
"186 1201 OFFCURVE",
"129 1148 CURVE",
"217 1063 LINE"
);
}
);
width = 571;
}
);
unicode = 2019;
},
{
glyphname = quotereversed;
lastChange = "2021-08-22 04:13:59 +0000";
layers = (
{
layerId = master01;
paths = (
{
closed = 1;
nodes = (
"129 1321 OFFCURVE",
"194 1201 OFFCURVE",
"327 1063 CURVE",
"415 1148 LINE",
"358 1201 OFFCURVE",
"305 1274 OFFCURVE",
"290 1328 CURVE",
"366 1334 OFFCURVE",
"415 1393 OFFCURVE",
"415 1460 CURVE SMOOTH",
"415 1531 OFFCURVE",
"360 1594 OFFCURVE",
"276 1594 CURVE SMOOTH",
"198 1594 OFFCURVE",
"129 1537 OFFCURVE",
"129 1425 CURVE SMOOTH"
);
}
);
width = 571;
},
{
layerId = "AC8F5225-6E8D-48D3-AF8E-295F90E86009";
paths = (
{
closed = 1;
nodes = (
"129 1321 OFFCURVE",
"194 1201 OFFCURVE",
"327 1063 CURVE",
"415 1148 LINE",
"358 1201 OFFCURVE",
"305 1274 OFFCURVE",
"290 1328 CURVE",
"366 1334 OFFCURVE",
"415 1393 OFFCURVE",
"415 1460 CURVE SMOOTH",
"415 1531 OFFCURVE",
"360 1594 OFFCURVE",
"276 1594 CURVE SMOOTH",
"198 1594 OFFCURVE",
"129 1537 OFFCURVE",
"129 1425 CURVE SMOOTH"
);
}
);
width = 571;
}
);
unicode = 201B;
},
{
glyphname = guilsinglleft;
lastChange = "2021-08-22 04:13:59 +0000";
layers = (
{
layerId = master01;
paths = (
{
closed = 1;
nodes = (
"530 223 LINE",
"276 531 LINE",
"530 839 LINE",
"420 931 LINE",
"88 531 LINE",
"420 131 LINE"
);
}
);
width = 702;
},
{
layerId = "AC8F5225-6E8D-48D3-AF8E-295F90E86009";
paths = (
{
closed = 1;
nodes = (
"530 223 LINE",
"276 531 LINE",
"530 839 LINE",
"420 931 LINE",
"88 531 LINE",
"420 131 LINE"
);
}
);
width = 702;
}
);
unicode = 2039;
},
{
glyphname = guilsinglright;
lastChange = "2021-08-22 04:13:59 +0000";
layers = (
{
layerId = master01;
paths = (
{
closed = 1;
nodes = (
"530 531 LINE",
"198 931 LINE",
"88 839 LINE",
"342 531 LINE",
"88 223 LINE",
"198 131 LINE"
);
}
);
width = 702;
},
{
layerId = "AC8F5225-6E8D-48D3-AF8E-295F90E86009";
paths = (
{
closed = 1;
nodes = (
"530 531 LINE",
"198 931 LINE",
"88 839 LINE",
"342 531 LINE",
"88 223 LINE",
"198 131 LINE"
);
}
);
width = 702;
}
);
unicode = 203A;
},
{
glyphname = quotesingle;
lastChange = "2021-08-22 04:13:59 +0000";
layers = (
{
layerId = master01;
paths = (
{
closed = 1;
nodes = (
"350 1062 LINE",
"350 1594 LINE",
"180 1594 LINE",
"180 1062 LINE"
);
}
);
width = 530;
},
{
layerId = "AC8F5225-6E8D-48D3-AF8E-295F90E86009";
paths = (
{
closed = 1;
nodes = (
"350 1062 LINE",
"350 1594 LINE",
"180 1594 LINE",
"180 1062 LINE"
);
}
);
width = 530;
}
);
unicode = 0027;
},
{
glyphname = .notdef;
lastChange = "2021-08-22 04:13:59 +0000";
layers = (
{
layerId = master01;
paths = (
{
closed = 1;
nodes = (
"1593 0 LINE",
"1593 1416 LINE",
"177 1416 LINE",
"177 0 LINE"
);
},
{
closed = 1;
nodes = (
"440 387 LINE",
"783 705 LINE",
"439 1043 LINE",
"553 1159 LINE",
"886 807 LINE",
"1214 1158 LINE",
"1333 1042 LINE",
"985 708 LINE",
"1333 365 LINE",
"1220 252 LINE",
"883 605 LINE",
"559 252 LINE"
);
}
);
width = 1770;
},
{
layerId = "AC8F5225-6E8D-48D3-AF8E-295F90E86009";
paths = (
{
closed = 1;
nodes = (
"1593 0 LINE",
"1593 1416 LINE",
"177 1416 LINE",
"177 0 LINE"
);
},
{
closed = 1;
nodes = (
"440 387 LINE",
"783 705 LINE",
"439 1043 LINE",
"553 1159 LINE",
"886 807 LINE",
"1214 1158 LINE",
"1333 1042 LINE",
"985 708 LINE",
"1333 365 LINE",
"1220 252 LINE",
"883 605 LINE",
"559 252 LINE"
);
}
);
width = 1770;
}
);
},
{
glyphname = cent;
lastChange = "2021-08-22 04:13:59 +0000";
layers = (
{
components = (
{
name = c;
transform = "{1, 0, 0, 1, -1, 0}";
}
);
layerId = master01;
paths = (
{
closed = 1;
nodes = (
"518 927 LINE",
"518 1238 LINE",
"367 1238 LINE",
"367 927 LINE"
);
},
{
closed = 1;
nodes = (
"518 -176 LINE",
"518 135 LINE",
"367 135 LINE",
"367 -176 LINE"
);
}
);
width = 785;
},
{
components = (
{
name = c;
transform = "{1, 0, 0, 1, -1, 0}";
}
);
layerId = "AC8F5225-6E8D-48D3-AF8E-295F90E86009";
paths = (
{
closed = 1;
nodes = (
"518 927 LINE",
"518 1238 LINE",
"367 1238 LINE",
"367 927 LINE"
);
},
{
closed = 1;
nodes = (
"518 -176 LINE",
"518 135 LINE",
"367 135 LINE",
"367 -176 LINE"
);
}
);
width = 785;
}
);
unicode = 00A2;
},
{
glyphname = currency;
lastChange = "2021-08-22 04:13:59 +0000";
layers = (
{
layerId = master01;
paths = (
{
closed = 1;
nodes = (
"174 525 OFFCURVE",
"337 366 OFFCURVE",
"539 366 CURVE SMOOTH",
"741 366 OFFCURVE",
"904 525 OFFCURVE",
"904 723 CURVE SMOOTH",
"904 921 OFFCURVE",
"741 1081 OFFCURVE",
"539 1081 CURVE SMOOTH",
"337 1081 OFFCURVE",
"174 921 OFFCURVE",
"174 723 CURVE SMOOTH"
);
},
{
closed = 1;
nodes = (
"88 388 LINE",
"197 281 LINE",
"399 480 LINE",
"284 579 LINE"
);
},
{
closed = 1;
nodes = (
"883 282 LINE",
"992 389 LINE",
"809 569 LINE",
"683 477 LINE"
);
},
{
closed = 1;
nodes = (
"992 1060 LINE",
"883 1167 LINE",
"690 977 LINE",
"790 862 LINE"
);
},
{
closed = 1;
nodes = (
"199 1167 LINE",
"89 1060 LINE",
"293 861 LINE",
"408 962 LINE"
);
},
{
closed = 1;
nodes = (
"338 831 OFFCURVE",
"428 921 OFFCURVE",
"539 921 CURVE SMOOTH",
"649 921 OFFCURVE",
"741 831 OFFCURVE",
"741 723 CURVE SMOOTH",
"741 615 OFFCURVE",
"649 526 OFFCURVE",
"539 526 CURVE SMOOTH",
"428 526 OFFCURVE",
"338 615 OFFCURVE",
"338 723 CURVE SMOOTH"
);
}
);
userData = {
com.typemytype.robofont.guides = (
{
angle = 0;
isGlobal = 0;
magnetic = 5;
x = 0;
y = 1116;
},
{
angle = 0;
isGlobal = 0;
magnetic = 5;
x = 0;
y = 724;
},
{
angle = 90;
isGlobal = 0;
magnetic = 5;
x = 540;
y = 0;
}
);
};
width = 1082;
},
{
layerId = "AC8F5225-6E8D-48D3-AF8E-295F90E86009";
paths = (
{
closed = 1;
nodes = (
"174 525 OFFCURVE",
"337 366 OFFCURVE",
"539 366 CURVE SMOOTH",
"741 366 OFFCURVE",
"904 525 OFFCURVE",
"904 723 CURVE SMOOTH",
"904 921 OFFCURVE",
"741 1081 OFFCURVE",
"539 1081 CURVE SMOOTH",
"337 1081 OFFCURVE",
"174 921 OFFCURVE",
"174 723 CURVE SMOOTH"
);
},
{
closed = 1;
nodes = (
"88 388 LINE",
"197 281 LINE",
"399 480 LINE",
"284 579 LINE"
);
},
{
closed = 1;
nodes = (
"883 282 LINE",
"992 389 LINE",
"809 569 LINE",
"683 477 LINE"
);
},
{
closed = 1;
nodes = (
"992 1060 LINE",
"883 1167 LINE",
"690 977 LINE",
"790 862 LINE"
);
},
{
closed = 1;
nodes = (
"199 1167 LINE",
"89 1060 LINE",
"293 861 LINE",
"408 962 LINE"
);
},
{
closed = 1;
nodes = (
"338 831 OFFCURVE",
"428 921 OFFCURVE",
"539 921 CURVE SMOOTH",
"649 921 OFFCURVE",
"741 831 OFFCURVE",
"741 723 CURVE SMOOTH",
"741 615 OFFCURVE",
"649 526 OFFCURVE",
"539 526 CURVE SMOOTH",
"428 526 OFFCURVE",
"338 615 OFFCURVE",
"338 723 CURVE SMOOTH"
);
}
);
userData = {
com.typemytype.robofont.guides = (
{
angle = 0;
isGlobal = 0;
magnetic = 5;
x = 0;
y = 1116;
},
{
angle = 0;
isGlobal = 0;
magnetic = 5;
x = 0;
y = 724;
},
{
angle = 90;
isGlobal = 0;
magnetic = 5;
x = 540;
y = 0;
}
);
};
width = 1082;
}
);
unicode = 00A4;
},
{
glyphname = dollar;
lastChange = "2021-08-22 04:13:59 +0000";
layers = (
{
components = (
{
name = S;
transform = "{1, 0, 0, 1, 9, 0}";
}
);
layerId = master01;
paths = (
{
closed = 1;
nodes = (
"506 -177 LINE",
"506 134 LINE",
"355 134 LINE",
"355 -177 LINE"
);
},
{
closed = 1;
nodes = (
"506 1514 LINE",
"506 1772 LINE",
"355 1772 LINE",
"355 1514 LINE"
);
}
);
userData = {
com.typemytype.robofont.guides = (
{
angle = 0;
isGlobal = 0;
magnetic = 5;
x = 0;
y = 1265;
},
{
angle = 0;
isGlobal = 0;
magnetic = 5;
x = 0;
y = 157;
},
{
angle = 0;
isGlobal = 0;
magnetic = 5;
x = 0;
y = 316;
}
);
};
width = 905;
},
{
components = (
{
name = S;
transform = "{1, 0, 0, 1, 9, 0}";
}
);
layerId = "AC8F5225-6E8D-48D3-AF8E-295F90E86009";
paths = (
{
closed = 1;
nodes = (
"506 -177 LINE",
"506 134 LINE",
"355 134 LINE",
"355 -177 LINE"
);
},
{
closed = 1;
nodes = (
"506 1514 LINE",
"506 1772 LINE",
"355 1772 LINE",
"355 1514 LINE"
);
}
);
userData = {
com.typemytype.robofont.guides = (
{
angle = 0;
isGlobal = 0;
magnetic = 5;
x = 0;
y = 1265;
},
{
angle = 0;
isGlobal = 0;
magnetic = 5;
x = 0;
y = 157;
},
{
angle = 0;
isGlobal = 0;
magnetic = 5;
x = 0;
y = 316;
}
);
};
width = 905;
}
);
unicode = 0024;
},
{
glyphname = euro;
lastChange = "2021-08-22 04:13:59 +0000";
layers = (
{
components = (
{
name = C;
transform = "{1, 0, 0, 1, 121, 0}";
}
);
layerId = master01;
paths = (
{
closed = 1;
nodes = (
"761 1011 LINE",
"84 1011 LINE",
"84 835 LINE",
"761 835 LINE"
);
},
{
closed = 1;
nodes = (
"761 707 LINE",
"84 707 LINE",
"84 531 LINE",
"761 531 LINE"
);
}
);
width = 1082;
},
{
components = (
{
name = C;
transform = "{1, 0, 0, 1, 121, 0}";
}
);
layerId = "AC8F5225-6E8D-48D3-AF8E-295F90E86009";
paths = (
{
closed = 1;
nodes = (
"761 1011 LINE",
"84 1011 LINE",
"84 835 LINE",
"761 835 LINE"
);
},
{
closed = 1;
nodes = (
"761 707 LINE",
"84 707 LINE",
"84 531 LINE",
"761 531 LINE"
);
}
);
width = 1082;
}
);
unicode = 20AC;
},
{
glyphname = florin;
lastChange = "2021-08-22 04:13:59 +0000";
layers = (
{
layerId = master01;
paths = (
{
closed = 1;
nodes = (
"225 0 LINE",
"405 1120 LINE SMOOTH",
"431 1288 OFFCURVE",
"512 1419 OFFCURVE",
"643 1437 CURVE",
"671 1612 LINE",
"446 1604 OFFCURVE",
"267 1396 OFFCURVE",
"223 1122 CURVE SMOOTH",
"44 0 LINE"
);
},
{
closed = 1;
nodes = (
"550 894 LINE",
"577 1062 LINE",
"132 1062 LINE",
"104 894 LINE"
);
}
);
width = 576;
},
{
layerId = "AC8F5225-6E8D-48D3-AF8E-295F90E86009";
paths = (
{
closed = 1;
nodes = (
"225 0 LINE",
"405 1120 LINE SMOOTH",
"431 1288 OFFCURVE",
"512 1419 OFFCURVE",
"643 1437 CURVE",
"671 1612 LINE",
"446 1604 OFFCURVE",
"267 1396 OFFCURVE",
"223 1122 CURVE SMOOTH",
"44 0 LINE"
);
},
{
closed = 1;
nodes = (
"550 894 LINE",
"577 1062 LINE",
"132 1062 LINE",
"104 894 LINE"
);
}
);
width = 576;
}
);
unicode = 0192;
},
{
glyphname = sterling;
lastChange = "2021-08-22 04:13:59 +0000";
layers = (
{
layerId = master01;
paths = (
{
closed = 1;
nodes = (
"341 0 LINE",
"459 271 OFFCURVE",
"507 454 OFFCURVE",
"507 680 CURVE SMOOTH",
"507 893 OFFCURVE",
"396 1015 OFFCURVE",
"396 1229 CURVE SMOOTH",
"396 1354 OFFCURVE",
"471 1437 OFFCURVE",
"590 1437 CURVE SMOOTH",
"646 1437 OFFCURVE",
"735 1416 OFFCURVE",
"817 1355 CURVE",
"897 1502 LINE",
"806 1579 OFFCURVE",
"690 1612 OFFCURVE",
"580 1612 CURVE SMOOTH",
"347 1612 OFFCURVE",
"199 1442 OFFCURVE",
"199 1229 CURVE SMOOTH",
"199 1035 OFFCURVE",
"310 849 OFFCURVE",
"310 678 CURVE SMOOTH",
"310 498 OFFCURVE",
"265 271 OFFCURVE",
"138 0 CURVE"
);
},
{
closed = 1;
nodes = (
"883 0 LINE",
"883 176 LINE",
"353 176 LINE",
"221 0 LINE"
);
},
{
closed = 1;
nodes = (
"800 676 LINE",
"800 852 LINE",
"143 852 LINE",
"143 676 LINE"
);
}
);
userData = {
com.typemytype.robofont.guides = (
{
angle = 90;
isGlobal = 0;
magnetic = 5;
x = 822;
y = 0;
},
{
angle = 90;
isGlobal = 0;
magnetic = 5;
x = 134;
y = 0;
}
);
};
width = 1036;
},
{
layerId = "AC8F5225-6E8D-48D3-AF8E-295F90E86009";
paths = (
{
closed = 1;
nodes = (
"341 0 LINE",
"459 271 OFFCURVE",
"507 454 OFFCURVE",
"507 680 CURVE SMOOTH",
"507 893 OFFCURVE",
"396 1015 OFFCURVE",
"396 1229 CURVE SMOOTH",
"396 1354 OFFCURVE",
"471 1437 OFFCURVE",
"590 1437 CURVE SMOOTH",
"646 1437 OFFCURVE",
"735 1416 OFFCURVE",
"817 1355 CURVE",
"897 1502 LINE",
"806 1579 OFFCURVE",
"690 1612 OFFCURVE",
"580 1612 CURVE SMOOTH",
"347 1612 OFFCURVE",
"199 1442 OFFCURVE",
"199 1229 CURVE SMOOTH",
"199 1035 OFFCURVE",
"310 849 OFFCURVE",
"310 678 CURVE SMOOTH",
"310 498 OFFCURVE",
"265 271 OFFCURVE",
"138 0 CURVE"
);
},
{
closed = 1;
nodes = (
"883 0 LINE",
"883 176 LINE",
"353 176 LINE",
"221 0 LINE"
);
},
{
closed = 1;
nodes = (
"800 676 LINE",
"800 852 LINE",
"143 852 LINE",
"143 676 LINE"
);
}
);
userData = {
com.typemytype.robofont.guides = (
{
angle = 90;
isGlobal = 0;
magnetic = 5;
x = 822;
y = 0;
},
{
angle = 90;
isGlobal = 0;
magnetic = 5;
x = 134;
y = 0;
}
);
};
width = 1036;
}
);
unicode = 00A3;
},
